<svg width="38" height="38" viewBox="0 0 38 38" fill="none" xmlns="http://www.w3.org/2000/svg">
<g id="Group">
<path id="Vector" fill-rule="evenodd" clip-rule="evenodd" d="M0 8.80413C0 6.46913 0.927575 4.22976 2.57867 2.57867C4.22976 0.927575 6.46913 0 8.80413 0C11.1391 0 13.3785 0.927575 15.0296 2.57867C16.6807 4.22976 17.6083 6.46913 17.6083 8.80413C17.6083 11.1391 16.6807 13.3785 15.0296 15.0296C13.3785 16.6807 11.1391 17.6083 8.80413 17.6083C6.46913 17.6083 4.22976 16.6807 2.57867 15.0296C0.927575 13.3785 0 11.1391 0 8.80413Z" fill="#00A966"/>
<path id="Vector_2" opacity="0.5" fill-rule="evenodd" clip-rule="evenodd" d="M20.3898 29.1939C20.3898 28.0376 20.6176 26.8926 21.0601 25.8243C21.5026 24.756 22.1512 23.7854 22.9688 22.9677C23.7864 22.1501 24.7571 21.5015 25.8253 21.059C26.8936 20.6165 28.0386 20.3888 29.1949 20.3888C30.3512 20.3888 31.4962 20.6165 32.5645 21.059C33.6327 21.5015 34.6034 22.1501 35.421 22.9677C36.2387 23.7854 36.8872 24.756 37.3297 25.8243C37.7722 26.8926 38 28.0376 38 29.1939C38 31.5291 37.0723 33.7687 35.421 35.42C33.7698 37.0713 31.5302 37.9989 29.1949 37.9989C26.8597 37.9989 24.62 37.0713 22.9688 35.42C21.3175 33.7687 20.3898 31.5291 20.3898 29.1939Z" fill="#00A966"/>
<path id="Vector_3" d="M0 29.4484C0 25.4187 -1.13243e-07 23.4029 1.25203 22.1509C2.50407 20.8988 4.51986 20.8988 8.54954 20.8988C12.5792 20.8988 14.595 20.8988 15.847 22.1509C17.0991 23.4029 17.0991 25.4187 17.0991 29.4484C17.0991 33.478 17.0991 35.4938 15.847 36.7459C14.595 37.9979 12.5792 37.9979 8.54954 37.9979C4.51986 37.9979 2.50407 37.9979 1.25203 36.7459C-1.13243e-07 35.4938 0 33.478 0 29.4484Z" fill="#00A966"/>
<path id="Vector_4" opacity="0.5" d="M20.8992 8.54951C20.8992 4.51983 20.8992 2.50403 22.1512 1.252C23.4032 -3.06308e-05 25.419 -3.05176e-05 29.4487 -3.05176e-05C33.4784 -3.05176e-05 35.4942 -3.06308e-05 36.7462 1.252C37.9983 2.50403 37.9983 4.51983 37.9983 8.54951C37.9983 12.5792 37.9983 14.595 36.7462 15.847C35.4942 17.0991 33.4784 17.0991 29.4487 17.0991C25.419 17.0991 23.4032 17.0991 22.1512 15.847C20.8992 14.595 20.8992 12.5792 20.8992 8.54951Z" fill="#00A966"/>
</g>
</svg>
