<svg width="42" height="42" viewBox="0 0 42 42" fill="none" xmlns="http://www.w3.org/2000/svg">
<g id="Group">
<path id="Vector" opacity="0.5" d="M21 42C32.5983 42 42 32.5983 42 21C42 9.4017 32.5983 0 21 0C9.4017 0 0 9.4017 0 21C0 24.36 0.7896 27.5352 2.1903 30.3513C2.5641 31.0989 2.688 31.9536 2.4717 32.7621L1.2222 37.4367C1.09891 37.8992 1.09937 38.3859 1.22354 38.8482C1.34772 39.3104 1.59123 39.7319 1.92967 40.0703C2.26811 40.4088 2.68958 40.6523 3.15182 40.7765C3.61406 40.9006 4.10082 40.9011 4.5633 40.7778L9.2379 39.5283C10.0494 39.3241 10.9075 39.4234 11.6508 39.8076C14.5549 41.2537 17.7557 42.0043 21 42Z" fill="#FF5A41"/>
<path id="Vector_2" d="M22.5752 12.6002C22.5752 12.1825 22.4092 11.7819 22.1139 11.4865C21.8185 11.1911 21.4179 11.0252 21.0002 11.0252C20.5824 11.0252 20.1818 11.1911 19.8865 11.4865C19.5911 11.7819 19.4252 12.1825 19.4252 12.6002V12.6212C17.1383 13.1987 15.2252 15.0005 15.2252 17.4995C15.2252 20.5592 18.0917 22.5752 21.0002 22.5752C22.7306 22.5752 23.6252 23.6945 23.6252 24.5009C23.6252 25.3073 22.7306 26.4245 21.0002 26.4245C19.2698 26.4245 18.3752 25.3073 18.3752 24.5009C18.3752 24.0832 18.2092 23.6826 17.9139 23.3872C17.6185 23.0918 17.2179 22.9259 16.8002 22.9259C16.3824 22.9259 15.9818 23.0918 15.6865 23.3872C15.3911 23.6826 15.2252 24.0832 15.2252 24.5009C15.2252 26.9999 17.1383 28.8038 19.4252 29.3792V29.4002C19.4252 29.8179 19.5911 30.2185 19.8865 30.5139C20.1818 30.8092 20.5824 30.9752 21.0002 30.9752C21.4179 30.9752 21.8185 30.8092 22.1139 30.5139C22.4092 30.2185 22.5752 29.8179 22.5752 29.4002V29.3792C24.8621 28.8038 26.7752 26.9999 26.7752 24.5009C26.7752 21.4412 23.9087 19.4252 21.0002 19.4252C19.2698 19.4252 18.3752 18.3059 18.3752 17.4995C18.3752 16.6931 19.2698 15.5759 21.0002 15.5759C22.7306 15.5759 23.6252 16.6931 23.6252 17.4995C23.6252 17.9172 23.7911 18.3178 24.0865 18.6132C24.3818 18.9085 24.7824 19.0745 25.2002 19.0745C25.6179 19.0745 26.0185 18.9085 26.3139 18.6132C26.6092 18.3178 26.7752 17.9172 26.7752 17.4995C26.7752 15.0005 24.8621 13.1987 22.5752 12.6212V12.6002Z" fill="#FF5A41"/>
</g>
</svg>
