<svg width="42" height="42" viewBox="0 0 42 42" fill="none" xmlns="http://www.w3.org/2000/svg">
<g id="Group">
<path id="Vector" d="M13.4862 39.0978C17.1739 41.0341 19.0177 42.0001 21.0001 42.0001V21L1.3398 10.6533C1.31123 10.6998 1.28323 10.7467 1.2558 10.794C1.2517e-07 12.9234 0 15.5757 0 20.8782V21.1239C0 26.4243 -2.5034e-07 29.0766 1.2537 31.206C2.50951 33.3375 4.76911 34.524 9.28623 36.8949L13.4862 39.0978Z" fill="#007AFF"/>
<path id="Vector_2" opacity="0.7" d="M32.7118 5.10722L28.5118 2.90221C24.8263 0.968103 22.9824 0 21 0C19.0155 0 17.1738 0.966003 13.4862 2.90221L9.28621 5.10722C4.86779 7.42562 2.60819 8.61003 1.33978 10.6512L21 21.0001L40.6603 10.6533C39.3877 8.61003 37.1323 7.42562 32.7118 5.10722Z" fill="#007AFF"/>
<path id="Vector_3" opacity="0.5" d="M40.7462 10.794C40.7181 10.7467 40.6894 10.6998 40.6601 10.6533L20.9999 21V42.0001C22.9823 42.0001 24.8261 41.0341 28.5137 39.0978L32.7137 36.8928C37.2308 34.5219 39.4904 33.3375 40.7462 31.206C41.9999 29.0766 41.9999 26.4243 41.9999 21.126V20.8803C41.9999 15.5778 41.9999 12.9234 40.7462 10.794Z" fill="#007AFF"/>
<path id="Vector_4" d="M9.07842 5.21642L9.28842 5.10722L12.4237 3.46082L31.5338 13.9713L39.9863 9.74823C40.274 10.0737 40.526 10.4202 40.7465 10.794C41.0615 11.3274 41.2967 11.8944 41.4731 12.5265L33.0752 16.7245V23.1001C33.0752 23.5178 32.9093 23.9184 32.6139 24.2138C32.3185 24.5091 31.9179 24.6751 31.5002 24.6751C31.0825 24.6751 30.6819 24.5091 30.3865 24.2138C30.0911 23.9184 29.9252 23.5178 29.9252 23.1001V18.2995L22.5752 21.9745V41.7985C22.0605 41.9305 21.5315 41.9983 21.0002 42.0001C20.4794 42.0001 19.9649 41.9329 19.4252 41.7985V21.9745L0.529297 12.5244C0.705697 11.8944 0.940898 11.3274 1.2559 10.794C1.47454 10.4214 1.72916 10.0712 2.0161 9.74823L21.0002 19.2403L28.1108 15.685L9.07842 5.21642Z" fill="#007AFF"/>
</g>
</svg>
