<svg width="16" height="15" viewBox="0 0 16 15" fill="none" xmlns="http://www.w3.org/2000/svg">
<path opacity="0.5" d="M1.30981 3.50893C1.30981 2.75748 1.60833 2.03681 2.13968 1.50546C2.67103 0.974105 3.3917 0.675594 4.14315 0.675594C4.89459 0.675594 5.61526 0.974105 6.14662 1.50546C6.67797 2.03681 6.97648 2.75748 6.97648 3.50893C6.97648 4.26037 6.67797 4.98104 6.14662 5.5124C5.61526 6.04375 4.89459 6.34226 4.14315 6.34226C3.3917 6.34226 2.67103 6.04375 2.13968 5.5124C1.60833 4.98104 1.30981 4.26037 1.30981 3.50893ZM9.10148 11.3006C9.10148 10.5491 9.39999 9.82848 9.93134 9.29712C10.4627 8.76577 11.1834 8.46726 11.9348 8.46726C12.6863 8.46726 13.4069 8.76577 13.9383 9.29712C14.4696 9.82848 14.7681 10.5491 14.7681 11.3006C14.7681 12.052 14.4696 12.7727 13.9383 13.3041C13.4069 13.8354 12.6863 14.1339 11.9348 14.1339C11.1834 14.1339 10.4627 13.8354 9.93134 13.3041C9.39999 12.7727 9.10148 12.052 9.10148 11.3006Z" stroke="#8392A5" stroke-width="1.0625"/>
<path d="M14.7681 3.50893C14.7681 2.75748 14.4696 2.03681 13.9383 1.50546C13.4069 0.974105 12.6863 0.675594 11.9348 0.675594C11.1834 0.675594 10.4627 0.974105 9.93134 1.50546C9.39999 2.03681 9.10148 2.75748 9.10148 3.50893C9.10148 4.26037 9.39999 4.98104 9.93134 5.5124C10.4627 6.04375 11.1834 6.34226 11.9348 6.34226C12.6863 6.34226 13.4069 6.04375 13.9383 5.5124C14.4696 4.98104 14.7681 4.26037 14.7681 3.50893ZM6.97648 11.3006C6.97648 10.5491 6.67797 9.82848 6.14662 9.29712C5.61526 8.76577 4.89459 8.46726 4.14315 8.46726C3.3917 8.46726 2.67103 8.76577 2.13968 9.29712C1.60833 9.82848 1.30981 10.5491 1.30981 11.3006C1.30981 12.052 1.60833 12.7727 2.13968 13.3041C2.67103 13.8354 3.3917 14.1339 4.14315 14.1339C4.89459 14.1339 5.61526 13.8354 6.14662 13.3041C6.67797 12.7727 6.97648 12.052 6.97648 11.3006Z" stroke="#8392A5" stroke-width="1.0625"/>
</svg>
