<svg width="16" height="16" viewBox="0 0 16 16" fill="none" xmlns="http://www.w3.org/2000/svg">
<path d="M4.57301 10.7445C4.59428 10.8214 4.63047 10.8933 4.67953 10.9562C4.72858 11.0191 4.78954 11.0716 4.85893 11.111C4.92831 11.1503 5.00476 11.1755 5.0839 11.1853C5.16305 11.1951 5.24335 11.1892 5.32021 11.1679C5.39707 11.1466 5.46899 11.1105 5.53186 11.0614C5.59474 11.0123 5.64733 10.9514 5.68665 10.882C5.72596 10.8126 5.75123 10.7362 5.761 10.657C5.77077 10.5779 5.76485 10.4976 5.74359 10.4207L4.57301 10.7445ZM1.08719 2.2121C1.01002 2.18956 0.929152 2.18257 0.849266 2.19153C0.769379 2.20049 0.692068 2.22523 0.621818 2.26431C0.551568 2.30339 0.489777 2.35603 0.440031 2.41917C0.390285 2.48232 0.353574 2.55472 0.332028 2.63216C0.310483 2.70961 0.304531 2.79056 0.314519 2.87033C0.324507 2.95009 0.350236 3.02708 0.390212 3.09682C0.430189 3.16656 0.483617 3.22767 0.547397 3.27661C0.611178 3.32554 0.68404 3.36131 0.761757 3.38186L1.08719 2.2121ZM14.8394 11.1169C14.9185 11.0986 14.9931 11.0647 15.0588 11.0171C15.1245 10.9695 15.18 10.9092 15.2221 10.8398C15.2641 10.7704 15.2918 10.6932 15.3035 10.6129C15.3152 10.5327 15.3107 10.4508 15.2902 10.3723C15.2697 10.2938 15.2338 10.2202 15.1844 10.1558C15.135 10.0914 15.0732 10.0376 15.0026 9.99749C14.9321 9.95741 14.8542 9.93186 14.7736 9.92238C14.693 9.9129 14.6114 9.91966 14.5334 9.94228L14.8394 11.1169ZM6.75145 12.6016C7.00241 13.5083 6.45193 14.4659 5.47726 14.7193L5.78245 15.8939C7.38289 15.4786 8.3608 13.8685 7.92203 12.2778L6.75145 12.6016ZM5.47726 14.7193C4.49611 14.9743 3.51172 14.4044 3.25915 13.4896L2.08857 13.8134C2.52572 15.3961 4.18849 16.3084 5.78245 15.8939L5.47726 14.7193ZM3.25915 13.4896C3.0082 12.583 3.55868 11.6253 4.53335 11.3719L4.22816 10.1981C2.62772 10.6134 1.649 12.2227 2.08857 13.8134L3.25915 13.4896ZM4.53335 11.3719C5.51449 11.1169 6.49888 11.6868 6.75145 12.6016L7.92203 12.2778C7.48489 10.6951 5.82212 9.7828 4.22816 10.1973L4.53335 11.3719ZM5.74359 10.4207L4.00149 4.11449L2.83091 4.4383L4.57301 10.7445L5.74359 10.4207ZM2.46662 2.59419L1.08719 2.2121L0.761757 3.38186L2.142 3.76477L2.46662 2.59419ZM4.00149 4.11449C3.89878 3.75008 3.7034 3.4185 3.43442 3.15206C3.16543 2.88562 2.83199 2.69342 2.46662 2.59419L2.14362 3.76477C2.48767 3.8603 2.74348 4.12177 2.83091 4.4383L4.00149 4.11449ZM7.49055 13.0274L14.8394 11.1169L14.5343 9.94228L7.18455 11.8528L7.49055 13.0274Z" fill="#8392A5"/>
<path opacity="0.5" d="M6.23962 5.45426C5.847 4.03354 5.6511 3.32277 5.98462 2.76339C6.31734 2.2032 7.04996 2.01296 8.51521 1.63167L10.0695 1.22852C11.5347 0.848046 12.2674 0.656997 12.8446 0.979999C13.4218 1.30381 13.6185 2.01377 14.0103 3.4353L14.4272 4.94264C14.8198 6.36336 15.0165 7.07413 14.683 7.63432C14.3495 8.1937 13.6169 8.38475 12.1516 8.76523L10.5973 9.16918C9.13207 9.54966 8.39945 9.7399 7.82225 9.4169C7.24506 9.09309 7.04915 8.38313 6.65653 6.96241L6.23962 5.45426Z" stroke="#8392A5" stroke-width="1.2"/>
</svg>
