<svg width="18" height="19" viewBox="0 0 18 19" fill="none" xmlns="http://www.w3.org/2000/svg">
<path d="M1.30981 4.01028C1.30981 2.57108 2.56341 1.40468 4.10981 1.40468C5.65621 1.40468 6.90981 2.57108 6.90981 4.01028C6.90981 5.43828 6.01621 7.10468 4.62181 7.70068C4.45987 7.76942 4.28574 7.80484 4.10981 7.80484C3.93389 7.80484 3.75976 7.76942 3.59781 7.70068C2.20341 7.10468 1.30981 5.43828 1.30981 4.01028ZM11.7098 13.6103C11.7098 12.1711 12.9634 11.0047 14.5098 11.0047C16.0562 11.0047 17.3098 12.1711 17.3098 13.6103C17.3098 15.0383 16.4162 16.7047 15.0218 17.3007C14.8599 17.3694 14.6857 17.4048 14.5098 17.4048C14.3339 17.4048 14.1598 17.3694 13.9978 17.3007C12.6034 16.7047 11.7098 15.0383 11.7098 13.6103Z" stroke="#8392A5" stroke-width="1.2"/>
<path opacity="0.5" d="M9.3099 3.20477C9.15077 3.20477 8.99816 3.26799 8.88564 3.38051C8.77312 3.49303 8.7099 3.64564 8.7099 3.80477C8.7099 3.9639 8.77312 4.11652 8.88564 4.22904C8.99816 4.34156 9.15077 4.40477 9.3099 4.40477V3.20477ZM9.3099 15.0048L9.7339 15.4288C9.84626 15.3163 9.90937 15.1638 9.90937 15.0048C9.90937 14.8458 9.84626 14.6933 9.7339 14.5808L9.3099 15.0048ZM8.5339 13.3808C8.42016 13.2748 8.26973 13.2171 8.11428 13.2198C7.95884 13.2226 7.81053 13.2855 7.7006 13.3955C7.59067 13.5054 7.5277 13.6537 7.52496 13.8092C7.52222 13.9646 7.57992 14.115 7.6859 14.2288L8.5339 13.3808ZM7.6859 15.7808C7.62695 15.8357 7.57967 15.9019 7.54688 15.9755C7.51408 16.0491 7.49645 16.1286 7.49503 16.2092C7.49361 16.2897 7.50843 16.3697 7.5386 16.4444C7.56878 16.5192 7.6137 16.587 7.67067 16.644C7.72765 16.701 7.79551 16.7459 7.87022 16.7761C7.94493 16.8062 8.02496 16.8211 8.10552 16.8196C8.18608 16.8182 8.26553 16.8006 8.33913 16.7678C8.41273 16.735 8.47897 16.6877 8.5339 16.6288L7.6859 15.7808ZM12.6155 3.20477H9.3099V4.40477H12.6155V3.20477ZM9.3099 14.4048H6.0043V15.6048H9.3099V14.4048ZM13.1523 6.24877L4.8235 11.5488L5.4675 12.5608L13.7963 7.26077L13.1523 6.24877ZM9.7339 14.5808L8.5339 13.3808L7.6859 14.2288L8.8859 15.4288L9.7339 14.5808ZM8.8859 14.5808L7.6859 15.7808L8.5339 16.6288L9.7339 15.4288L8.8859 14.5808ZM6.0043 14.4048C5.0043 14.4048 4.6235 13.0984 5.4675 12.5608L4.8235 11.5488C2.9667 12.7304 3.8035 15.6048 6.0043 15.6048V14.4048ZM12.6155 4.40477C13.6155 4.40477 13.9963 5.71117 13.1523 6.24877L13.7963 7.26077C15.6531 6.07917 14.8163 3.20477 12.6155 3.20477V4.40477Z" fill="#8392A5"/>
<path d="M14.5101 13.8048H14.5173M4.10205 4.20477H4.11005" stroke="#8392A5" stroke-width="1.2" stroke-linecap="round" stroke-linejoin="round"/>
</svg>
