<svg width="17" height="17" viewBox="0 0 17 17" fill="none" xmlns="http://www.w3.org/2000/svg">
<g id="Group 33727">
<path id="Vector" d="M5.63889 1H2C1.44772 1 1 1.44772 1 2V5.63889C1 6.19117 1.44772 6.63889 2 6.63889H5.63889C6.19117 6.63889 6.63889 6.19117 6.63889 5.63889V2C6.63889 1.44772 6.19117 1 5.63889 1Z" stroke="#007AFF" stroke-width="1.2" stroke-linecap="round" stroke-linejoin="round"/>
<path id="Vector_2" d="M14.5 1H10.8611C10.3088 1 9.86108 1.44772 9.86108 2V5.63889C9.86108 6.19117 10.3088 6.63889 10.8611 6.63889H14.5C15.0523 6.63889 15.5 6.19117 15.5 5.63889V2C15.5 1.44772 15.0523 1 14.5 1Z" stroke="#007AFF" stroke-width="1.2" stroke-linecap="round" stroke-linejoin="round"/>
<path id="Vector_3" d="M14.5 9.86111H10.8611C10.3088 9.86111 9.86108 10.3088 9.86108 10.8611V14.5C9.86108 15.0523 10.3088 15.5 10.8611 15.5H14.5C15.0523 15.5 15.5 15.0523 15.5 14.5V10.8611C15.5 10.3088 15.0523 9.86111 14.5 9.86111Z" stroke="#007AFF" stroke-width="1.2" stroke-linecap="round" stroke-linejoin="round"/>
<path id="Vector_4" d="M5.63889 9.86111H2C1.44772 9.86111 1 10.3088 1 10.8611V14.5C1 15.0523 1.44772 15.5 2 15.5H5.63889C6.19117 15.5 6.63889 15.0523 6.63889 14.5V10.8611C6.63889 10.3088 6.19117 9.86111 5.63889 9.86111Z" stroke="#007AFF" stroke-width="1.2" stroke-linecap="round" stroke-linejoin="round"/>
</g>
</svg>
