<svg width="42" height="47" viewBox="0 0 42 47" fill="none" xmlns="http://www.w3.org/2000/svg">
<path opacity="0.5" d="M0 19.8591C0 12.5038 6.85447e-08 8.82615 0.869391 7.58876C1.73648 6.35367 5.19335 5.16918 12.1094 2.80251L13.4273 2.35171C17.0313 1.11662 18.8322 0.500229 20.6998 0.500229C22.5651 0.500229 24.3683 1.11662 27.9723 2.35171L29.2902 2.80251C36.2062 5.16918 39.6631 6.35367 40.5302 7.58876C41.3996 8.82615 41.3996 12.5061 41.3996 19.8591V23.4793C41.3996 36.4466 31.65 42.7416 25.532 45.4119C23.8738 46.1364 23.0458 46.4998 20.6998 46.4998C18.3538 46.4998 17.5258 46.1364 15.8675 45.4119C9.7496 42.7393 0 36.4489 0 23.4793V19.8591Z" fill="#FF5A41"/>
<path d="M25.2994 16.6002C25.2994 17.8202 24.8147 18.9902 23.9521 19.8529C23.0894 20.7156 21.9194 21.2002 20.6994 21.2002C19.4794 21.2002 18.3094 20.7156 17.4468 19.8529C16.5841 18.9902 16.0995 17.8202 16.0995 16.6002C16.0995 15.3803 16.5841 14.2102 17.4468 13.3476C18.3094 12.4849 19.4794 12.0003 20.6994 12.0003C21.9194 12.0003 23.0894 12.4849 23.9521 13.3476C24.8147 14.2102 25.2994 15.3803 25.2994 16.6002ZM20.6994 35.0001C29.8993 35.0001 29.8993 32.9416 29.8993 30.4001C29.8993 27.8586 25.7824 25.8002 20.6994 25.8002C15.6165 25.8002 11.4995 27.8586 11.4995 30.4001C11.4995 32.9416 11.4995 35.0001 20.6994 35.0001Z" fill="#FF5A41"/>
</svg>
