<svg width="19" height="14" viewBox="0 0 19 14" fill="none" xmlns="http://www.w3.org/2000/svg">
<g id="Group 33726">
<path id="Vector" d="M1.5 10.25L1.5 12.25C1.5 12.8023 1.94772 13.25 2.5 13.25L16.5 13.25C17.0523 13.25 17.5 12.8023 17.5 12.25L17.5 10.25C17.5 9.69771 17.0523 9.25 16.5 9.25L2.5 9.25C1.94772 9.25 1.5 9.69772 1.5 10.25Z" stroke="#8A94A6" stroke-width="1.2" stroke-linecap="round" stroke-linejoin="round"/>
<path id="Vector_2" d="M1.5 2.25L1.5 4.25C1.5 4.80228 1.94772 5.25 2.5 5.25L16.5 5.25C17.0523 5.25 17.5 4.80228 17.5 4.25L17.5 2.25C17.5 1.69771 17.0523 1.25 16.5 1.25L2.5 1.25C1.94772 1.25 1.5 1.69772 1.5 2.25Z" stroke="#8A94A6" stroke-width="1.2" stroke-linecap="round" stroke-linejoin="round"/>
</g>
</svg>
