<svg width="55" height="54" viewBox="0 0 55 54" fill="none" xmlns="http://www.w3.org/2000/svg">
<rect width="55" height="54" rx="16" fill="#F8EDE8"/>
<path d="M23.4399 38.5688C25.4742 39.637 26.4914 40.1699 27.585 40.1699V28.5849L16.7391 22.877C16.7234 22.9026 16.7079 22.9285 16.6928 22.9546C16 24.1293 16 25.5925 16 28.5177V28.6532C16 31.5773 16 33.0405 16.6916 34.2152C17.3844 35.3911 18.631 36.0456 21.1229 37.3536L23.4399 38.5688Z" fill="#F08F5F"/>
<path opacity="0.7" d="M34.0461 19.8175L31.7291 18.601C29.6959 17.5341 28.6788 17 27.5851 17C26.4903 17 25.4743 17.5329 23.44 18.601L21.123 19.8175C18.6855 21.0965 17.439 21.7498 16.7393 22.8759L27.5851 28.585L38.431 22.8771C37.729 21.7498 36.4847 21.0965 34.0461 19.8175Z" fill="#F08F5F"/>
<path opacity="0.5" d="M38.4783 22.9546C38.4628 22.9285 38.447 22.9026 38.4308 22.877L27.585 28.5849V40.1699C28.6786 40.1699 29.6957 39.637 31.7301 38.5688L34.0471 37.3524C36.539 36.0445 37.7856 35.3911 38.4783 34.2152C39.17 33.0405 39.17 31.5773 39.17 28.6544V28.5188C39.17 25.5936 39.17 24.1293 38.4783 22.9546Z" fill="#F08F5F"/>
</svg>
