<svg width="245" height="230" viewBox="0 0 245 230" fill="none" xmlns="http://www.w3.org/2000/svg">
<path opacity="0.1" d="M122.5 230C190.155 230 245 224.868 245 218.538C245 212.208 190.155 207.076 122.5 207.076C54.8451 207.076 0 212.208 0 218.538C0 224.868 54.8451 230 122.5 230Z" fill="#278DFF"/>
<path d="M193.038 102.56L190.286 102.985L193.471 123.963L196.222 123.538L193.038 102.56Z" fill="#FAB623"/>
<path d="M193.031 102.575L190.309 103.011L190.928 100.889L191.237 99.7657L191.856 100.702L193.031 102.575Z" fill="#FF8C64"/>
<path d="M196.009 122.045L193.257 122.47L193.491 124.012L196.243 123.587L196.009 122.045Z" fill="#35252F"/>
<path d="M196.261 124.795L193.848 125.17C193.725 125.17 193.663 125.107 193.663 124.983L193.477 123.921L196.261 123.484L196.447 124.546C196.447 124.67 196.385 124.795 196.261 124.795Z" fill="#EF452F"/>
<path d="M191.862 100.702L190.934 100.889L191.243 99.7657L191.862 100.702Z" fill="#35252F"/>
<path d="M193.263 122.471L196.015 122.046L195.846 120.935L193.094 121.36L193.263 122.471Z" fill="#F68407"/>
<path d="M191.119 103.948L193.47 119.49C193.47 119.615 193.594 119.677 193.718 119.677C193.841 119.677 193.903 119.552 193.903 119.427L191.552 103.885C191.552 103.761 191.429 103.698 191.305 103.698C191.181 103.698 191.119 103.823 191.119 103.948Z" fill="#F68407"/>
<path d="M192.237 103.761L194.587 119.303C194.587 119.428 194.711 119.49 194.835 119.49C194.959 119.49 195.021 119.365 195.021 119.241L192.67 103.698C192.67 103.574 192.546 103.511 192.422 103.511C192.298 103.511 192.237 103.636 192.237 103.761Z" fill="#F68407"/>
<path d="M198.018 102.63L195.234 102.642L195.286 123.864L198.07 123.852L198.018 102.63Z" fill="#4F9D5C"/>
<path d="M198.045 102.636L195.261 102.699L196.189 100.639L196.622 99.6404L197.117 100.639L198.045 102.636Z" fill="#FF8C64"/>
<path d="M198.116 122.354L195.332 122.366L195.336 123.927L198.12 123.915L198.116 122.354Z" fill="#35252F"/>
<path d="M197.932 125.107H195.519C195.395 125.107 195.333 125.045 195.333 124.92V123.859H198.117V124.92C198.117 125.045 198.056 125.107 197.932 125.107Z" fill="#EF452F"/>
<path d="M197.123 100.64H196.195L196.628 99.6411L197.123 100.64Z" fill="#35252F"/>
<path d="M195.328 122.367L198.112 122.357L198.108 121.234L195.324 121.243L195.328 122.367Z" fill="#3C7341"/>
<path d="M195.948 103.698L196.01 119.427C196.01 119.552 196.133 119.614 196.195 119.614C196.319 119.614 196.381 119.489 196.381 119.427L196.319 103.698C196.319 103.573 196.195 103.51 196.133 103.51C196.072 103.51 195.948 103.573 195.948 103.698Z" fill="#3C7341"/>
<path d="M197.066 103.698L197.128 119.428C197.128 119.552 197.251 119.615 197.313 119.615C197.437 119.615 197.499 119.49 197.499 119.428L197.437 103.698C197.437 103.574 197.313 103.511 197.251 103.511C197.128 103.511 197.066 103.574 197.066 103.698Z" fill="#3C7341"/>
<path d="M202.869 102.956L200.113 102.561L197.153 123.573L199.909 123.968L202.869 102.956Z" fill="#1B6BFE"/>
<path d="M202.874 102.949L200.09 102.575L201.266 100.702L201.884 99.7659L202.255 100.827L202.874 102.949Z" fill="#FF8C64"/>
<path d="M200.134 122.459L197.377 122.064L197.16 123.609L199.916 124.004L200.134 122.459Z" fill="#35252F"/>
<path d="M199.53 125.17L197.118 124.796C196.994 124.796 196.932 124.671 196.932 124.608L197.056 123.547L199.84 123.922L199.716 124.983C199.716 125.108 199.654 125.17 199.53 125.17Z" fill="#EF452F"/>
<path d="M202.259 100.827L201.269 100.702L201.888 99.7659L202.259 100.827Z" fill="#35252F"/>
<path d="M197.361 122.019L200.117 122.414L200.274 121.302L197.517 120.907L197.361 122.019Z" fill="#1B48CA"/>
<path d="M200.645 103.699L198.48 119.241C198.48 119.365 198.542 119.49 198.666 119.49C198.79 119.49 198.913 119.428 198.913 119.303L201.079 103.761C201.079 103.636 201.017 103.511 200.893 103.511C200.769 103.511 200.645 103.574 200.645 103.699Z" fill="#1B48CA"/>
<path d="M201.702 103.886L199.537 119.428C199.537 119.552 199.599 119.677 199.722 119.677C199.846 119.677 199.97 119.615 199.97 119.49L202.135 103.948C202.135 103.823 202.073 103.698 201.95 103.698C201.826 103.636 201.764 103.761 201.702 103.886Z" fill="#1B48CA"/>
<path d="M203.806 111.064L203.62 112.187L203.496 113.248L203.311 114.809L203.187 115.808L202.939 117.43L202.816 118.429L202.63 119.99L202.506 120.988L202.321 122.611L202.197 123.61L201.95 125.233L201.826 126.169L201.702 127.043H190.752L190.628 126.169L190.505 125.233L190.319 123.61L190.195 122.611L190.01 120.988L189.886 119.99L189.639 118.429L189.515 117.43L189.329 115.808L189.206 114.809L189.02 113.248L188.896 112.187L188.711 111.064H203.806Z" fill="#EF452F"/>
<path d="M203.618 112.187L203.495 113.248H189.019L188.895 112.187H203.618Z" fill="#AD2F24"/>
<path d="M203.308 114.809L203.184 115.808H189.326L189.203 114.809H203.308Z" fill="#AD2F24"/>
<path d="M202.934 117.43L202.811 118.429H189.634L189.51 117.43H202.934Z" fill="#AD2F24"/>
<path d="M202.633 119.989L202.51 120.988H190.013L189.889 119.989H202.633Z" fill="#AD2F24"/>
<path d="M202.322 122.611L202.198 123.61H190.32L190.197 122.611H202.322Z" fill="#AD2F24"/>
<path d="M201.949 125.232L201.825 126.168H190.628L190.504 125.232H201.949Z" fill="#AD2F24"/>
<path d="M80.6442 37.8876C90.3817 37.8876 98.2755 29.9232 98.2755 20.0985C98.2755 10.2739 90.3817 2.30945 80.6442 2.30945C70.9067 2.30945 63.0129 10.2739 63.0129 20.0985C63.0129 29.9232 70.9067 37.8876 80.6442 37.8876Z" fill="#FFCDB3"/>
<path d="M80.6444 35.5782C90.3819 35.5782 98.2757 27.6137 98.2757 17.7891C98.2757 7.96444 90.3819 0 80.6444 0C70.9069 0 63.0131 7.96444 63.0131 17.7891C63.0131 27.6137 70.9069 35.5782 80.6444 35.5782Z" fill="#EF452F"/>
<path d="M80.6457 32.2698C88.5643 32.2698 94.9982 25.7784 94.9982 17.7889C94.9982 9.79943 88.5643 3.30798 80.6457 3.30798C72.7271 3.30798 66.2933 9.79943 66.2933 17.7889C66.2933 25.7784 72.7271 32.2698 80.6457 32.2698Z" fill="white"/>
<path d="M66.2933 17.7889C66.2933 18.1634 66.2933 18.5379 66.3551 18.9124C66.9119 11.4847 73.1602 5.55502 80.6457 5.55502C88.1932 5.55502 94.3796 11.4223 94.9363 18.9124C94.9363 18.5379 94.9982 18.1634 94.9982 17.7889C94.9982 9.79943 88.5643 3.30798 80.6457 3.30798C72.7271 3.30798 66.2933 9.79943 66.2933 17.7889Z" fill="#FFDECB"/>
<path d="M80.6419 19.2869C80.7656 19.2869 80.8893 19.2245 80.9512 19.1621L88.0037 9.61219C88.1274 9.42494 88.0656 9.23768 87.9418 9.11285C87.7562 8.98801 87.5706 9.05043 87.4469 9.17526L80.58 18.5379L72.7233 15.0425C72.5377 14.9801 72.3521 15.0425 72.2283 15.2298C72.1665 15.417 72.2283 15.6043 72.4139 15.7291L80.4563 19.2869C80.5181 19.2869 80.58 19.2869 80.6419 19.2869Z" fill="#35252F"/>
<path d="M186.365 115.232L171.636 165.451C170.959 167.672 168.927 169.209 166.67 169.209L106.851 169.38C103.691 169.38 101.152 166.704 101.321 163.515C101.49 160.554 103.917 158.22 106.851 158.22H129.707L148.047 106.748H180.044C184.446 106.748 187.606 111.019 186.365 115.232Z" fill="#263238"/>
<path d="M149.346 162.603C141.835 162.603 135.746 162.501 135.746 162.376C135.746 162.25 141.835 162.148 149.346 162.148C156.857 162.148 162.946 162.25 162.946 162.376C162.946 162.501 156.857 162.603 149.346 162.603Z" fill="#263238"/>
<path d="M181.964 108.343C181.851 108.286 177.788 120.3 172.879 135.217C167.969 150.078 164.075 162.149 164.188 162.206C164.301 162.263 168.364 150.249 173.274 135.331C178.183 120.47 182.077 108.343 181.964 108.343Z" fill="#263238"/>
<path d="M138.228 213.848L141.896 213.734V169.208H138.228V213.848Z" fill="#263238"/>
<path d="M157.022 213.62H123.106L138.455 208.268H142.123L157.022 213.62Z" fill="#263238"/>
<path d="M165.606 95.1893L160.019 123.487L161.035 144.725L123.282 138.405L124.749 119.843L124.805 104.47L115.55 122.576L108.327 108.513L121.532 84.4281C123.959 81.9228 126.781 80.0439 130.166 78.7912C131.803 78.1649 133.552 77.8233 135.584 77.7664C139.929 79.1329 144.275 79.1329 148.676 77.7664C149.184 77.8233 149.918 77.8802 150.877 77.9941C150.934 77.9941 150.99 77.9941 151.047 77.9941C159.06 78.9621 165.155 85.6807 165.606 93.8228V95.1893Z" fill="#278DFF"/>
<path d="M150.82 77.9937C150.82 77.9937 166.339 78.1075 168.258 94.6195L168.54 106.747L155.165 106.633L150.82 77.9937Z" fill="#278DFF"/>
<path d="M113.741 99.2318C113.741 99.3457 125.93 99.4595 140.998 99.4595C156.065 99.4595 168.255 99.3457 168.255 99.2318C168.255 99.1179 156.065 99.004 140.998 99.004C125.93 99.004 113.741 99.1179 113.741 99.2318Z" fill="#FAFAFA"/>
<path d="M113.741 101.851C113.741 101.965 125.93 102.079 140.998 102.079C156.065 102.079 168.255 101.965 168.255 101.851C168.255 101.737 156.065 101.623 140.998 101.623C125.93 101.623 113.741 101.737 113.741 101.851Z" fill="#FAFAFA"/>
<path d="M114.644 97.0682C114.644 97.1821 126.664 97.296 141.449 97.296C156.235 97.296 168.255 97.1821 168.255 97.0682C168.255 96.9543 156.235 96.8405 141.449 96.8405C126.607 96.8405 114.644 96.9543 114.644 97.0682Z" fill="#FAFAFA"/>
<path d="M124.967 122.576C125.08 122.576 125.024 115.858 124.854 107.602C124.685 99.3457 124.459 92.6271 124.29 92.6271C124.177 92.6271 124.234 99.3457 124.403 107.602C124.629 115.858 124.854 122.576 124.967 122.576Z" fill="#263238"/>
<path d="M130.277 111.701C130.277 111.701 122.94 112.214 121.643 114.207C120.345 116.143 118.313 121.722 119.047 121.779C119.837 121.836 120.345 121.381 120.345 121.381L122.376 117.794C122.376 117.794 122.038 121.267 123.279 121.324C124.464 121.381 130.446 122.577 130.446 122.577L130.277 111.701Z" fill="#FFBE9D"/>
<path d="M168.477 103.502V122.576C168.251 127.017 164.075 130.206 159.786 129.295L130.215 123.145L130.272 110.904L155.78 115.857L156.118 102.932L168.477 103.502Z" fill="#278DFF"/>
<path d="M151.604 127.758C151.604 127.758 151.491 127.701 151.209 127.644C150.927 127.587 150.532 127.473 150.081 127.359C149.065 127.131 147.597 126.847 145.735 126.448C141.954 125.651 136.65 124.569 130.329 123.26L130.498 123.43C130.498 119.616 130.498 115.345 130.498 110.847L130.273 111.075C131.966 111.417 133.715 111.758 135.464 112.1C142.914 113.523 149.911 114.89 155.78 116.029L156.006 116.085V115.858C155.837 110.164 155.667 105.438 155.554 102.079C155.498 100.428 155.442 99.175 155.385 98.264C155.385 97.8654 155.329 97.5238 155.329 97.2391C155.329 97.0113 155.272 96.8975 155.272 96.8975C155.272 96.8975 155.272 97.0113 155.272 97.2391C155.272 97.5238 155.272 97.8085 155.272 98.264C155.272 99.175 155.329 100.485 155.329 102.136C155.385 105.495 155.498 110.221 155.667 115.915L155.893 115.744C150.024 114.605 143.026 113.239 135.577 111.758C133.772 111.417 132.022 111.075 130.386 110.733L130.16 110.676V110.904C130.16 115.402 130.16 119.616 130.16 123.487V123.658L130.329 123.715C136.65 124.968 141.954 125.993 145.735 126.733C147.597 127.074 149.065 127.359 150.081 127.53C150.588 127.587 150.927 127.701 151.266 127.758C151.491 127.758 151.604 127.758 151.604 127.758Z" fill="#263238"/>
<path d="M134.625 77.9941C134.625 77.9941 134.569 78.108 134.513 78.2788C134.456 78.4496 134.343 78.7343 134.287 79.1329C134.118 79.8731 134.061 81.0118 134.4 82.3214C134.738 83.631 135.641 85.1113 136.939 86.307C138.294 87.5597 140.212 88.3568 142.3 88.3568C144.388 88.3568 146.363 87.5027 147.605 86.1932C148.846 84.8836 149.411 83.2324 149.58 81.8659C149.749 80.4994 149.467 79.3606 149.185 78.6774C149.072 78.3358 148.903 78.0511 148.79 77.8803C148.677 77.7094 148.621 77.5956 148.621 77.6525C148.564 77.6525 148.79 78.0511 149.016 78.7343C149.242 79.4176 149.411 80.4994 149.242 81.809C149.072 83.1185 148.508 84.6558 147.266 85.9085C146.081 87.1611 144.219 87.9582 142.244 87.9582C140.269 87.9582 138.406 87.218 137.109 86.0223C135.811 84.8836 134.964 83.5171 134.569 82.2075C134.174 80.9549 134.23 79.8161 134.287 79.1329C134.569 78.3927 134.682 77.9941 134.625 77.9941Z" fill="#263238"/>
<path d="M133.212 124.114C133.268 124.114 133.268 123.374 133.212 122.235C133.155 121.096 133.099 119.502 133.099 117.737C133.099 115.972 133.099 114.378 133.155 113.239C133.212 112.1 133.212 111.36 133.155 111.36C133.099 111.36 132.986 112.043 132.873 113.239C132.76 114.378 132.704 116.029 132.704 117.794C132.704 119.559 132.816 121.153 132.929 122.349C133.042 123.431 133.155 124.171 133.212 124.114Z" fill="#FAFAFA"/>
<path d="M134.728 124.455C134.785 124.455 134.785 123.715 134.785 122.577C134.785 121.267 134.728 119.73 134.728 118.078C134.728 116.427 134.728 114.89 134.728 113.58C134.728 112.442 134.728 111.701 134.672 111.701C134.615 111.701 134.502 112.385 134.446 113.58C134.39 114.719 134.333 116.313 134.333 118.078C134.333 119.844 134.39 121.438 134.502 122.577C134.559 123.772 134.672 124.455 134.728 124.455Z" fill="#FAFAFA"/>
<path d="M105.1 200.24L99.5135 215.784L91.5565 226.773C90.9922 227.57 91.2179 228.708 92.008 229.221C92.4595 229.506 93.0238 229.563 93.5317 229.335C96.7483 227.968 108.486 223.015 108.825 221.876C109.22 220.509 116.782 203.827 116.782 203.827L105.1 200.24Z" fill="#263238"/>
<g opacity="0.6">
<g opacity="0.6">
<path d="M92.0697 229.222L109.282 220.852L109.056 221.478C108.83 222.047 108.435 222.503 107.927 222.788C106.516 223.528 102.566 225.578 93.7063 229.335C93.1419 229.563 92.5212 229.506 92.0697 229.222Z" fill="black"/>
</g>
</g>
<g opacity="0.6">
<g opacity="0.6">
<g opacity="0.6">
<path opacity="0.6" d="M108.093 214.645C107.585 214.758 107.247 215.271 107.36 215.783C107.472 216.296 107.98 216.637 108.488 216.524C108.996 216.41 109.391 215.783 109.278 215.328C109.109 214.872 108.488 214.474 108.037 214.702" fill="white"/>
</g>
</g>
</g>
<path d="M98.1593 223.869C98.0464 223.869 98.0464 222.958 97.2563 222.16C96.5227 221.363 95.6198 221.249 95.6198 221.136C95.6198 221.079 95.8455 221.022 96.2406 221.136C96.6356 221.249 97.087 221.477 97.5385 221.933C97.9335 222.388 98.1593 222.901 98.2157 223.299C98.2721 223.641 98.2157 223.869 98.1593 223.869Z" fill="#263238"/>
<path d="M96.2506 225.52C96.1377 225.577 95.8555 224.836 95.1783 224.324C94.5011 223.755 93.7675 223.641 93.7675 223.527C93.7675 223.413 94.614 223.413 95.4041 224.039C96.1941 224.609 96.3634 225.463 96.2506 225.52Z" fill="#263238"/>
<path d="M101.21 221.99C101.097 222.047 100.645 220.965 99.6296 220.054C98.6138 219.087 97.5416 218.745 97.5981 218.631C97.5981 218.517 98.8396 218.745 99.9118 219.77C100.984 220.795 101.266 221.99 101.21 221.99Z" fill="#263238"/>
<path d="M103.299 217.435C103.243 217.492 102.509 216.808 101.437 216.353C100.365 215.84 99.4053 215.783 99.4053 215.726C99.4053 215.613 100.421 215.556 101.606 216.068C102.735 216.524 103.356 217.378 103.299 217.435Z" fill="#263238"/>
<path d="M105.047 212.936C104.99 212.993 104.313 212.139 103.128 211.741C101.943 211.285 100.927 211.57 100.927 211.456C100.927 211.399 101.153 211.285 101.604 211.228C102.056 211.171 102.676 211.171 103.297 211.399C103.918 211.627 104.426 211.968 104.708 212.31C104.99 212.652 105.047 212.879 105.047 212.936Z" fill="#263238"/>
<path d="M103.471 210.887C103.471 210.887 103.471 210.659 103.696 210.317C103.866 209.976 104.204 209.463 104.769 208.951C105.051 208.723 105.333 208.439 105.841 208.382C106.067 208.382 106.405 208.552 106.518 208.78C106.631 209.065 106.574 209.35 106.518 209.577C106.123 210.545 104.938 211.172 103.809 210.887C102.681 210.602 101.947 209.577 101.834 208.552C101.834 208.325 101.834 207.983 102.06 207.812C102.286 207.584 102.624 207.584 102.85 207.755C103.301 207.983 103.471 208.382 103.64 208.666C103.979 209.293 104.148 209.862 104.204 210.261C104.261 210.659 104.261 210.887 104.261 210.887C104.204 210.887 104.148 209.976 103.414 208.78C103.245 208.495 103.019 208.154 102.681 207.983C102.511 207.926 102.342 207.926 102.286 208.04C102.173 208.154 102.116 208.325 102.173 208.552C102.286 209.406 102.963 210.317 103.922 210.545C104.881 210.773 105.954 210.261 106.236 209.463C106.292 209.293 106.349 209.065 106.292 208.894C106.236 208.723 106.123 208.666 105.954 208.666C105.615 208.666 105.277 208.894 104.994 209.122C103.809 210.033 103.527 210.944 103.471 210.887Z" fill="#263238"/>
<path d="M81.5202 196.197L82.0281 208.837C82.0281 208.837 69.5001 213.563 69.3308 215.897L93.5968 215.84L93.6533 196.14L81.5202 196.197Z" fill="#263238"/>
<g opacity="0.6">
<g opacity="0.6">
<path opacity="0.6" d="M89.5244 207.755C89.9759 207.869 90.3144 208.438 90.2016 208.894C90.0887 209.349 89.5808 209.691 89.0729 209.577C88.6215 209.463 88.17 208.837 88.3393 208.381C88.5086 207.926 89.1294 207.527 89.5808 207.812" fill="white"/>
</g>
</g>
<g opacity="0.6">
<path d="M93.5901 215.841V213.905L70.227 214.702C70.227 214.702 69.1547 215.158 69.2676 215.955L93.5901 215.841Z" fill="black"/>
</g>
<path d="M81.629 208.723C81.629 208.837 82.2498 208.893 82.8141 209.292C83.4348 209.634 83.717 210.203 83.8299 210.146C83.9427 210.146 83.7734 209.406 83.0398 208.95C82.3062 208.438 81.5726 208.609 81.629 208.723Z" fill="#263238"/>
<path d="M79.0896 209.748C79.0896 209.862 79.5975 210.09 79.9925 210.545C80.3875 211.057 80.5004 211.57 80.6132 211.57C80.7261 211.57 80.7826 210.887 80.2747 210.26C79.7668 209.691 79.0896 209.634 79.0896 209.748Z" fill="#263238"/>
<path d="M77.621 212.823C77.7339 212.823 77.9031 212.253 77.5646 211.57C77.2824 210.887 76.7181 210.659 76.6616 210.773C76.6052 210.887 76.9438 211.229 77.226 211.741C77.4517 212.31 77.5081 212.823 77.621 212.823Z" fill="#263238"/>
<path d="M81.7971 205.819C81.8535 205.933 82.4178 205.762 83.0386 205.819C83.7158 205.876 84.2237 206.047 84.2801 205.99C84.3365 205.876 83.8286 205.477 83.0386 205.42C82.305 205.307 81.7406 205.705 81.7971 205.819Z" fill="#263238"/>
<g opacity="0.3">
<path opacity="0.3" d="M81.6332 198.702L81.6896 200.923L93.6533 200.809V198.759L81.6332 198.702Z" fill="black"/>
</g>
<path d="M81.7376 203.257C81.7376 203.314 82.189 203.371 82.9791 203.257C83.3741 203.2 83.7691 203.086 84.277 202.859C84.5028 202.745 84.7285 202.631 84.9542 202.46C85.0671 202.403 85.18 202.289 85.2928 202.175C85.4057 202.062 85.5186 201.72 85.3493 201.549C85.2364 201.378 85.0107 201.264 84.8414 201.264C84.6721 201.264 84.5028 201.321 84.3899 201.321C84.1078 201.378 83.882 201.492 83.6563 201.606C83.2048 201.834 82.8098 202.118 82.5276 202.346C81.9633 202.859 81.794 203.314 81.794 203.371C81.8504 203.428 82.1326 203.029 82.6969 202.574C82.9791 202.346 83.3741 202.118 83.7692 201.948C83.9949 201.834 84.2206 201.777 84.4464 201.72C84.7285 201.663 84.8978 201.663 85.0107 201.777C85.0107 201.834 85.0107 201.834 85.0107 201.891C84.9542 201.948 84.8414 202.005 84.7285 202.118C84.5028 202.232 84.277 202.403 84.1078 202.517C83.7127 202.745 83.2613 202.859 82.9227 202.973C82.2455 203.143 81.7376 203.2 81.7376 203.257Z" fill="#263238"/>
<path d="M81.9107 203.428C81.9671 203.428 82.1928 203.03 82.2493 202.232C82.2493 201.834 82.2493 201.378 82.08 200.866C82.0235 200.638 81.9107 200.353 81.7414 200.126C81.5721 199.898 81.4028 199.556 80.9513 199.499C80.7256 199.499 80.4998 199.67 80.4434 199.841C80.387 200.012 80.3305 200.126 80.3305 200.297C80.2741 200.581 80.2741 200.866 80.3305 201.151C80.387 201.663 80.6127 202.119 80.8385 202.403C81.2899 203.03 81.7978 203.2 81.7978 203.143C81.8542 203.086 81.4028 202.859 81.0642 202.232C80.8949 201.948 80.7256 201.549 80.6691 201.094C80.6691 200.866 80.6691 200.638 80.6691 200.41C80.7256 200.126 80.782 199.955 80.8949 199.955C81.0077 199.955 81.2335 200.126 81.3463 200.353C81.4592 200.581 81.5721 200.809 81.6285 201.037C81.7978 201.492 81.8542 201.891 81.8542 202.232C81.9671 202.973 81.8542 203.428 81.9107 203.428Z" fill="#263238"/>
<path d="M93.6467 135.673C107.981 137.153 126.998 139.146 126.998 139.146L124.402 162.718C124.402 162.718 96.4683 155.259 96.6376 155.886C96.8634 156.512 95.3397 206.048 95.3397 206.048H78.5228L78.1842 149.964C78.1278 141.48 85.2947 134.819 93.6467 135.673Z" fill="black"/>
<path d="M161.371 145.181V152.469C161.371 157.423 155.727 162.718 150.818 162.718H146.98C143.989 162.718 139.249 160.497 136.822 158.732L135.355 157.65L117.805 212.424C117.805 212.424 97.771 208.78 97.771 208.154C97.771 207.528 111.371 163.287 117.635 142.733C120.175 134.363 129.091 129.466 137.33 132.313C137.612 132.427 137.895 132.541 138.177 132.655C147.15 136.356 161.371 145.181 161.371 145.181Z" fill="black"/>
<path d="M97.8236 208.211C97.8236 208.211 97.8801 208.154 97.9365 208.04C97.9929 207.869 98.0494 207.698 98.1622 207.47C98.3315 206.958 98.6137 206.218 98.9523 205.193C99.6295 203.2 100.532 200.353 101.661 196.766C103.918 189.649 106.909 179.742 110.182 168.81C111.819 163.344 113.343 158.105 114.753 153.38C115.431 150.988 116.108 148.768 116.729 146.661C117.067 145.579 117.349 144.611 117.631 143.586C117.914 142.618 118.196 141.65 118.534 140.796C119.212 139.088 120.284 137.779 121.356 136.754C122.428 135.729 123.444 134.989 124.347 134.419C125.193 133.85 125.871 133.394 126.379 133.11C126.604 132.996 126.774 132.882 126.886 132.768C126.999 132.711 127.056 132.654 127.056 132.654C127.056 132.654 126.999 132.654 126.886 132.768C126.717 132.825 126.548 132.939 126.322 133.053C125.814 133.338 125.137 133.736 124.291 134.305C123.388 134.875 122.372 135.615 121.243 136.583C120.171 137.608 119.042 138.917 118.309 140.683C117.914 141.537 117.631 142.505 117.349 143.472C117.067 144.44 116.729 145.465 116.446 146.49C115.826 148.597 115.148 150.874 114.415 153.209C113.004 157.935 111.424 163.173 109.787 168.639C106.514 179.571 103.58 189.421 101.435 196.652C100.363 200.182 99.4602 203.086 98.8394 205.136C98.5573 206.104 98.2751 206.901 98.1058 207.413C98.0494 207.641 97.9929 207.869 97.9365 208.04C97.8236 208.097 97.8236 208.211 97.8236 208.211Z" fill="#455A64"/>
<path d="M93.5898 148.825C93.4769 148.882 94.4363 150.362 95.2263 152.298C96.0164 154.234 96.355 155.942 96.5243 155.942C96.6371 155.942 96.4678 154.177 95.6213 152.127C94.7748 150.078 93.6462 148.711 93.5898 148.825Z" fill="#455A64"/>
<path d="M90.3805 151.102C90.3241 151.216 91.7913 151.842 93.2585 153.038C94.7822 154.234 95.7416 155.486 95.8544 155.429C95.9673 155.372 95.1208 153.949 93.5407 152.696C91.9606 151.444 90.3805 150.988 90.3805 151.102Z" fill="#455A64"/>
<path d="M117.691 212.481C117.804 212.537 122.545 197.848 128.244 179.741C134 161.635 138.515 146.888 138.402 146.888C138.289 146.831 133.549 161.521 127.849 179.627C122.15 197.734 117.579 212.424 117.691 212.481Z" fill="#455A64"/>
<path d="M139.19 127.018L81.7983 127.587L71.1325 97.0688L112.836 97.3535L122.543 124.797L139.19 125.025V127.018Z" fill="#263238"/>
<path d="M95.3467 114.948C94.0688 114.948 93.0329 113.903 93.0329 112.613C93.0329 111.324 94.0688 110.279 95.3467 110.279C96.6245 110.279 97.6604 111.324 97.6604 112.613C97.6604 113.903 96.6245 114.948 95.3467 114.948Z" fill="white"/>
<path d="M143.874 44.4581C143.309 42.4083 141.842 41.4404 139.867 40.7571C137.892 40.0739 135.578 40.4724 133.942 41.725C132.813 42.5791 131.966 43.8317 130.668 44.2872C128.524 45.0274 125.985 43.4332 123.897 44.4011C122.655 44.9705 121.978 46.5078 122.26 47.8174C122.599 49.1269 123.897 50.1518 125.251 50.0949C123.84 50.6073 123.389 52.6571 124.235 53.9097C125.082 55.1623 126.775 55.6748 128.242 55.3901C129.709 55.1054 131.007 54.1944 132.136 53.1695C133.264 52.1446 134.28 51.0059 135.465 50.0949C136.65 49.1839 138.118 48.5006 139.641 48.5576C141.673 48.6714 143.422 50.2088 144.325 52.0308C145.228 53.8528 145.454 55.9595 145.567 58.0092C145.68 60.059 145.736 62.1657 146.3 64.1015C146.357 64.3293 146.47 64.614 146.695 64.6709C147.034 64.7848 147.316 64.4432 147.485 64.1015C149.348 60.6284 150.533 56.8135 150.928 52.8848C151.154 50.6073 151.097 48.4437 149.856 46.5647C148.558 44.6289 145.397 43.2054 143.874 44.4581Z" fill="black"/>
<path d="M147.826 53.9668L148.842 77.0265C149.011 80.9552 148.503 86.7629 142.352 86.7629C136.991 86.3643 135.411 81.2969 135.298 77.6528C135.242 75.9447 135.129 74.4643 135.129 74.2935C135.129 74.2935 129.316 74.0088 128.583 68.2012C128.244 65.4112 128.018 59.6036 127.905 54.3084C127.736 48.6716 131.969 43.8318 137.499 43.2625L138.063 43.2055C144.102 42.9208 147.657 47.8744 147.826 53.9668Z" fill="#FFAA8C" fill-opacity="0.63"/>
<path d="M135.071 74.1797C135.071 74.1797 138.74 74.0659 142.351 71.219C142.351 71.219 140.997 75.6032 135.241 75.6601L135.071 74.1797Z" fill="#EB996E"/>
<path d="M129.996 58.0093C130.052 58.4648 130.447 58.8065 130.899 58.7495C131.35 58.7495 131.689 58.3509 131.689 57.8954C131.632 57.4399 131.237 57.0983 130.786 57.1553C130.278 57.2122 129.939 57.5538 129.996 58.0093Z" fill="#263238"/>
<path d="M129.428 57.0412C129.541 57.1551 130.105 56.5857 131.008 56.5287C131.911 56.4149 132.588 56.8134 132.645 56.6995C132.701 56.6426 132.588 56.4718 132.25 56.301C131.968 56.1302 131.46 55.9594 130.895 56.0163C130.331 56.0732 129.88 56.3579 129.654 56.5857C129.428 56.7565 129.372 56.9842 129.428 57.0412Z" fill="#263238"/>
<path d="M138.683 57.3826C138.739 57.8381 139.135 58.1797 139.586 58.1228C140.037 58.1228 140.376 57.7242 140.376 57.2687C140.32 56.8132 139.925 56.4716 139.473 56.5285C138.965 56.5855 138.627 56.9271 138.683 57.3826Z" fill="#263238"/>
<path d="M138.116 56.2443C138.229 56.3582 138.793 55.7888 139.696 55.7319C140.599 55.618 141.277 56.0165 141.333 55.9027C141.389 55.8457 141.277 55.6749 140.938 55.5041C140.656 55.3333 140.148 55.1625 139.584 55.2194C139.019 55.2764 138.568 55.561 138.342 55.7888C138.116 56.0165 138.06 56.1874 138.116 56.2443Z" fill="#263238"/>
<path d="M135.638 63.1904C135.638 63.1335 135.074 63.0765 134.171 63.0765C133.946 63.0765 133.72 63.0765 133.663 62.9057C133.607 62.7349 133.663 62.5072 133.72 62.2225C133.889 61.6531 134.058 61.0268 134.228 60.4005C134.905 57.8383 135.356 55.7316 135.243 55.7316C135.131 55.7316 134.51 57.7813 133.833 60.3435C133.663 60.9698 133.494 61.5962 133.381 62.1655C133.325 62.4502 133.212 62.7349 133.381 63.0765C133.438 63.2473 133.663 63.3612 133.776 63.3612C133.946 63.4182 134.058 63.3612 134.171 63.3612C135.074 63.3043 135.638 63.2473 135.638 63.1904Z" fill="#263238"/>
<path d="M138.29 63.5323C138.12 63.5323 138.233 64.5003 137.5 65.2974C136.766 66.0945 135.694 66.0945 135.75 66.2084C135.75 66.2654 135.976 66.3792 136.427 66.3223C136.879 66.2654 137.443 66.0945 137.895 65.639C138.346 65.1835 138.515 64.5572 138.515 64.1587C138.459 63.7601 138.346 63.5323 138.29 63.5323Z" fill="#263238"/>
<path d="M137.499 52.771C137.612 52.9988 138.458 52.771 139.53 52.8279C140.602 52.8279 141.449 53.0557 141.562 52.8279C141.618 52.7141 141.449 52.4863 141.054 52.3155C140.715 52.1447 140.151 51.9739 139.53 51.9739C138.909 51.9739 138.345 52.1447 138.007 52.3155C137.668 52.4863 137.499 52.6571 137.499 52.771Z" fill="#263238"/>
<path d="M129.483 54.4224C129.652 54.5932 130.273 54.3086 130.95 54.2516C131.684 54.1377 132.304 54.2516 132.417 54.0239C132.474 53.91 132.361 53.7392 132.079 53.5684C131.796 53.3976 131.345 53.2837 130.837 53.3406C130.329 53.3976 129.934 53.6253 129.708 53.8531C129.483 54.0808 129.426 54.3086 129.483 54.4224Z" fill="#263238"/>
<path d="M147.773 58.2941C147.886 58.2371 151.61 56.6998 151.893 60.6855C152.175 64.6711 148.168 64.1587 148.168 64.0448C148.168 63.874 147.773 58.2941 147.773 58.2941Z" fill="#FFBE9D"/>
<path d="M149.23 62.3938C149.23 62.3938 149.287 62.4507 149.4 62.5077C149.513 62.5646 149.738 62.5646 149.908 62.5077C150.303 62.3368 150.641 61.6536 150.585 60.9134C150.585 60.5718 150.472 60.2301 150.303 59.9455C150.133 59.6608 149.964 59.49 149.738 59.433C149.513 59.3761 149.4 59.5469 149.343 59.6608C149.287 59.7746 149.343 59.8316 149.287 59.8885C149.287 59.8885 149.174 59.8316 149.23 59.6608C149.23 59.6038 149.287 59.49 149.343 59.3761C149.456 59.3191 149.569 59.2622 149.738 59.2622C150.021 59.2622 150.359 59.5469 150.528 59.8316C150.698 60.1163 150.811 60.5148 150.867 60.9134C150.923 61.7105 150.528 62.5077 150.021 62.6785C149.738 62.7923 149.513 62.6785 149.4 62.6215C149.287 62.5077 149.23 62.4507 149.23 62.3938Z" fill="#EB996E"/>
<path d="M126.551 53.2265C129.147 53.6251 131.912 52.6571 133.718 50.7782C135.016 49.4117 135.862 47.5897 137.555 46.8495C138.684 46.3371 140.038 46.4509 141.167 46.9634C142.296 47.4758 143.255 48.2729 144.158 49.1839C143.368 52.2586 144.44 55.4471 145.512 58.4079C145.625 58.7495 145.794 59.0911 146.077 59.2619C146.584 59.5466 147.262 59.205 147.6 58.7495C148.165 58.0093 148.334 56.9844 148.39 56.0734C148.56 53.9098 148.39 51.6892 147.657 49.6394C146.979 47.5897 145.738 45.7107 144.045 44.3442C141.901 42.693 139.135 42.0098 136.427 42.3514C133.718 42.693 131.235 43.9457 129.316 45.8246C128.413 46.6787 127.567 47.7036 127.228 48.8993" fill="black"/>
<path d="M204.714 182.286C202.683 181.261 200.312 181.09 198.112 181.489C196.926 181.717 195.685 182.058 194.838 182.969C194.048 183.88 193.879 185.475 194.782 186.272C195.346 186.727 196.136 186.784 196.87 186.784C198.619 186.784 200.538 186.443 201.949 187.524C202.739 188.151 203.303 189.119 204.206 189.46C205.166 189.745 206.181 189.176 206.689 188.321C207.197 187.467 207.197 186.386 206.971 185.475C207.028 185.418 206.746 183.311 204.714 182.286Z" fill="#3A974C"/>
<path d="M209.339 173.29C208.097 175.055 205.727 174.485 204.598 173.404C203.47 172.322 203.018 170.728 202.567 169.247C201.608 165.831 200.592 162.244 201.325 158.771C201.551 157.746 201.946 156.721 202.68 155.924C203.413 155.127 204.542 154.671 205.558 154.956C206.743 155.297 207.533 156.493 208.041 157.575C209.621 160.934 210.467 164.578 210.467 168.279C210.524 170.044 210.298 171.866 209.339 173.29Z" fill="#3A974C"/>
<path d="M212.721 175.851C211.367 174.257 211.141 171.923 211.706 169.93C212.326 167.937 213.624 166.229 215.204 164.806C217.01 163.154 219.155 161.902 221.468 161.105C222.371 160.763 223.331 160.535 224.29 160.649C225.249 160.763 226.209 161.219 226.66 162.073C227.337 163.325 226.66 164.863 225.983 166.115C224.798 168.336 223.387 170.442 221.863 172.435C220.622 174.029 219.211 175.624 217.349 176.307C215.487 177.047 213.511 176.933 212.552 175.624" fill="#3A974C"/>
<path d="M209.453 200.05C209.453 200.05 209.397 199.765 209.34 199.253C209.284 198.683 209.227 197.943 209.114 197.032C209.002 196.121 208.889 194.982 208.607 193.787C208.381 192.591 207.929 191.281 207.421 189.972C206.914 188.662 206.236 187.467 205.503 186.556C204.769 185.588 203.866 184.904 203.076 184.506C202.286 184.107 201.552 183.936 201.045 183.88C200.537 183.823 200.255 183.766 200.255 183.766C200.255 183.766 200.537 183.766 201.045 183.766C201.552 183.823 202.343 183.936 203.189 184.335C204.036 184.734 204.995 185.417 205.785 186.385C206.575 187.353 207.252 188.548 207.76 189.915C208.268 191.224 208.663 192.534 208.889 193.787C209.114 194.982 209.227 196.121 209.34 197.032C209.397 197.943 209.453 198.74 209.453 199.253C209.453 199.765 209.453 200.05 209.453 200.05Z" fill="#263238"/>
<path d="M209.284 198.342C209.284 198.342 209.284 198.228 209.284 197.944C209.284 197.659 209.284 197.317 209.284 196.862C209.284 195.951 209.284 194.584 209.227 192.933C209.171 189.631 208.889 186.044 208.324 181.033C207.817 176.307 207.139 170.785 206.406 167.197C206.236 166.4 206.067 165.66 205.954 165.034C205.785 164.407 205.672 163.838 205.559 163.383C205.446 162.984 205.39 162.642 205.333 162.358C205.277 162.13 205.277 162.016 205.277 162.016C205.277 162.016 205.333 162.13 205.39 162.358C205.446 162.642 205.559 162.984 205.672 163.383C205.785 163.838 205.954 164.351 206.124 165.034C206.293 165.66 206.462 166.4 206.631 167.197C207.365 170.443 208.099 174.998 208.663 180.008C209.227 185.076 209.453 189.631 209.453 192.99C209.453 194.641 209.453 196.008 209.397 196.919C209.397 197.374 209.34 197.716 209.34 198.001C209.284 198.228 209.284 198.342 209.284 198.342Z" fill="#263238"/>
<path d="M209.279 189.459C209.279 189.459 209.279 189.061 209.279 188.321C209.335 187.581 209.392 186.556 209.617 185.303C209.843 184.05 210.125 182.513 210.577 180.919C210.803 180.179 211.254 178.357 212.383 175.681C213.906 172.037 215.938 169.076 217.744 167.254C218.139 166.741 218.647 166.4 218.985 166.058C219.155 165.887 219.324 165.716 219.55 165.603C219.719 165.489 219.888 165.375 220.057 165.261C220.622 164.862 220.96 164.635 221.017 164.635C221.073 164.692 219.719 165.546 217.969 167.368C216.22 169.247 214.245 172.15 212.721 175.737C211.875 177.673 211.31 179.438 210.859 180.919C210.408 182.513 210.069 184.05 209.843 185.303C209.617 186.556 209.505 187.581 209.392 188.321C209.335 189.118 209.279 189.459 209.279 189.459Z" fill="#263238"/>
<path d="M217.742 205.117L216.839 217.245H201.376L200.473 205.117H217.742Z" fill="#263238"/>
<path d="M198.615 200.335H219.213V205.117H198.615V200.335Z" fill="#263238"/>
<path d="M217.004 219.534L217.911 217.256H200.417L201.43 219.534H217.004Z" fill="#263238"/>
<path d="M200.82 209.046C200.82 209.046 200.82 209.103 200.876 209.16C200.933 209.217 200.989 209.331 201.102 209.445C201.328 209.729 201.61 210.128 202.005 210.584L202.061 210.64C202.626 209.843 203.359 208.818 204.262 207.566H204.149C204.827 208.534 205.56 209.559 206.35 210.697L206.407 210.811L206.463 210.697C207.253 209.729 208.156 208.705 209.059 207.566H208.89C208.946 207.623 209.003 207.68 209.059 207.737C209.849 208.762 210.639 209.729 211.373 210.64L211.429 210.754L211.486 210.64C212.276 209.502 213.009 208.477 213.686 207.509H213.574C214.646 208.762 215.549 209.786 216.282 210.584L216.339 210.64L216.395 210.584C216.734 209.957 217.016 209.502 217.242 209.16C217.355 208.989 217.411 208.875 217.467 208.762C217.524 208.648 217.524 208.648 217.524 208.648C217.524 208.648 217.467 208.705 217.411 208.762C217.355 208.875 217.242 208.989 217.185 209.103C216.96 209.445 216.677 209.9 216.282 210.527H216.339C215.662 209.729 214.759 208.648 213.686 207.395L213.63 207.338L213.574 207.395C212.896 208.363 212.163 209.388 211.373 210.47H211.542C210.808 209.559 210.018 208.534 209.228 207.566C209.172 207.509 209.115 207.452 209.059 207.395L209.003 207.281L208.946 207.395C208.043 208.477 207.197 209.559 206.35 210.527H206.519C205.729 209.388 204.996 208.363 204.319 207.452L204.262 207.338L204.206 207.452C203.359 208.705 202.569 209.786 202.061 210.584H202.118C201.723 210.128 201.384 209.729 201.158 209.445C201.046 209.331 200.989 209.217 200.933 209.16C200.82 209.103 200.82 209.046 200.82 209.046Z" fill="black"/>
<path d="M208.947 205.121C204.178 205.121 200.313 205.069 200.313 205.006C200.313 204.942 204.178 204.89 208.947 204.89C213.715 204.89 217.581 204.942 217.581 205.006C217.581 205.069 213.715 205.121 208.947 205.121Z" fill="#455A64"/>
<path d="M48.7873 71.788L59.5095 117.11H56.5186L45.9092 71.788H48.7873Z" fill="#263238"/>
<path d="M52.9043 101.623C53.0736 102.477 47.9946 127.188 47.9946 127.188H50.4212L54.2587 107.602L52.9043 101.623Z" fill="#263238"/>
<path d="M17.128 159.871H67.4658V213.734H17.128V159.871Z" fill="#263238"/>
<path d="M14.5887 167.728H17.0718V170.234H14.5887V167.728Z" fill="#263238"/>
<path d="M14.5887 175.642H17.0718V178.148H14.5887V175.642Z" fill="#263238"/>
<path d="M14.5887 183.613H17.0718V186.119H14.5887V183.613Z" fill="#263238"/>
<path d="M14.5887 191.528H17.0718V194.033H14.5887V191.528Z" fill="#263238"/>
<path d="M14.5334 184.297C14.5334 184.297 14.2512 184.24 13.7998 184.126C13.2919 184.069 12.6147 183.898 11.6553 183.898C10.7524 183.898 9.62376 184.069 8.60798 184.695C8.10008 185.037 7.59218 185.492 7.31002 186.119C6.97142 186.745 6.85856 187.428 6.915 188.169C6.97143 188.852 7.19715 189.535 7.53574 190.104C7.87434 190.674 8.32581 191.129 8.8337 191.471C9.79306 192.211 10.8653 192.496 11.7682 192.667C12.6711 192.78 13.4047 192.78 13.9126 192.724C14.4205 192.667 14.7027 192.61 14.7027 192.61C14.7027 192.61 14.4205 192.61 13.9126 192.61C13.4047 192.61 12.6711 192.61 11.8246 192.439C10.9781 192.268 9.96235 191.926 9.003 191.243C8.10007 190.56 7.25359 189.421 7.19716 188.112C7.14073 187.428 7.25358 186.802 7.53574 186.233C7.81791 185.663 8.26937 185.265 8.72083 184.923C9.68019 184.297 10.7524 184.126 11.6553 184.069C12.5583 184.069 13.2354 184.126 13.7433 184.183C14.2512 184.297 14.5334 184.354 14.5334 184.297Z" fill="#263238"/>
<path d="M15.1539 176.44C15.1539 176.44 15.0974 176.383 14.9281 176.269C14.7588 176.212 14.5331 176.098 14.1945 175.985C13.5173 175.757 12.5015 175.586 11.3165 175.814C11.0343 175.871 10.6957 175.985 10.4135 176.155C10.1314 176.326 9.84922 176.668 9.73636 177.066C9.51063 177.807 9.79279 178.661 10.3007 179.344C10.5828 179.685 10.9214 179.97 11.3165 180.141C11.7115 180.312 12.2758 180.312 12.6708 180.084C13.0659 179.856 13.4609 179.401 13.4609 178.888C13.4609 178.376 13.1223 177.863 12.6708 177.636C12.2194 177.408 11.7115 177.408 11.2036 177.465C10.7521 177.579 10.3007 177.807 9.96208 178.091C9.22846 178.661 8.77699 179.515 8.72056 180.369C8.60769 181.223 8.94629 182.02 9.34132 182.646C9.79278 183.273 10.3571 183.671 10.865 183.956C11.9937 184.525 13.0094 184.639 13.6866 184.696C14.0252 184.696 14.3074 184.753 14.4767 184.753C14.646 184.753 14.7589 184.753 14.7589 184.753C14.7589 184.753 14.3638 184.696 13.6866 184.639C13.0094 184.525 12.0501 184.411 10.9779 183.842C10.47 183.557 9.90564 183.159 9.51061 182.589C9.11558 182.02 8.83342 181.28 8.94629 180.483C9.05915 179.685 9.45418 178.945 10.1314 178.433C10.47 178.148 10.865 177.977 11.26 177.863C11.6551 177.75 12.1065 177.807 12.5015 177.977C12.8966 178.148 13.1223 178.547 13.1223 178.945C13.1223 179.344 12.8401 179.685 12.5015 179.913C12.163 180.141 11.7115 180.141 11.3729 179.97C10.9779 179.856 10.6957 179.572 10.47 179.287C9.96208 178.718 9.73635 177.92 9.90565 177.237C10.0749 176.554 10.6957 176.212 11.3165 176.098C12.5015 175.814 13.4609 175.985 14.1381 176.155C14.8153 176.269 15.1539 176.497 15.1539 176.44Z" fill="#263238"/>
<path d="M15.0969 168.696C15.0969 168.696 14.9276 168.639 14.5326 168.582C14.194 168.582 13.6297 168.582 13.0089 168.81C12.3882 169.038 11.711 169.436 11.1466 170.063C10.5823 170.746 10.1873 171.657 10.1873 172.682C10.1308 173.707 10.4694 174.674 10.9773 175.358C11.4852 176.041 12.1624 176.496 12.7832 176.724C13.4039 176.952 13.9118 177.009 14.2504 177.009C14.589 177.009 14.8148 176.952 14.8148 176.952C14.8148 176.895 13.9683 177.066 12.8396 176.496C12.2753 176.212 11.6545 175.813 11.2031 175.13C10.6952 174.447 10.413 173.593 10.4694 172.625C10.5259 171.657 10.8645 170.803 11.3724 170.176C11.8803 169.55 12.5575 169.152 13.1218 168.924C14.3069 168.582 15.0969 168.753 15.0969 168.696Z" fill="#263238"/>
<path d="M52.5112 131.288C52.5112 131.288 52.2855 131.63 52.0598 132.313C51.834 132.996 51.6083 134.021 51.3826 135.388C51.1568 136.754 50.9876 138.406 50.8183 140.284C50.649 142.22 50.4797 144.384 50.1975 146.832C50.1411 147.459 50.0282 148.028 49.9153 148.654C49.8025 149.281 49.6332 149.907 49.351 150.476C49.0688 151.046 48.6174 151.558 48.1095 152.014C47.6016 152.469 47.0937 152.925 46.4729 153.266C45.2879 154.006 43.8771 154.519 42.4098 154.69C40.9426 154.861 39.3625 154.633 37.9516 153.893C36.5408 153.209 35.4122 151.843 35.0736 150.249C34.9043 149.451 34.9607 148.597 35.2429 147.8C35.525 147.003 36.0894 146.377 36.823 145.921C37.5002 145.466 38.3467 145.181 39.1931 145.124C40.0396 145.067 40.9426 145.295 41.6198 145.864C41.9584 146.149 42.2405 146.434 42.4098 146.832C42.5791 147.231 42.6355 147.629 42.5791 148.085C42.4098 148.939 41.7891 149.679 40.999 150.078C40.2089 150.533 39.306 150.704 38.4031 150.818C37.5002 150.932 36.5972 150.989 35.7508 150.989C33.9449 151.046 32.1955 150.875 30.5025 150.704C27.0602 150.306 23.7306 149.736 20.5704 149.736C17.4102 149.679 14.3064 150.135 11.7105 151.444C10.4126 152.071 9.2839 152.925 8.43741 153.95C7.53449 154.974 6.97017 156.17 6.74444 157.366C6.23655 159.814 6.80088 162.092 7.7038 163.8C8.66315 165.508 9.9611 166.647 11.0333 167.387C12.162 168.127 13.1213 168.583 13.7985 168.81C14.4757 169.038 14.8143 169.152 14.8143 169.152C14.8143 169.152 14.7014 169.095 14.5321 169.038C14.3628 168.981 14.0807 168.867 13.7985 168.753C13.1213 168.469 12.162 168.07 11.0897 167.273C10.0175 166.476 8.71957 165.337 7.81665 163.686C6.91373 162.035 6.40585 159.757 6.91375 157.423C7.19591 156.284 7.7038 155.088 8.60672 154.12C9.45321 153.152 10.5819 152.298 11.8234 151.729C14.3628 150.476 17.4102 150.021 20.5704 150.078C23.7306 150.135 27.0602 150.704 30.5025 151.046C32.2519 151.217 34.0014 151.387 35.8072 151.33C36.7101 151.33 37.613 151.273 38.516 151.16C39.4189 151.046 40.3782 150.875 41.1683 150.419C42.0148 149.964 42.692 149.167 42.8613 148.199C42.9741 147.743 42.8613 147.231 42.692 146.775C42.4662 146.32 42.1841 145.978 41.789 145.694C41.0554 145.124 40.0961 144.896 39.1931 144.896C38.2902 144.953 37.3873 145.238 36.6537 145.751C35.9201 146.263 35.2993 146.946 34.9607 147.8C34.6221 148.654 34.6221 149.565 34.7914 150.362C35.1864 152.071 36.3715 153.437 37.8388 154.177C39.306 154.917 40.9426 155.145 42.4098 154.974C43.9335 154.804 45.3443 154.291 46.5858 153.551C47.2066 153.152 47.7709 152.754 48.2224 152.241C48.7302 151.729 49.1817 151.273 49.5203 150.647C49.8025 150.021 49.9718 149.395 50.0846 148.768C50.1975 148.142 50.3104 147.516 50.3668 146.946C50.649 144.555 50.8182 142.334 50.9875 140.398C51.1568 138.462 51.3262 136.811 51.4955 135.502C51.6647 134.135 51.8905 133.11 52.1162 132.427C52.2291 132.085 52.2855 131.801 52.3984 131.687C52.4548 131.345 52.5112 131.288 52.5112 131.288Z" fill="#263238"/>
<path d="M19.9512 211.457C19.9512 211.457 19.9512 211.4 19.9512 211.229C19.9512 211.058 19.9512 210.83 19.9512 210.546C19.9512 209.919 19.9512 209.065 19.9512 207.87C19.9512 205.535 19.9512 202.119 20.0077 197.792C20.0077 189.137 20.0641 176.782 20.0641 161.978L19.9512 162.092C33.2694 162.092 48.8448 162.092 65.4924 162.092L65.3231 161.921C65.3231 180.141 65.3231 197.108 65.3231 211.4L65.436 211.286C51.7793 211.286 40.4363 211.343 32.4793 211.343C28.4726 211.343 25.3688 211.343 23.2243 211.4C22.1521 211.4 21.3621 211.4 20.7977 211.4C20.2334 211.457 19.9512 211.457 19.9512 211.457C19.9512 211.457 20.2334 211.457 20.7977 211.457C21.3621 211.457 22.1521 211.457 23.2243 211.457C25.3688 211.457 28.4726 211.457 32.4229 211.514C40.3799 211.514 51.7793 211.57 65.4924 211.57H65.6053V211.457C65.6053 197.165 65.6053 180.141 65.6053 161.978V161.807H65.436C48.8448 161.807 33.2694 161.807 19.8948 161.807H19.782V161.921C19.782 176.725 19.8384 189.137 19.8384 197.792C19.8384 202.119 19.8384 205.535 19.8948 207.87C19.8948 209.008 19.8948 209.919 19.8948 210.489C19.8948 210.773 19.8948 211.001 19.8948 211.172C19.9513 211.4 19.9512 211.457 19.9512 211.457Z" fill="#263238"/>
<path d="M32.982 168.298C32.8573 168.298 32.7562 168.196 32.7562 168.07C32.7562 167.944 32.8573 167.843 32.982 167.843C33.1066 167.843 33.2077 167.944 33.2077 168.07C33.2077 168.196 33.1066 168.298 32.982 168.298Z" fill="#263238"/>
<path d="M31.7436 168.298C31.6189 168.298 31.5178 168.196 31.5178 168.07C31.5178 167.944 31.6189 167.842 31.7436 167.842C31.8682 167.842 31.9693 167.944 31.9693 168.07C31.9693 168.196 31.8682 168.298 31.7436 168.298Z" fill="#263238"/>
<path d="M30.4475 168.298C30.3228 168.298 30.2218 168.196 30.2218 168.07C30.2218 167.944 30.3228 167.842 30.4475 167.842C30.5722 167.842 30.6732 167.944 30.6732 168.07C30.6732 168.196 30.5722 168.298 30.4475 168.298Z" fill="#263238"/>
<path d="M29.112 168.335C28.9873 168.335 28.8863 168.233 28.8863 168.107C28.8863 167.981 28.9873 167.879 29.112 167.879C29.2366 167.879 29.3377 167.981 29.3377 168.107C29.3377 168.233 29.2366 168.335 29.112 168.335Z" fill="#263238"/>
<path d="M27.8162 168.335C27.6916 168.335 27.5905 168.233 27.5905 168.107C27.5905 167.981 27.6916 167.879 27.8162 167.879C27.9409 167.879 28.042 167.981 28.042 168.107C28.042 168.233 27.9409 168.335 27.8162 168.335Z" fill="#263238"/>
<path d="M26.5494 168.298C26.4248 168.298 26.3237 168.196 26.3237 168.07C26.3237 167.944 26.4248 167.842 26.5494 167.842C26.6741 167.842 26.7751 167.944 26.7751 168.07C26.7751 168.196 26.6741 168.298 26.5494 168.298Z" fill="#263238"/>
<path d="M25.3112 168.298C25.1865 168.298 25.0855 168.196 25.0855 168.07C25.0855 167.944 25.1865 167.842 25.3112 167.842C25.4358 167.842 25.5369 167.944 25.5369 168.07C25.5369 168.196 25.4358 168.298 25.3112 168.298Z" fill="#263238"/>
<path d="M25.8761 169.209C25.7515 169.209 25.6504 169.107 25.6504 168.981C25.6504 168.855 25.7515 168.753 25.8761 168.753C26.0008 168.753 26.1019 168.855 26.1019 168.981C26.1019 169.107 26.0008 169.209 25.8761 169.209Z" fill="#263238"/>
<path d="M27.1371 169.243C27.0125 169.243 26.9114 169.141 26.9114 169.015C26.9114 168.889 27.0125 168.787 27.1371 168.787C27.2618 168.787 27.3629 168.889 27.3629 169.015C27.3629 169.141 27.2618 169.243 27.1371 169.243Z" fill="#263238"/>
<path d="M28.4897 169.243C28.365 169.243 28.2639 169.141 28.2639 169.015C28.2639 168.889 28.365 168.787 28.4897 168.787C28.6143 168.787 28.7154 168.889 28.7154 169.015C28.7154 169.141 28.6143 169.243 28.4897 169.243Z" fill="#263238"/>
<path d="M29.791 169.243C29.6663 169.243 29.5653 169.141 29.5653 169.015C29.5653 168.889 29.6663 168.787 29.791 168.787C29.9156 168.787 30.0167 168.889 30.0167 169.015C30.0167 169.141 29.9156 169.243 29.791 169.243Z" fill="#263238"/>
<path d="M31.1216 169.209C30.997 169.209 30.8959 169.107 30.8959 168.981C30.8959 168.855 30.997 168.753 31.1216 168.753C31.2463 168.753 31.3474 168.855 31.3474 168.981C31.3474 169.107 31.2463 169.209 31.1216 169.209Z" fill="#263238"/>
<path d="M32.4742 169.209C32.3496 169.209 32.2485 169.107 32.2485 168.981C32.2485 168.855 32.3496 168.753 32.4742 168.753C32.5989 168.753 32.7 168.855 32.7 168.981C32.7 169.107 32.5989 169.209 32.4742 169.209Z" fill="#263238"/>
<path d="M32.9823 170.176C32.8577 170.176 32.7566 170.074 32.7566 169.949C32.7566 169.823 32.8577 169.721 32.9823 169.721C33.107 169.721 33.2081 169.823 33.2081 169.949C33.2081 170.074 33.107 170.176 32.9823 170.176Z" fill="#263238"/>
<path d="M31.7436 170.176C31.6189 170.176 31.5178 170.074 31.5178 169.949C31.5178 169.823 31.6189 169.721 31.7436 169.721C31.8682 169.721 31.9693 169.823 31.9693 169.949C31.9693 170.074 31.8682 170.176 31.7436 170.176Z" fill="#263238"/>
<path d="M30.4475 170.176C30.3228 170.176 30.2218 170.074 30.2218 169.949C30.2218 169.823 30.3228 169.721 30.4475 169.721C30.5722 169.721 30.6732 169.823 30.6732 169.949C30.6732 170.074 30.5722 170.176 30.4475 170.176Z" fill="#263238"/>
<path d="M29.112 170.211C28.9873 170.211 28.8863 170.109 28.8863 169.983C28.8863 169.858 28.9873 169.756 29.112 169.756C29.2366 169.756 29.3377 169.858 29.3377 169.983C29.3377 170.109 29.2366 170.211 29.112 170.211Z" fill="#263238"/>
<path d="M27.8162 170.211C27.6916 170.211 27.5905 170.109 27.5905 169.983C27.5905 169.858 27.6916 169.756 27.8162 169.756C27.9409 169.756 28.042 169.858 28.042 169.983C28.042 170.109 27.9409 170.211 27.8162 170.211Z" fill="#263238"/>
<path d="M26.5494 170.176C26.4248 170.176 26.3237 170.074 26.3237 169.949C26.3237 169.823 26.4248 169.721 26.5494 169.721C26.6741 169.721 26.7751 169.823 26.7751 169.949C26.7751 170.074 26.6741 170.176 26.5494 170.176Z" fill="#263238"/>
<path d="M25.3112 170.176C25.1865 170.176 25.0855 170.074 25.0855 169.949C25.0855 169.823 25.1865 169.721 25.3112 169.721C25.4358 169.721 25.5369 169.823 25.5369 169.949C25.5369 170.074 25.4358 170.176 25.3112 170.176Z" fill="#263238"/>
<path d="M25.8761 171.03C25.7515 171.03 25.6504 170.928 25.6504 170.802C25.6504 170.677 25.7515 170.575 25.8761 170.575C26.0008 170.575 26.1019 170.677 26.1019 170.802C26.1019 170.928 26.0008 171.03 25.8761 171.03Z" fill="#263238"/>
<path d="M27.1371 171.065C27.0125 171.065 26.9114 170.963 26.9114 170.837C26.9114 170.712 27.0125 170.61 27.1371 170.61C27.2618 170.61 27.3629 170.712 27.3629 170.837C27.3629 170.963 27.2618 171.065 27.1371 171.065Z" fill="#263238"/>
<path d="M28.4897 171.065C28.365 171.065 28.2639 170.963 28.2639 170.837C28.2639 170.712 28.365 170.61 28.4897 170.61C28.6143 170.61 28.7154 170.712 28.7154 170.837C28.7154 170.963 28.6143 171.065 28.4897 171.065Z" fill="#263238"/>
<path d="M29.791 171.065C29.6663 171.065 29.5653 170.963 29.5653 170.837C29.5653 170.712 29.6663 170.61 29.791 170.61C29.9156 170.61 30.0167 170.712 30.0167 170.837C30.0167 170.963 29.9156 171.065 29.791 171.065Z" fill="#263238"/>
<path d="M31.1216 171.03C30.997 171.03 30.8959 170.928 30.8959 170.802C30.8959 170.677 30.997 170.575 31.1216 170.575C31.2463 170.575 31.3474 170.677 31.3474 170.802C31.3474 170.928 31.2463 171.03 31.1216 171.03Z" fill="#263238"/>
<path d="M32.4742 171.03C32.3496 171.03 32.2485 170.928 32.2485 170.802C32.2485 170.677 32.3496 170.575 32.4742 170.575C32.5989 170.575 32.7 170.677 32.7 170.802C32.7 170.928 32.5989 171.03 32.4742 171.03Z" fill="#263238"/>
<path d="M32.9823 172.055C32.8577 172.055 32.7566 171.954 32.7566 171.828C32.7566 171.702 32.8577 171.6 32.9823 171.6C33.107 171.6 33.2081 171.702 33.2081 171.828C33.2081 171.954 33.107 172.055 32.9823 172.055Z" fill="#263238"/>
<path d="M31.7436 172.055C31.6189 172.055 31.5178 171.954 31.5178 171.828C31.5178 171.702 31.6189 171.6 31.7436 171.6C31.8682 171.6 31.9693 171.702 31.9693 171.828C31.9693 171.954 31.8682 172.055 31.7436 172.055Z" fill="#263238"/>
<path d="M30.4475 172.055C30.3228 172.055 30.2218 171.954 30.2218 171.828C30.2218 171.702 30.3228 171.6 30.4475 171.6C30.5722 171.6 30.6732 171.702 30.6732 171.828C30.6732 171.954 30.5722 172.055 30.4475 172.055Z" fill="#263238"/>
<path d="M29.112 172.091C28.9873 172.091 28.8863 171.989 28.8863 171.863C28.8863 171.737 28.9873 171.635 29.112 171.635C29.2366 171.635 29.3377 171.737 29.3377 171.863C29.3377 171.989 29.2366 172.091 29.112 172.091Z" fill="#263238"/>
<path d="M27.8162 172.091C27.6916 172.091 27.5905 171.989 27.5905 171.863C27.5905 171.737 27.6916 171.635 27.8162 171.635C27.9409 171.635 28.042 171.737 28.042 171.863C28.042 171.989 27.9409 172.091 27.8162 172.091Z" fill="#263238"/>
<path d="M26.5494 172.055C26.4248 172.055 26.3237 171.954 26.3237 171.828C26.3237 171.702 26.4248 171.6 26.5494 171.6C26.6741 171.6 26.7751 171.702 26.7751 171.828C26.7751 171.954 26.6741 172.055 26.5494 172.055Z" fill="#263238"/>
<path d="M25.3112 172.055C25.1865 172.055 25.0855 171.954 25.0855 171.828C25.0855 171.702 25.1865 171.6 25.3112 171.6C25.4358 171.6 25.5369 171.702 25.5369 171.828C25.5369 171.954 25.4358 172.055 25.3112 172.055Z" fill="#263238"/>
<path d="M25.8761 172.909C25.7515 172.909 25.6504 172.807 25.6504 172.682C25.6504 172.556 25.7515 172.454 25.8761 172.454C26.0008 172.454 26.1019 172.556 26.1019 172.682C26.1019 172.807 26.0008 172.909 25.8761 172.909Z" fill="#263238"/>
<path d="M27.1371 172.944C27.0125 172.944 26.9114 172.842 26.9114 172.717C26.9114 172.591 27.0125 172.489 27.1371 172.489C27.2618 172.489 27.3629 172.591 27.3629 172.717C27.3629 172.842 27.2618 172.944 27.1371 172.944Z" fill="#263238"/>
<path d="M28.4897 172.944C28.365 172.944 28.2639 172.842 28.2639 172.717C28.2639 172.591 28.365 172.489 28.4897 172.489C28.6143 172.489 28.7154 172.591 28.7154 172.717C28.7154 172.842 28.6143 172.944 28.4897 172.944Z" fill="#263238"/>
<path d="M29.791 172.944C29.6663 172.944 29.5653 172.842 29.5653 172.717C29.5653 172.591 29.6663 172.489 29.791 172.489C29.9156 172.489 30.0167 172.591 30.0167 172.717C30.0167 172.842 29.9156 172.944 29.791 172.944Z" fill="#263238"/>
<path d="M31.1216 172.909C30.997 172.909 30.8959 172.807 30.8959 172.682C30.8959 172.556 30.997 172.454 31.1216 172.454C31.2463 172.454 31.3474 172.556 31.3474 172.682C31.3474 172.807 31.2463 172.909 31.1216 172.909Z" fill="#263238"/>
<path d="M32.4742 172.909C32.3496 172.909 32.2485 172.807 32.2485 172.682C32.2485 172.556 32.3496 172.454 32.4742 172.454C32.5989 172.454 32.7 172.556 32.7 172.682C32.7 172.807 32.5989 172.909 32.4742 172.909Z" fill="#263238"/>
<path d="M216.508 127.189V132.655H186.655V213.734H183.89V132.655L59.1172 133.281V213.734H56.4084V133.11L37.1649 133.281V126.733L216.508 127.189Z" fill="#FF8F6B"/>
<path d="M197.377 131.573L185.582 140.113L186.654 141.138L198.505 132.085L197.377 131.573Z" fill="#FF8F6B"/>
<path d="M45.288 132.37L59.0011 142.22L57.9853 143.188L44.2157 132.883L45.288 132.37Z" fill="#FF8F6B"/>
<path d="M142.18 125.196H173.049V127.474H142.18V125.196Z" fill="#263238"/>
</svg>
