<svg width="144" height="26" viewBox="0 0 144 26" fill="none" xmlns="http://www.w3.org/2000/svg">
<path d="M55.6742 12.9649C55.6742 19.6813 50.7363 24.5646 43.9262 24.5646H36.4843V1.38855H43.9262C50.7129 1.38855 55.6742 6.24841 55.6742 12.9649ZM53.334 12.9649C53.3714 11.7175 53.1517 10.4757 52.6886 9.31688C52.2254 8.15804 51.5288 7.10689 50.642 6.22885C49.7552 5.35081 48.6971 4.66467 47.5337 4.21309C46.3703 3.76151 45.1263 3.55415 43.8794 3.60394H38.8245V22.3882H43.8794C45.1264 22.4274 46.3683 22.2102 47.528 21.7502C48.6877 21.2902 49.7405 20.597 50.6216 19.7138C51.5027 18.8305 52.1933 17.7758 52.6505 16.6149C53.1076 15.4541 53.3216 14.2118 53.2793 12.9649H53.334Z" fill="#23272E"/>
<path d="M76.7989 16.4674H61.088C61.1907 18.1896 61.9598 19.8042 63.2325 20.9691C64.5051 22.134 66.1813 22.7577 67.9059 22.708C69.1422 22.7416 70.3635 22.4312 71.4338 21.8114C72.504 21.1915 73.381 20.2867 73.9671 19.1976H76.3464C75.6936 20.8999 74.5343 22.3608 73.025 23.3834C71.5156 24.4059 69.7288 24.9407 67.9059 24.9156C62.7496 24.9156 58.8415 20.906 58.8415 15.5547C58.7993 14.3416 59.0031 13.1326 59.4406 12.0003C59.8782 10.8681 60.5403 9.8362 61.3872 8.96669C62.2341 8.09717 63.2484 7.40805 64.3687 6.94088C65.489 6.47372 66.6921 6.23816 67.9059 6.24836C73.2416 6.24836 76.8455 10.375 76.8455 15.6093C76.8455 15.9057 76.8223 16.1943 76.7989 16.4674ZM61.1349 14.3768H74.6146C74.4517 12.7234 73.6696 11.1927 72.4254 10.0918C71.1812 8.99078 69.5668 8.40088 67.9059 8.44038C66.2372 8.39592 64.6133 8.98248 63.3582 10.0829C62.103 11.1833 61.3091 12.7166 61.1349 14.3768Z" fill="#23272E"/>
<path d="M98.5003 6.68523V24.5646H96.6204L96.3629 21.3585C95.5095 22.4988 94.3959 23.4186 93.115 24.0414C91.8341 24.6643 90.4229 24.972 88.999 24.9391C87.7746 24.9607 86.5587 24.7337 85.4245 24.272C84.2903 23.8102 83.2615 23.1233 82.4004 22.2526C81.5392 21.382 80.8635 20.3458 80.4142 19.2066C79.9649 18.0674 79.7513 16.849 79.7863 15.6249C79.7437 14.3967 79.9518 13.1726 80.3978 12.0275C80.8438 10.8823 81.5183 9.83996 82.3804 8.96404C83.2424 8.08813 84.2738 7.39698 85.4117 6.93277C86.5497 6.46856 87.7703 6.24102 88.999 6.26401C90.4289 6.22997 91.8461 6.53948 93.1316 7.16659C94.417 7.7937 95.5331 8.7201 96.3863 9.86796L96.6907 6.64624L98.5003 6.68523ZM96.1601 15.6249C96.1965 14.6877 96.0408 13.753 95.7024 12.8783C95.364 12.0036 94.8501 11.2074 94.1924 10.5387C93.5347 9.87007 92.7472 9.34314 91.8782 8.99033C91.0092 8.63751 90.077 8.46627 89.1394 8.48721C88.1999 8.46888 87.2666 8.64145 86.3958 8.99447C85.525 9.34749 84.7348 9.87362 84.0733 10.541C83.4117 11.2083 82.8927 12.003 82.5474 12.8769C82.202 13.7507 82.0376 14.6857 82.0642 15.6249C82.0376 16.5639 82.2019 17.4984 82.5474 18.3719C82.8928 19.2453 83.4122 20.0395 84.0738 20.7063C84.7355 21.373 85.5256 21.8984 86.3963 22.2505C87.2671 22.6027 88.2003 22.7742 89.1394 22.7548C90.0828 22.7866 91.0228 22.6237 91.9005 22.2762C92.7782 21.9287 93.5749 21.4041 94.2409 20.7352C94.907 20.0662 95.4279 19.2672 95.7716 18.388C96.1152 17.5088 96.2741 16.5682 96.2382 15.6249H96.1601Z" fill="#23272E"/>
<path d="M104.429 0.319824H106.683V24.5646H104.429V0.319824Z" fill="#23272E"/>
<path d="M129.111 16.4674H113.4C113.507 18.1896 114.278 19.8031 115.552 20.9674C116.825 22.1317 118.501 22.7558 120.226 22.708C121.461 22.7428 122.682 22.4328 123.751 21.8128C124.82 21.1928 125.696 20.2872 126.279 19.1976H128.658C128.007 20.8992 126.849 22.36 125.341 23.3825C123.833 24.4051 122.048 24.9402 120.226 24.9156C115.069 24.9156 111.153 20.906 111.153 15.5547C111.112 14.3412 111.317 13.132 111.755 11.9998C112.194 10.8675 112.857 9.83565 113.704 8.96625C114.552 8.09686 115.566 7.40791 116.687 6.94083C117.808 6.47375 119.012 6.2382 120.226 6.24836C125.561 6.24836 129.165 10.375 129.165 15.6093C129.158 15.9057 129.134 16.1943 129.111 16.4674ZM113.439 14.3768H126.919C126.758 12.724 125.977 11.1935 124.734 10.0923C123.491 8.99119 121.878 8.40103 120.218 8.44038C118.549 8.39757 116.925 8.9845 115.669 10.0844C114.413 11.1844 113.617 12.7167 113.439 14.3768Z" fill="#23272E"/>
<path d="M143.043 6.59949V8.73689H141.288C137.871 8.73689 135.827 11.0771 135.827 14.7357V24.5646H133.581V6.68528H135.203L135.593 9.75098C136.204 8.7475 137.074 7.92772 138.112 7.37842C139.15 6.82913 140.318 6.57076 141.491 6.63067L143.043 6.59949Z" fill="#23272E"/>
<path d="M9.48587 11.1629V4.74289C9.48587 3.485 8.98619 2.27864 8.09673 1.38918C7.20727 0.499719 6.00082 0 4.74293 0C3.48505 0 2.27878 0.499719 1.38932 1.38918C0.499862 2.27864 0 3.485 0 4.74289V21.2493C-1.69677e-06 22.5079 0.499514 23.7151 1.38875 24.6058C2.27799 25.4965 3.48433 25.9979 4.74293 26C6.00154 25.9979 7.20788 25.4965 8.09711 24.6058C8.98635 23.7151 9.48587 22.5079 9.48587 21.2493V18.3396C8.8384 18.1992 8.19094 18.0354 7.53567 17.8404V21.2493C7.5367 21.6167 7.46511 21.9807 7.32523 22.3204C7.18534 22.6602 6.97979 22.9689 6.72036 23.2291C6.46094 23.4892 6.15278 23.6956 5.81344 23.8365C5.47411 23.9773 5.11033 24.0498 4.74293 24.0498C4.37554 24.0498 4.01175 23.9773 3.67242 23.8365C3.33309 23.6956 3.02493 23.4892 2.7655 23.2291C2.50608 22.9689 2.30053 22.6602 2.16064 22.3204C2.02075 21.9807 1.94917 21.6167 1.95019 21.2493V4.74289C1.95019 4.00222 2.24444 3.2919 2.76817 2.76817C3.2919 2.24444 4.00227 1.95019 4.74293 1.95019C5.4836 1.95019 6.19397 2.24444 6.71769 2.76817C7.24142 3.2919 7.53567 4.00222 7.53567 4.74289V10.4531C8.17188 10.7261 8.82298 10.9631 9.48587 11.1629Z" fill="#007AFF"/>
<path d="M23.5272 0C22.2686 -1.69678e-06 21.0615 0.499466 20.1708 1.3887C19.2801 2.27794 18.7786 3.48428 18.7765 4.74289V11.1629C19.4431 10.9666 20.097 10.7296 20.7345 10.4531V4.74289C20.7345 4.00222 21.0287 3.2919 21.5525 2.76817C22.0762 2.24444 22.7866 1.95019 23.5272 1.95019C23.8946 1.94917 24.2586 2.02066 24.5983 2.16054C24.938 2.30043 25.2468 2.50598 25.5069 2.76541C25.7671 3.02484 25.9735 3.33304 26.1143 3.67237C26.2551 4.01171 26.3276 4.37549 26.3276 4.74289V21.2493C26.3276 21.992 26.0327 22.7044 25.5075 23.2295C24.9823 23.7547 24.27 24.0498 23.5272 24.0498C23.1598 24.0498 22.7961 23.9773 22.4567 23.8365C22.1174 23.6956 21.8092 23.4892 21.5498 23.2291C21.2904 22.9689 21.0848 22.6602 20.9449 22.3204C20.8051 21.9807 20.7335 21.6167 20.7345 21.2493V17.8404C20.0792 18.0354 19.4318 18.1992 18.7765 18.3396V21.2493C18.7765 22.5093 19.277 23.7176 20.1679 24.6085C21.0588 25.4995 22.2673 26 23.5272 26C24.7872 26 25.9954 25.4995 26.8864 24.6085C27.7773 23.7176 28.2778 22.5093 28.2778 21.2493V4.74289C28.2757 3.48428 27.7744 2.27794 26.8837 1.3887C25.993 0.499466 24.7858 -1.69678e-06 23.5272 0Z" fill="#007AFF"/>
<path d="M14.1351 16.3192C10.7121 16.2842 7.3452 15.4452 4.30609 13.8698C4.1912 13.8126 4.08878 13.7333 4.00461 13.6364C3.92043 13.5395 3.85627 13.427 3.81568 13.3052C3.7751 13.1834 3.75886 13.0549 3.76807 12.9269C3.77728 12.7989 3.81179 12.6739 3.86939 12.5593C3.92658 12.4444 4.00581 12.3419 4.10269 12.2577C4.19957 12.1735 4.31212 12.1093 4.43388 12.0687C4.55563 12.0281 4.68429 12.012 4.8123 12.0212C4.94031 12.0304 5.06518 12.0648 5.17987 12.1224C7.93465 13.6142 11.018 14.3955 14.1508 14.3955C17.2835 14.3955 20.3669 13.6142 23.1217 12.1224C23.2363 12.0648 23.3612 12.0304 23.4892 12.0212C23.6172 12.012 23.7459 12.0281 23.8676 12.0687C23.9894 12.1093 24.1019 12.1735 24.1988 12.2577C24.2957 12.3419 24.3749 12.4444 24.4321 12.5593C24.4897 12.6739 24.5242 12.7989 24.5334 12.9269C24.5427 13.0549 24.5264 13.1834 24.4858 13.3052C24.4452 13.427 24.3811 13.5395 24.2969 13.6364C24.2127 13.7333 24.1101 13.8126 23.9952 13.8698C20.9467 15.4499 17.5687 16.2891 14.1351 16.3192Z" fill="#007AFF"/>
</svg>
