<svg width="55" height="54" viewBox="0 0 55 54" fill="none" xmlns="http://www.w3.org/2000/svg">
<rect width="55" height="54" rx="16" fill="#F4EBFF"/>
<path opacity="0.2" d="M27.585 38.17C33.9834 38.17 39.17 32.9834 39.17 26.585C39.17 20.1866 33.9834 15 27.585 15C21.1866 15 16 20.1866 16 26.585C16 28.4386 16.4356 30.1902 17.2083 31.7438C17.4145 32.1562 17.4829 32.6277 17.3636 33.0737L16.6742 35.6526C16.6062 35.9077 16.6065 36.1762 16.675 36.4312C16.7435 36.6862 16.8778 36.9187 17.0645 37.1055C17.2512 37.2922 17.4838 37.4265 17.7388 37.495C17.9938 37.5635 18.2623 37.5638 18.5174 37.4957L21.0962 36.8064C21.5439 36.6938 22.0173 36.7486 22.4274 36.9605C24.0295 37.7583 25.7952 38.1724 27.585 38.17Z" fill="#7000FF"/>
<path d="M31.332 24.964V26.284H27.396V29.02C27.396 29.244 27.428 29.412 27.492 29.524C27.556 29.628 27.7 29.68 27.924 29.68C28.108 29.68 28.288 29.652 28.464 29.596C28.64 29.532 28.8 29.452 28.944 29.356C29.088 29.252 29.204 29.132 29.292 28.996C29.38 28.86 29.424 28.72 29.424 28.576C29.424 28.504 29.392 28.436 29.328 28.372C29.264 28.308 29.14 28.276 28.956 28.276C28.812 28.276 28.684 28.288 28.572 28.312L28.38 27.088C28.524 27.048 28.684 27.02 28.86 27.004C29.044 26.988 29.232 26.98 29.424 26.98C29.896 26.98 30.276 27.088 30.564 27.304C30.852 27.52 30.996 27.856 30.996 28.312C30.996 28.744 30.896 29.128 30.696 29.464C30.496 29.8 30.232 30.08 29.904 30.304C29.576 30.528 29.216 30.7 28.824 30.82C28.44 30.932 28.064 30.988 27.696 30.988C27.36 30.988 27.076 30.948 26.844 30.868C26.62 30.788 26.44 30.684 26.304 30.556C26.216 30.468 26.132 30.368 26.052 30.256C25.98 30.144 25.92 29.988 25.872 29.788C25.832 29.588 25.812 29.32 25.812 28.984V26.284H24.804V24.964H31.332ZM25.692 22C25.956 22 26.188 22.032 26.388 22.096C26.588 22.16 26.756 22.26 26.892 22.396C27.052 22.548 27.176 22.76 27.264 23.032C27.352 23.304 27.396 23.688 27.396 24.184V25.012H25.812V24.244C25.812 24.044 25.796 23.876 25.764 23.74C25.732 23.604 25.668 23.504 25.572 23.44C25.476 23.368 25.332 23.332 25.14 23.332C25.036 23.332 24.924 23.344 24.804 23.368C24.692 23.392 24.576 23.428 24.456 23.476L24 22.324C24.312 22.212 24.592 22.132 24.84 22.084C25.088 22.028 25.372 22 25.692 22Z" fill="#7000FF"/>
</svg>
