<svg width="55" height="54" viewBox="0 0 55 54" fill="none" xmlns="http://www.w3.org/2000/svg">
<rect width="55" height="54" rx="16" fill="#F9F0EE"/>
<path opacity="0.5" fill-rule="evenodd" clip-rule="evenodd" d="M25.268 38.17H29.902C34.2707 38.17 36.4556 38.17 37.8122 36.8122C39.17 35.4556 39.17 33.2707 39.17 28.902V28.3957C39.17 27.3844 39.17 26.6244 39.1202 26.0057H34.4259C33.1551 26.0057 32.0313 26.0057 31.1265 25.8841C30.1453 25.752 29.164 25.4497 28.3635 24.6491C27.5618 23.8475 27.2595 22.8662 27.1274 21.885C27.0057 20.9802 27.0057 19.8576 27.0057 18.5856L27.0173 15.3024C27.0173 15.2062 27.0254 15.1124 27.0405 15.0197C26.5667 15 26.0048 15 25.3028 15C20.9109 15 18.7144 15 17.3578 16.3578C16 17.7144 16 19.8993 16 24.268V28.902C16 33.2707 16 35.4556 17.3578 36.8122C18.7144 38.17 20.8993 38.17 25.268 38.17Z" fill="#F56262"/>
<path d="M22.9357 27.6891C23.0968 27.5381 23.3093 27.4541 23.5301 27.4541C23.7508 27.4541 23.9633 27.5381 24.1244 27.6891L26.4414 29.8613C26.6055 30.0199 26.7007 30.2366 26.7063 30.4648C26.712 30.6929 26.6276 30.9142 26.4715 31.0806C26.3154 31.2471 26.1 31.3455 25.872 31.3545C25.6439 31.3634 25.4215 31.2824 25.2527 31.1287L24.3989 30.3293V34.1153C24.3989 34.3458 24.3074 34.5668 24.1444 34.7297C23.9815 34.8926 23.7605 34.9842 23.5301 34.9842C23.2996 34.9842 23.0786 34.8926 22.9157 34.7297C22.7527 34.5668 22.6612 34.3458 22.6612 34.1153V30.3282L21.8074 31.1287C21.6386 31.2824 21.4162 31.3634 21.1881 31.3545C20.9601 31.3455 20.7447 31.2471 20.5886 31.0806C20.4325 30.9142 20.3481 30.6929 20.3538 30.4648C20.3594 30.2366 20.4546 30.0199 20.6187 29.8613L22.9357 27.6891ZM27.0171 15.3013L27.0056 18.5856C27.0056 19.8565 27.0056 20.9791 27.1272 21.885C27.2593 22.8663 27.5616 23.8475 28.3633 24.6481C29.1627 25.4486 30.1451 25.7521 31.1263 25.8842C32.0311 26.0058 33.1549 26.0058 34.4258 26.0058H39.12C39.1351 26.1854 39.1455 26.3777 39.1524 26.5851H39.1698C39.1698 26.2746 39.1698 26.1193 39.1582 25.9363C39.069 24.8354 38.6857 23.7788 38.0484 22.8767C37.9395 22.7284 37.8653 22.6404 37.7182 22.4631C36.7995 21.3649 35.59 19.9955 34.5358 19.0548C33.5974 18.2161 32.3103 17.2997 31.1877 16.5501C30.2239 15.9072 29.7419 15.5851 29.0804 15.3453C28.888 15.2768 28.6924 15.2177 28.4942 15.168C28.0494 15.058 27.6161 15.0198 27.0056 15.0059L27.0171 15.3013Z" fill="#F56262"/>
</svg>
