<svg width="55" height="54" viewBox="0 0 55 54" fill="none" xmlns="http://www.w3.org/2000/svg">
<rect width="55" height="54" rx="16" fill="#E9F0FB"/>
<path opacity="0.4" d="M33.0294 15H22.9726C18.6042 15 16 17.6042 16 21.9726V32.0174C16 36.3977 18.6042 39.002 22.9726 39.002H33.0174C37.3857 39.002 39.99 36.3977 39.99 32.0294V21.9726C40.002 17.6042 37.3977 15 33.0294 15Z" fill="#007AFF"/>
<path d="M33.3052 21.9698V32.0266C33.3052 32.7946 32.6811 33.4187 31.913 33.4187C31.133 33.4187 30.5089 32.7946 30.5089 32.0266V21.9698C30.5089 21.2017 31.133 20.5776 31.913 20.5776C32.6811 20.5776 33.3052 21.2017 33.3052 21.9698ZM25.4925 28.1167V32.029C25.4925 32.797 24.8685 33.4211 24.0884 33.4211C23.3203 33.4211 22.6963 32.797 22.6963 32.029V28.1167C22.6963 27.3486 23.3203 26.7245 24.0884 26.7245C24.8685 26.7245 25.4925 27.3486 25.4925 28.1167Z" fill="#007AFF"/>
</svg>
