<svg width="55" height="54" viewBox="0 0 55 54" fill="none" xmlns="http://www.w3.org/2000/svg">
<rect width="55" height="54" rx="16" fill="#E9EAFB"/>
<path opacity="0.4" d="M37 22.4219V34C37 37.5625 34.8744 38.75 32.25 38.75H22.75C20.1256 38.75 18 37.5625 18 34V22.4219C18 18.5625 20.1256 17.6719 22.75 17.6719C22.75 18.4081 23.0469 19.0731 23.5337 19.56C24.0206 20.0469 24.6856 20.3438 25.4219 20.3438H29.5781C31.0506 20.3438 32.25 19.1444 32.25 17.6719C34.8744 17.6719 37 18.5625 37 22.4219Z" fill="#4951FF"/>
<path d="M32.25 17.6719C32.25 19.1444 31.0506 20.3438 29.5781 20.3438H25.4219C24.6856 20.3438 24.0206 20.0469 23.5337 19.56C23.0469 19.0731 22.75 18.4081 22.75 17.6719C22.75 16.1994 23.9494 15 25.4219 15H29.5781C30.3144 15 30.9794 15.2969 31.4663 15.7838C31.9531 16.2706 32.25 16.9356 32.25 17.6719ZM27.5 28.9531H22.75C22.2631 28.9531 21.8594 28.5494 21.8594 28.0625C21.8594 27.5756 22.2631 27.1719 22.75 27.1719H27.5C27.9869 27.1719 28.3906 27.5756 28.3906 28.0625C28.3906 28.5494 27.9869 28.9531 27.5 28.9531ZM32.25 33.7031H22.75C22.2631 33.7031 21.8594 33.2994 21.8594 32.8125C21.8594 32.3256 22.2631 31.9219 22.75 31.9219H32.25C32.7369 31.9219 33.1406 32.3256 33.1406 32.8125C33.1406 33.2994 32.7369 33.7031 32.25 33.7031Z" fill="#4951FF"/>
</svg>
