<svg width="18" height="19" viewBox="0 0 18 19" fill="none" xmlns="http://www.w3.org/2000/svg">
<path d="M17.3098 17.4048H1.30981" stroke="#8392A5" stroke-width="1.2" stroke-linecap="round"/>
<path opacity="0.5" d="M16.51 17.4048V4.60475C16.51 3.09595 16.51 2.34235 16.0412 1.87355C15.5724 1.40475 14.8188 1.40475 13.31 1.40475H11.71C10.2012 1.40475 9.44758 1.40475 8.97878 1.87355C8.60118 2.25035 8.52758 2.81275 8.51318 3.80475" stroke="#8392A5" stroke-width="1.2"/>
<path d="M11.7099 17.4048V7.00479C11.7099 5.49599 11.7099 4.74239 11.2411 4.27359C10.7723 3.80479 10.0187 3.80479 8.50986 3.80479H5.30986C3.80106 3.80479 3.04746 3.80479 2.57866 4.27359C2.10986 4.74239 2.10986 5.49599 2.10986 7.00479V17.4048" stroke="#8392A5" stroke-width="1.2"/>
<path d="M6.91003 17.4047V15.0047" stroke="#8392A5" stroke-width="1.2" stroke-linecap="round"/>
<path opacity="0.5" d="M4.50977 6.20485H9.30977M4.50977 8.60485H9.30977M4.50977 11.0048H9.30977" stroke="#8392A5" stroke-width="1.2" stroke-linecap="round"/>
</svg>
