<svg width="18" height="15" viewBox="0 0 18 15" fill="none" xmlns="http://www.w3.org/2000/svg">
<path d="M4.50977 4.20456H7.70982" stroke="#8392A5" stroke-width="1.2" stroke-linecap="round" stroke-linejoin="round"/>
<path d="M16.3761 5.00477H14.2944C12.8664 5.00477 11.7096 6.07919 11.7096 7.40481C11.7096 8.73043 12.8672 9.80485 14.2936 9.80485H16.3761C16.4433 9.80485 16.4761 9.80485 16.5041 9.80325C16.9361 9.77685 17.2801 9.45764 17.3081 9.05683C17.3097 9.03123 17.3097 9.00003 17.3097 8.93843V5.87118C17.3097 5.80958 17.3097 5.77838 17.3081 5.75278C17.2793 5.35197 16.9361 5.03277 16.5041 5.00637C16.4769 5.00477 16.4433 5.00477 16.3761 5.00477Z" stroke="#8392A5" stroke-width="1.2"/>
<path opacity="0.4" d="M16.4821 5.00472C16.4197 3.5071 16.2197 2.58868 15.5724 1.94227C14.6356 1.00465 13.1268 1.00465 10.11 1.00465H7.70992C4.69307 1.00465 3.18425 1.00465 2.24743 1.94227C1.30981 2.87908 1.30981 4.38791 1.30981 7.40476C1.30981 10.4216 1.30981 11.9304 2.24743 12.8672C3.18425 13.8049 4.69307 13.8049 7.70992 13.8049H10.11C13.1268 13.8049 14.6356 13.8049 15.5724 12.8672C16.2197 12.2208 16.4205 11.3024 16.4821 9.8048" stroke="#8392A5" stroke-width="1.2"/>
<path opacity="0.5" d="M14.1028 7.40482H14.1092" stroke="#8392A5" stroke-width="1.2" stroke-linecap="round" stroke-linejoin="round"/>
</svg>
