<svg width="16" height="17" viewBox="0 0 16 17" fill="none" xmlns="http://www.w3.org/2000/svg">
<path opacity="0.5" d="M1.30981 7.17354C1.30981 4.68621 1.30981 3.44254 1.60381 3.02409C1.89704 2.60643 3.06604 2.20587 5.40481 1.40554L5.85048 1.25309C7.06926 0.835428 7.67826 0.626984 8.30981 0.626984C8.94059 0.626984 9.55037 0.835428 10.7691 1.25309L11.2148 1.40554C13.5536 2.20587 14.7226 2.60643 15.0158 3.02409C15.3098 3.44254 15.3098 4.68698 15.3098 7.17354V8.39776C15.3098 12.7829 12.0128 14.9117 9.94393 15.8147C9.38315 16.0597 9.10315 16.1825 8.30981 16.1825C7.51648 16.1825 7.23648 16.0597 6.6757 15.8147C4.60681 14.9109 1.30981 12.7837 1.30981 8.39776V7.17354Z" stroke="#8392A5" stroke-width="1.2"/>
<path d="M8.30983 7.62706C9.16894 7.62706 9.86538 6.93061 9.86538 6.0715C9.86538 5.2124 9.16894 4.51595 8.30983 4.51595C7.45072 4.51595 6.75427 5.2124 6.75427 6.0715C6.75427 6.93061 7.45072 7.62706 8.30983 7.62706Z" stroke="#8392A5" stroke-width="1.2"/>
<path d="M11.421 10.7381C11.421 11.5975 11.421 12.2936 8.30984 12.2936C5.19873 12.2936 5.19873 11.5975 5.19873 10.7381C5.19873 9.87861 6.59095 9.1825 8.30984 9.1825C10.0287 9.1825 11.421 9.87861 11.421 10.7381Z" stroke="#8392A5" stroke-width="1.2"/>
</svg>
