<svg width="20" height="16" viewBox="0 0 20 16" fill="none" xmlns="http://www.w3.org/2000/svg">
<path d="M19 13.4444C19 13.857 18.8276 14.2527 18.5207 14.5444C18.2138 14.8361 17.7976 15 17.3636 15H2.63636C2.20237 15 1.78616 14.8361 1.47928 14.5444C1.1724 14.2527 1 13.857 1 13.4444V4.88889C1 4.47633 1.1724 4.08067 1.47928 3.78894C1.78616 3.49722 2.20237 3.33333 2.63636 3.33333H5.90909L7.54545 1H12.4545L14.0909 3.33333H17.3636C17.7976 3.33333 18.2138 3.49722 18.5207 3.78894C18.8276 4.08067 19 4.47633 19 4.88889V13.4444Z" stroke="#007AFF" stroke-linecap="round" stroke-linejoin="round"/>
<path d="M10 12C11.6569 12 13 10.6569 13 9C13 7.34315 11.6569 6 10 6C8.34315 6 7 7.34315 7 9C7 10.6569 8.34315 12 10 12Z" stroke="#007AFF" stroke-linecap="round" stroke-linejoin="round"/>
</svg>
