<svg width="247" height="264" viewBox="0 0 247 264" fill="none" xmlns="http://www.w3.org/2000/svg">
<g opacity="0.61">
<circle cx="2" cy="2" r="2" fill="#8094AA"/>
<circle cx="2" cy="54" r="2" fill="#8094AA"/>
<circle cx="2" cy="106" r="2" fill="#8094AA"/>
<circle cx="2" cy="158" r="2" fill="#8094AA"/>
<circle cx="2" cy="210" r="2" fill="#8094AA"/>
<circle cx="2" cy="262" r="2" fill="#8094AA"/>
<circle cx="2" cy="28" r="2" fill="#8094AA"/>
<circle cx="2" cy="80" r="2" fill="#8094AA"/>
<circle cx="2" cy="132" r="2" fill="#8094AA"/>
<circle cx="2" cy="184" r="2" fill="#8094AA"/>
<circle cx="2" cy="236" r="2" fill="#8094AA"/>
<circle cx="29" cy="2" r="2" fill="#8094AA"/>
<circle cx="29" cy="54" r="2" fill="#8094AA"/>
<circle cx="29" cy="106" r="2" fill="#8094AA"/>
<circle cx="29" cy="158" r="2" fill="#8094AA"/>
<circle cx="29" cy="210" r="2" fill="#8094AA"/>
<circle cx="29" cy="262" r="2" fill="#8094AA"/>
<circle cx="29" cy="28" r="2" fill="#8094AA"/>
<circle cx="29" cy="80" r="2" fill="#8094AA"/>
<circle cx="29" cy="132" r="2" fill="#8094AA"/>
<circle cx="29" cy="184" r="2" fill="#8094AA"/>
<circle cx="29" cy="236" r="2" fill="#8094AA"/>
<circle cx="56" cy="2" r="2" fill="#8094AA"/>
<circle cx="56" cy="54" r="2" fill="#8094AA"/>
<circle cx="56" cy="106" r="2" fill="#8094AA"/>
<circle cx="56" cy="158" r="2" fill="#8094AA"/>
<circle cx="56" cy="210" r="2" fill="#8094AA"/>
<circle cx="56" cy="262" r="2" fill="#8094AA"/>
<circle cx="56" cy="28" r="2" fill="#8094AA"/>
<circle cx="56" cy="80" r="2" fill="#8094AA"/>
<circle cx="56" cy="132" r="2" fill="#8094AA"/>
<circle cx="56" cy="184" r="2" fill="#8094AA"/>
<circle cx="56" cy="236" r="2" fill="#8094AA"/>
<circle cx="83" cy="2" r="2" fill="#8094AA"/>
<circle cx="83" cy="54" r="2" fill="#8094AA"/>
<circle cx="83" cy="106" r="2" fill="#8094AA"/>
<circle cx="83" cy="158" r="2" fill="#8094AA"/>
<circle cx="83" cy="210" r="2" fill="#8094AA"/>
<circle cx="83" cy="262" r="2" fill="#8094AA"/>
<circle cx="83" cy="28" r="2" fill="#8094AA"/>
<circle cx="83" cy="80" r="2" fill="#8094AA"/>
<circle cx="83" cy="132" r="2" fill="#8094AA"/>
<circle cx="83" cy="184" r="2" fill="#8094AA"/>
<circle cx="83" cy="236" r="2" fill="#8094AA"/>
<circle cx="110" cy="2" r="2" fill="#8094AA"/>
<circle cx="110" cy="54" r="2" fill="#8094AA"/>
<circle cx="110" cy="106" r="2" fill="#8094AA"/>
<circle cx="110" cy="158" r="2" fill="#8094AA"/>
<circle cx="110" cy="210" r="2" fill="#8094AA"/>
<circle cx="110" cy="262" r="2" fill="#8094AA"/>
<circle cx="110" cy="28" r="2" fill="#8094AA"/>
<circle cx="110" cy="80" r="2" fill="#8094AA"/>
<circle cx="110" cy="132" r="2" fill="#8094AA"/>
<circle cx="110" cy="184" r="2" fill="#8094AA"/>
<circle cx="110" cy="236" r="2" fill="#8094AA"/>
<circle cx="137" cy="2" r="2" fill="#8094AA"/>
<circle cx="137" cy="54" r="2" fill="#8094AA"/>
<circle cx="137" cy="106" r="2" fill="#8094AA"/>
<circle cx="137" cy="158" r="2" fill="#8094AA"/>
<circle cx="137" cy="210" r="2" fill="#8094AA"/>
<circle cx="137" cy="262" r="2" fill="#8094AA"/>
<circle cx="137" cy="28" r="2" fill="#8094AA"/>
<circle cx="137" cy="80" r="2" fill="#8094AA"/>
<circle cx="137" cy="132" r="2" fill="#8094AA"/>
<circle cx="137" cy="236" r="2" fill="#8094AA"/>
<circle cx="164" cy="2" r="2" fill="#8094AA"/>
<circle cx="164" cy="54" r="2" fill="#8094AA"/>
<circle cx="164" cy="106" r="2" fill="#8094AA"/>
<circle cx="164" cy="158" r="2" fill="#8094AA"/>
<circle cx="164" cy="210" r="2" fill="#8094AA"/>
<circle cx="164" cy="262" r="2" fill="#8094AA"/>
<circle cx="164" cy="28" r="2" fill="#8094AA"/>
<circle cx="164" cy="80" r="2" fill="#8094AA"/>
<circle cx="164" cy="132" r="2" fill="#8094AA"/>
<circle cx="164" cy="184" r="2" fill="#8094AA"/>
<circle cx="164" cy="236" r="2" fill="#8094AA"/>
<circle cx="191" cy="2" r="2" fill="#8094AA"/>
<circle cx="191" cy="54" r="2" fill="#8094AA"/>
<circle cx="191" cy="106" r="2" fill="#8094AA"/>
<circle cx="191" cy="158" r="2" fill="#8094AA"/>
<circle cx="191" cy="210" r="2" fill="#8094AA"/>
<circle cx="191" cy="262" r="2" fill="#8094AA"/>
<circle cx="191" cy="28" r="2" fill="#8094AA"/>
<circle cx="191" cy="80" r="2" fill="#8094AA"/>
<circle cx="191" cy="132" r="2" fill="#8094AA"/>
<circle cx="191" cy="184" r="2" fill="#8094AA"/>
<circle cx="191" cy="236" r="2" fill="#8094AA"/>
<circle cx="218" cy="2" r="2" fill="#8094AA"/>
<circle cx="218" cy="54" r="2" fill="#8094AA"/>
<circle cx="218" cy="106" r="2" fill="#8094AA"/>
<circle cx="218" cy="158" r="2" fill="#8094AA"/>
<circle cx="218" cy="210" r="2" fill="#8094AA"/>
<circle cx="218" cy="262" r="2" fill="#8094AA"/>
<circle cx="218" cy="28" r="2" fill="#8094AA"/>
<circle cx="218" cy="80" r="2" fill="#8094AA"/>
<circle cx="218" cy="132" r="2" fill="#8094AA"/>
<circle cx="218" cy="184" r="2" fill="#8094AA"/>
<circle cx="218" cy="236" r="2" fill="#8094AA"/>
<circle cx="245" cy="2" r="2" fill="#8094AA"/>
<circle cx="245" cy="54" r="2" fill="#8094AA"/>
<circle cx="245" cy="106" r="2" fill="#8094AA"/>
<circle cx="245" cy="158" r="2" fill="#8094AA"/>
<circle cx="245" cy="210" r="2" fill="#8094AA"/>
<circle cx="245" cy="262" r="2" fill="#8094AA"/>
<circle cx="245" cy="28" r="2" fill="#8094AA"/>
<circle cx="245" cy="80" r="2" fill="#8094AA"/>
<circle cx="245" cy="132" r="2" fill="#8094AA"/>
<circle cx="245" cy="184" r="2" fill="#8094AA"/>
<circle cx="245" cy="236" r="2" fill="#8094AA"/>
</g>
</svg>
