<svg width="12" height="12" viewBox="0 0 12 12" fill="none" xmlns="http://www.w3.org/2000/svg">
<g id="Group 20097">
<path id="Vector" fill-rule="evenodd" clip-rule="evenodd" d="M11.0234 1.84645C11.0788 1.93057 11.1035 2.03124 11.0933 2.13146C11.0831 2.23168 11.0386 2.32531 10.9674 2.39653L5.60483 7.75853C5.54997 7.81336 5.48152 7.85262 5.40649 7.87228L3.17291 8.45562C3.09908 8.47487 3.02149 8.47448 2.94786 8.45449C2.87422 8.43449 2.80709 8.39559 2.75314 8.34164C2.69919 8.28768 2.66028 8.22055 2.64029 8.14692C2.62029 8.07328 2.6199 7.9957 2.63916 7.92186L3.22249 5.68887C3.23952 5.62183 3.27165 5.55958 3.31641 5.50687L8.69883 0.127948C8.78086 0.0460189 8.89206 0 9.00799 0C9.12393 0 9.23513 0.0460189 9.31716 0.127948L10.9674 1.77761C10.9883 1.79862 11.0071 1.82168 11.0234 1.84645ZM10.0393 2.08678L9.00799 1.05603L4.03916 6.02487L3.67458 7.42078L5.07049 7.0562L10.0393 2.08678Z" fill="#8094AA"/>
<path id="Vector_2" d="M9.96505 8.69715C10.1245 7.33445 10.1754 5.96124 10.1173 4.59048C10.116 4.55819 10.1214 4.52598 10.1332 4.49587C10.1449 4.46576 10.1628 4.43839 10.1856 4.41548L10.7596 3.84148C10.7752 3.82571 10.7951 3.8148 10.8169 3.81007C10.8386 3.80533 10.8613 3.80698 10.8821 3.8148C10.9029 3.82263 10.921 3.8363 10.9343 3.85417C10.9475 3.87205 10.9553 3.89337 10.9567 3.91557C11.0648 5.54379 11.0238 7.17847 10.8342 8.79923C10.6966 9.97873 9.74922 10.9033 8.57497 11.0346C6.53642 11.2603 4.47918 11.2603 2.44064 11.0346C1.26697 10.9033 0.319054 9.97873 0.181388 8.79923C-0.0604626 6.73156 -0.0604626 4.64274 0.181388 2.57507C0.319054 1.39557 1.26639 0.470982 2.44064 0.339732C3.98785 0.168164 5.54673 0.126601 7.10089 0.215482C7.12313 0.217079 7.14445 0.225017 7.16232 0.238356C7.18019 0.251694 7.19386 0.269875 7.20172 0.290744C7.20957 0.311614 7.21129 0.334297 7.20665 0.356109C7.20201 0.377921 7.19122 0.397947 7.17555 0.413816L6.5963 0.992482C6.57362 1.01509 6.54654 1.0328 6.51674 1.04454C6.48695 1.05628 6.45506 1.06179 6.42305 1.06073C5.12616 1.01665 3.82778 1.06636 2.53805 1.20948C2.16119 1.2512 1.80938 1.41874 1.53948 1.68505C1.26957 1.95135 1.09732 2.30087 1.05055 2.67715C0.816666 4.677 0.816666 6.6973 1.05055 8.69715C1.09732 9.07342 1.26957 9.42295 1.53948 9.68925C1.80938 9.95556 2.16119 10.1231 2.53805 10.1648C4.49514 10.3836 6.52047 10.3836 8.47814 10.1648C8.855 10.1231 9.20681 9.95556 9.47671 9.68925C9.74662 9.42295 9.91829 9.07342 9.96505 8.69715Z" fill="#8094AA"/>
</g>
</svg>
