<svg width="67" height="47" viewBox="0 0 67 47" fill="none" xmlns="http://www.w3.org/2000/svg">
<path d="M21.0745 17.2298C22.5924 17.2298 23.8121 16.5792 24.5078 15.3595C24.6705 16.5792 24.8783 17.1575 25.6553 17.1575C26.3329 17.1575 26.9925 16.9226 26.9925 16.0823C26.9202 15.0794 26.9021 14.0946 26.9021 13.0917L26.9292 9.54095L26.9563 7.74298C26.9563 6.85754 26.6762 6.31544 25.7366 6.31544C25.1945 6.31544 24.8692 6.59552 24.7066 7.03824C24.6614 7.24605 24.6162 7.62552 24.562 7.9056C23.8573 6.85754 22.6918 6.27026 21.3817 6.27026C18.3459 6.27026 16.0059 8.62841 16.0059 12.0436C16.0059 14.8897 17.9665 17.2298 21.0745 17.2298ZM21.5172 8.45674C23.0351 8.45674 24.4626 9.60419 24.4626 11.7274C24.4626 13.7151 23.1255 15.0252 21.3998 15.0252C19.8367 15.0252 18.5899 13.7422 18.5899 11.9623C18.5989 9.88428 19.8367 8.45674 21.5172 8.45674Z" fill="#222950"/>
<path d="M31.1584 22.2984C32.1433 22.3255 32.586 21.9009 32.586 21.0606C32.586 19.9132 32.5408 18.8199 32.5408 18.0249C32.5408 17.2027 32.5137 16.3443 32.5137 15.8474C33.1642 16.7599 34.2665 17.2749 35.5766 17.2749C38.7298 17.2749 40.9976 14.7993 40.9976 11.619C40.9976 8.58325 39.1002 6.198 36.0374 6.198C34.5195 6.198 33.1642 6.9208 32.4595 8.14053L32.3872 7.06536C32.2969 6.47808 31.8993 6.2251 31.2849 6.2251C30.5621 6.2251 30.02 6.55036 30.002 7.39062L30.0291 11.8991L30.002 21.0877C30.011 21.9009 30.4085 22.2984 31.1584 22.2984ZM35.5766 8.43868C37.0945 8.43868 38.4316 9.72166 38.4316 11.5738C38.4316 13.6067 37.0945 15.0343 35.3959 15.0343C33.6611 15.0343 32.5227 13.8687 32.5227 11.7816C32.5137 9.79394 33.9141 8.43868 35.5766 8.43868Z" fill="#222950"/>
<path d="M44.6477 22.2984C45.6325 22.3255 46.0752 21.9009 46.0752 21.0606C46.0752 19.9132 46.0301 18.8199 46.0301 18.0249C46.0301 17.2027 46.003 16.3443 46.003 15.8474C46.6535 16.7599 47.7557 17.2749 49.0658 17.2749C52.2191 17.2749 54.4868 14.7993 54.4868 11.619C54.4868 8.58325 52.5895 6.198 49.5266 6.198C48.0087 6.198 46.6535 6.9208 45.9487 8.14053L45.8765 7.06536C45.7861 6.47808 45.3886 6.2251 44.7742 6.2251C44.0514 6.2251 43.5093 6.55036 43.4912 7.39062L43.5183 11.8991L43.4912 21.0877C43.5002 21.9009 43.8978 22.2984 44.6477 22.2984ZM49.0658 8.43868C50.5837 8.43868 51.9209 9.72166 51.9209 11.5738C51.9209 13.6067 50.5837 15.0343 48.8851 15.0343C47.1504 15.0343 46.012 13.8687 46.012 11.7816C46.003 9.79394 47.4034 8.43868 49.0658 8.43868Z" fill="#222950"/>
<path d="M4.92067 17.1846C5.48084 17.1846 5.90549 16.9949 6.11329 16.6425C6.20364 16.4889 6.24882 16.3082 6.24882 16.0914C6.24882 15.0162 6.20364 12.9111 6.20364 11.4926C6.23075 11.2034 6.26689 10.9234 6.30303 10.6433C6.62829 9.31511 7.71249 8.47486 8.86898 8.47486C10.2965 8.47486 11.1368 9.4145 11.1368 11.1131C11.1368 12.1612 11.0645 15.1608 11.0193 16.0462C11.0193 16.7961 11.6247 17.1485 12.3023 17.1485C13.0974 17.1485 13.6575 16.7961 13.6846 16.0462C13.7118 14.1489 13.6846 12.5135 13.6846 10.9234C13.6846 8.25802 12.239 6.17996 9.5195 6.17996C8.55275 6.17996 7.66732 6.51426 7.0168 7.05636C6.69153 7.32741 6.42049 7.65267 6.22171 8.02311C6.25785 3.98445 6.28496 2.52077 6.28496 1.72569C6.28496 1.54499 6.28496 1.40043 6.28496 1.2649C6.28496 0.442716 5.86031 0 5.04716 0C4.13462 0 3.69191 0.469822 3.69191 1.40043L3.70997 11.6281V12.9743C3.70997 13.7242 3.6377 15.0524 3.6377 16.0824C3.65577 16.8052 4.21594 17.1846 4.92067 17.1846Z" fill="#222950"/>
<path d="M17.7861 24.4307C17.7861 24.4307 19.4667 26.057 21.617 28.3519C23.677 30.5474 26.523 33.1224 29.9654 34.6674C33.48 36.2485 37.5457 36.2485 41.0694 34.6674C44.5027 33.1224 47.3578 30.5564 49.4178 28.3519C51.5681 26.0479 53.2486 24.4307 53.2486 24.4307C46.7434 28.8488 40.708 30.3757 35.5219 30.4299C30.3268 30.3757 24.2914 28.8488 17.7861 24.4307Z" fill="#222950"/>
<path d="M54.2332 22.1449C54.1609 22.1088 54.0976 22.0636 54.0254 22.0275C53.8898 21.9462 53.7543 21.8829 53.6097 21.8287C53.0586 21.6028 52.5165 21.5125 52.0557 21.5035C51.5949 21.4944 51.2245 21.5667 50.9715 21.639C50.7185 21.7113 50.583 21.7926 50.583 21.7926C50.583 21.7926 50.7185 21.8558 50.9444 21.9733C51.1703 22.0907 51.4865 22.2443 51.8298 22.4341C52.1732 22.6238 52.5526 22.8587 52.905 23.1207C53.0767 23.2563 53.2574 23.3918 53.411 23.5454C53.5736 23.699 53.7272 23.8526 53.8627 24.0242C54.0073 24.1869 54.1247 24.3766 54.2512 24.5573C54.3145 24.6476 54.3597 24.747 54.4229 24.8374C54.4771 24.9368 54.5223 25.0362 54.5765 25.1355C54.6217 25.2349 54.6668 25.3343 54.712 25.4337C54.7572 25.5331 54.7933 25.6415 54.8385 25.7318C54.8837 25.8312 54.9108 25.9306 54.9469 26.03C54.9921 26.1294 55.0192 26.2197 55.0463 26.3191C55.1096 26.5089 55.1728 26.6805 55.227 26.8432C55.2812 27.0058 55.3354 27.1503 55.3716 27.2678C55.4529 27.5117 55.5161 27.6563 55.5161 27.6563C55.5161 27.6563 55.5975 27.5298 55.7059 27.2859C55.7691 27.1684 55.8233 27.0148 55.8775 26.8432C55.9046 26.7528 55.9317 26.6625 55.9589 26.5631C55.9769 26.4637 55.995 26.3553 56.0221 26.2468C56.0673 26.021 56.0763 25.777 56.0763 25.506C56.0763 25.3704 56.0582 25.2349 56.0492 25.0904C56.0311 24.9458 56.004 24.8103 55.9769 24.6567C55.9408 24.5121 55.8956 24.3676 55.8504 24.214C55.7962 24.0694 55.742 23.9158 55.6697 23.7712C55.5252 23.4821 55.3535 23.193 55.1367 22.94C54.9289 22.687 54.6759 22.4612 54.4139 22.2714L54.2332 22.1449Z" fill="#222950"/>
<path d="M15.0486 26.5721C15.0757 26.6715 15.1028 26.7618 15.1299 26.8522C15.1841 27.0239 15.2383 27.1774 15.3016 27.2949C15.41 27.5388 15.4913 27.6653 15.4913 27.6653C15.4913 27.6653 15.5546 27.5208 15.6359 27.2768C15.672 27.1594 15.7262 27.0148 15.7805 26.8522C15.8256 26.6896 15.8889 26.5089 15.9612 26.3282C15.9883 26.2378 16.0244 26.1384 16.0605 26.039C16.0967 25.9397 16.1238 25.8403 16.169 25.7409C16.2141 25.6415 16.2503 25.5421 16.2954 25.4427C16.3497 25.3433 16.3858 25.244 16.431 25.1446C16.4852 25.0452 16.5304 24.9458 16.5846 24.8464C16.6478 24.7561 16.693 24.6567 16.7562 24.5663C16.8827 24.3856 17.0002 24.1959 17.1447 24.0333C17.2803 23.8616 17.4339 23.708 17.5965 23.5544C17.7591 23.4008 17.9308 23.2653 18.1025 23.1298C18.4639 22.8677 18.8343 22.6328 19.1776 22.4431C19.521 22.2534 19.8372 22.0907 20.0631 21.9823C20.298 21.8649 20.4245 21.8016 20.4245 21.8016C20.4245 21.8016 20.2889 21.7293 20.0359 21.648C19.783 21.5757 19.4035 21.5035 18.9517 21.5125C18.491 21.5125 17.9489 21.6028 17.3977 21.8377C17.2622 21.901 17.1176 21.9552 16.9821 22.0365C16.9098 22.0727 16.8466 22.1178 16.7743 22.154L16.5755 22.2895C16.3135 22.4792 16.0696 22.7051 15.8527 22.9581C15.6359 23.2111 15.4642 23.5002 15.3197 23.7893C15.2474 23.9339 15.1932 24.0875 15.139 24.232C15.0938 24.3856 15.0486 24.5302 15.0125 24.6747C14.9854 24.8193 14.9583 24.9639 14.9402 25.1084C14.9312 25.253 14.9221 25.3885 14.9131 25.524C14.9131 25.7861 14.9221 26.039 14.9673 26.2649C15.0125 26.3643 15.0305 26.4727 15.0486 26.5721Z" fill="#222950"/>
<path d="M66.9729 10.2908C66.9819 8.89041 67 7.74297 67 7.55323C67 7.43577 66.991 7.33639 66.9729 7.237C66.8916 6.70394 66.5753 6.42385 66.0874 6.34254C65.979 6.32447 65.8616 6.31543 65.7351 6.31543C65.0304 6.31543 64.3979 6.71297 64.3979 7.59841V10.3541V10.8691C64.3708 13.3266 63.7203 15.0071 61.588 15.0071C59.8804 15.0071 59.4377 13.4621 59.4377 11.872C59.4377 10.074 59.4648 9.01691 59.4828 7.64358C59.4828 6.73104 59.1124 6.3335 58.3354 6.3335C57.468 6.3335 56.9079 6.70394 56.9079 7.67068C56.9079 8.89041 56.8808 10.9865 56.8808 12.2786C56.8808 15.1788 58.1457 17.2569 61.0911 17.2569C62.1211 17.2569 62.9523 16.9045 63.5938 16.3172C64.0546 15.8926 64.3889 15.3505 64.6057 14.7632C64.6328 14.6909 64.6599 14.6096 64.687 14.5192C64.687 14.5373 64.687 14.5554 64.687 14.5644C64.687 15.0433 64.678 15.5131 64.6509 15.9829C64.6419 16.1094 64.6418 16.2359 64.6328 16.3624C64.6328 16.3624 64.6328 16.3624 64.6328 16.3714C64.6238 16.4979 64.6147 16.6244 64.6057 16.7419C63.4854 31.9026 50.8002 43.8921 35.3593 43.8921C21.9242 43.8921 10.5762 34.8119 7.11582 22.4701C8.38072 21.9551 9.44685 21.0245 10.1154 19.7867C10.4226 19.2265 10.2781 18.5127 9.74501 18.1513C9.13063 17.7357 8.30844 17.9525 7.97414 18.594C7.63985 19.2265 7.14292 19.7234 6.54661 20.0396C6.14907 20.2565 5.69732 20.392 5.2275 20.4372C4.84802 20.4733 4.46855 20.4462 4.11619 20.3739C3.38435 20.2113 2.71576 19.8138 2.2098 19.2084C1.78515 18.7025 1.03524 18.5579 0.502173 18.9464C-0.0670336 19.362 -0.166419 20.1661 0.276298 20.7082C1.36954 22.0545 2.98681 22.8495 4.69443 22.9037C5.06487 24.2771 5.53469 25.6233 6.08582 26.9424C7.68502 30.7281 9.97992 34.1253 12.8982 37.0436C15.8166 39.9619 19.2137 42.2568 22.9994 43.856C26.9206 45.5094 31.0767 46.3587 35.3684 46.3587C39.66 46.3587 43.8251 45.5184 47.7373 43.856C51.523 42.2568 54.9202 39.9619 57.8385 37.0436C60.7568 34.1253 63.0517 30.7281 64.6509 26.9424C64.7412 26.7346 64.8225 26.5358 64.9039 26.328C66.3043 22.8224 66.9639 19.0639 66.9639 15.2962V12.5586C66.9639 12.0617 66.9639 11.5557 66.9639 11.0588C66.9639 10.7968 66.9729 10.5348 66.9729 10.2908Z" fill="#222950"/>
</svg>
