<svg width="17" height="18" viewBox="0 0 17 18" fill="none" xmlns="http://www.w3.org/2000/svg">
<path d="M8.80956 11.7913C10.1276 11.7913 11.196 10.7228 11.196 9.40483C11.196 8.08683 10.1276 7.01837 8.80956 7.01837C7.49155 7.01837 6.4231 8.08683 6.4231 9.40483C6.4231 10.7228 7.49155 11.7913 8.80956 11.7913Z" stroke="#8392A5" stroke-width="1.2"/>
<path opacity="0.5" d="M10.2138 1.5708C9.92191 1.44989 9.55121 1.44989 8.80981 1.44989C8.06842 1.44989 7.69772 1.44989 7.40578 1.5708C7.21262 1.65076 7.03711 1.768 6.88929 1.91583C6.74147 2.06365 6.62422 2.23916 6.54427 2.43232C6.47108 2.60971 6.44165 2.81733 6.43051 3.11882C6.42556 3.33678 6.36528 3.5499 6.25536 3.73817C6.14543 3.92643 5.98945 4.08367 5.80208 4.19512C5.61187 4.30175 5.39769 4.35827 5.17964 4.35939C4.96159 4.3605 4.74683 4.30616 4.55555 4.20148C4.28827 4.05988 4.09496 3.98193 3.90325 3.95647C3.48508 3.90148 3.06218 4.01478 2.72752 4.27148C2.47774 4.46479 2.29159 4.78537 1.9209 5.42733C1.5502 6.06928 1.36405 6.38987 1.32348 6.70408C1.29615 6.91127 1.3099 7.12181 1.36395 7.32368C1.418 7.52556 1.51129 7.7148 1.6385 7.88061C1.75623 8.03334 1.9209 8.16142 2.17625 8.3221C2.55251 8.55836 2.79434 8.96088 2.79434 9.40476C2.79434 9.84864 2.55251 10.2512 2.17625 10.4866C1.9209 10.6481 1.75543 10.7762 1.6385 10.9289C1.51129 11.0947 1.418 11.284 1.36395 11.4858C1.3099 11.6877 1.29615 11.8983 1.32348 12.1054C1.36485 12.4189 1.5502 12.7402 1.9201 13.3822C2.29159 14.0242 2.47694 14.3447 2.72752 14.538C2.89333 14.6652 3.08257 14.7585 3.28444 14.8126C3.48632 14.8666 3.69686 14.8804 3.90405 14.8531C4.09496 14.8276 4.28827 14.7496 4.55555 14.608C4.74683 14.5034 4.96159 14.449 5.17964 14.4501C5.39769 14.4513 5.61187 14.5078 5.80208 14.6144C6.1863 14.8371 6.4146 15.2468 6.43051 15.6907C6.44165 15.993 6.47029 16.1998 6.54427 16.3772C6.62422 16.5704 6.74147 16.7459 6.88929 16.8937C7.03711 17.0415 7.21262 17.1588 7.40578 17.2387C7.69772 17.3596 8.06842 17.3596 8.80981 17.3596C9.55121 17.3596 9.92191 17.3596 10.2138 17.2387C10.407 17.1588 10.5825 17.0415 10.7303 16.8937C10.8782 16.7459 10.9954 16.5704 11.0754 16.3772C11.1485 16.1998 11.178 15.993 11.1891 15.6907C11.205 15.2468 11.4333 14.8363 11.8176 14.6144C12.0078 14.5078 12.2219 14.4513 12.44 14.4501C12.658 14.449 12.8728 14.5034 13.0641 14.608C13.3314 14.7496 13.5247 14.8276 13.7156 14.8531C13.9228 14.8804 14.1333 14.8666 14.3352 14.8126C14.5371 14.7585 14.7263 14.6652 14.8921 14.538C15.1427 14.3455 15.328 14.0242 15.6987 13.3822C16.0694 12.7402 16.2556 12.4197 16.2961 12.1054C16.3235 11.8983 16.3097 11.6877 16.2557 11.4858C16.2016 11.284 16.1083 11.0947 15.9811 10.9289C15.8634 10.7762 15.6987 10.6481 15.4434 10.4874C15.257 10.3742 15.1025 10.2154 14.9944 10.026C14.8863 9.83659 14.8281 9.62282 14.8253 9.40476C14.8253 8.96088 15.0671 8.55836 15.4434 8.3229C15.6987 8.16142 15.8642 8.03334 15.9811 7.88061C16.1083 7.7148 16.2016 7.52556 16.2557 7.32368C16.3097 7.12181 16.3235 6.91127 16.2961 6.70408C16.2548 6.39066 16.0694 6.06928 15.6995 5.42733C15.328 4.78537 15.1427 4.46479 14.8921 4.27148C14.7263 4.14428 14.5371 4.05098 14.3352 3.99693C14.1333 3.94288 13.9228 3.92913 13.7156 3.95647C13.5247 3.98193 13.3314 4.05988 13.0633 4.20148C12.8721 4.30602 12.6575 4.36028 12.4396 4.35916C12.2217 4.35805 12.0077 4.3016 11.8176 4.19512C11.6302 4.08367 11.4742 3.92643 11.3643 3.73817C11.2543 3.5499 11.1941 3.33678 11.1891 3.11882C11.178 2.81654 11.1493 2.60971 11.0754 2.43232C10.9954 2.23916 10.8782 2.06365 10.7303 1.91583C10.5825 1.768 10.407 1.65076 10.2138 1.5708Z" stroke="#8392A5" stroke-width="1.2"/>
</svg>
