<svg width="251" height="230" viewBox="0 0 251 230" fill="none" xmlns="http://www.w3.org/2000/svg">
<path opacity="0.1" d="M125.5 230C194.812 230 251 224.868 251 218.538C251 212.208 194.812 207.076 125.5 207.076C56.1883 207.076 0 212.208 0 218.538C0 224.868 56.1883 230 125.5 230Z" fill="#278DFF"/>
<path d="M197.765 102.56L194.946 102.985L198.209 123.963L201.028 123.538L197.765 102.56Z" fill="#FAB623"/>
<path d="M197.758 102.575L194.969 103.012L195.603 100.889L195.92 99.7659L196.553 100.702L197.758 102.575Z" fill="#FF8C64"/>
<path d="M200.809 122.045L197.99 122.47L198.23 124.013L201.049 123.587L200.809 122.045Z" fill="#35252F"/>
<path d="M201.068 124.795L198.596 125.17C198.469 125.17 198.406 125.107 198.406 124.983L198.215 123.922L201.068 123.485L201.258 124.546C201.258 124.671 201.194 124.795 201.068 124.795Z" fill="#EF452F"/>
<path d="M196.561 100.702L195.61 100.889L195.927 99.7659L196.561 100.702Z" fill="#35252F"/>
<path d="M197.996 122.471L200.815 122.046L200.642 120.935L197.823 121.36L197.996 122.471Z" fill="#F68407"/>
<path d="M195.8 103.948L198.208 119.49C198.208 119.615 198.335 119.677 198.462 119.677C198.588 119.677 198.652 119.552 198.652 119.428L196.243 103.885C196.243 103.761 196.117 103.698 195.99 103.698C195.863 103.698 195.8 103.823 195.8 103.948Z" fill="#F68407"/>
<path d="M196.944 103.761L199.353 119.303C199.353 119.428 199.48 119.49 199.606 119.49C199.733 119.49 199.796 119.365 199.796 119.241L197.388 103.699C197.388 103.574 197.261 103.511 197.135 103.511C197.008 103.511 196.944 103.636 196.944 103.761Z" fill="#F68407"/>
<path d="M202.867 102.63L200.015 102.643L200.067 123.865L202.919 123.852L202.867 102.63Z" fill="#4F9D5C"/>
<path d="M202.894 102.636L200.042 102.699L200.993 100.639L201.436 99.6404L201.943 100.639L202.894 102.636Z" fill="#FF8C64"/>
<path d="M202.968 122.354L200.116 122.366L200.119 123.927L202.972 123.915L202.968 122.354Z" fill="#35252F"/>
<path d="M202.779 125.107H200.307C200.18 125.107 200.117 125.045 200.117 124.92V123.859H202.969V124.92C202.969 125.045 202.906 125.107 202.779 125.107Z" fill="#EF452F"/>
<path d="M201.95 100.64H200.999L201.443 99.6411L201.95 100.64Z" fill="#35252F"/>
<path d="M200.111 122.367L202.963 122.358L202.96 121.234L200.108 121.243L200.111 122.367Z" fill="#3C7341"/>
<path d="M200.746 103.698L200.81 119.427C200.81 119.552 200.937 119.614 201 119.614C201.127 119.614 201.19 119.49 201.19 119.427L201.127 103.698C201.127 103.573 201 103.511 200.937 103.511C200.873 103.511 200.746 103.573 200.746 103.698Z" fill="#3C7341"/>
<path d="M201.892 103.698L201.955 119.428C201.955 119.553 202.082 119.615 202.146 119.615C202.272 119.615 202.336 119.49 202.336 119.428L202.272 103.698C202.272 103.574 202.146 103.511 202.082 103.511C201.955 103.511 201.892 103.574 201.892 103.698Z" fill="#3C7341"/>
<path d="M207.837 102.956L205.013 102.561L201.981 123.573L204.805 123.968L207.837 102.956Z" fill="#1B6BFE"/>
<path d="M207.842 102.949L204.99 102.575L206.194 100.702L206.828 99.7659L207.208 100.827L207.842 102.949Z" fill="#FF8C64"/>
<path d="M205.035 122.459L202.211 122.064L201.988 123.609L204.812 124.004L205.035 122.459Z" fill="#35252F"/>
<path d="M204.417 125.17L201.945 124.796C201.818 124.796 201.755 124.671 201.755 124.608L201.882 123.547L204.734 123.922L204.607 124.983C204.607 125.108 204.544 125.17 204.417 125.17Z" fill="#EF452F"/>
<path d="M207.212 100.827L206.198 100.702L206.832 99.7659L207.212 100.827Z" fill="#35252F"/>
<path d="M202.194 122.019L205.018 122.414L205.178 121.302L202.354 120.907L202.194 122.019Z" fill="#1B48CA"/>
<path d="M205.559 103.699L203.341 119.241C203.341 119.365 203.404 119.49 203.531 119.49C203.658 119.49 203.785 119.428 203.785 119.303L206.003 103.761C206.003 103.636 205.939 103.511 205.813 103.511C205.686 103.511 205.559 103.574 205.559 103.699Z" fill="#1B48CA"/>
<path d="M206.642 103.886L204.423 119.428C204.423 119.552 204.487 119.677 204.613 119.677C204.74 119.677 204.867 119.615 204.867 119.49L207.085 103.948C207.085 103.823 207.022 103.698 206.895 103.698C206.768 103.636 206.705 103.761 206.642 103.886Z" fill="#1B48CA"/>
<path d="M208.797 111.064L208.607 112.187L208.48 113.249L208.29 114.809L208.163 115.808L207.909 117.431L207.783 118.429L207.593 119.99L207.466 120.988L207.276 122.611L207.149 123.61L206.895 125.233L206.769 126.169L206.642 127.043H195.424L195.297 126.169L195.17 125.233L194.98 123.61L194.853 122.611L194.663 120.988L194.536 119.99L194.283 118.429L194.156 117.431L193.966 115.808L193.839 114.809L193.649 113.249L193.522 112.187L193.332 111.064H208.797Z" fill="#EF452F"/>
<path d="M208.605 112.187L208.478 113.248H193.648L193.521 112.187H208.605Z" fill="#AD2F24"/>
<path d="M208.287 114.809L208.16 115.808H193.963L193.836 114.809H208.287Z" fill="#AD2F24"/>
<path d="M207.904 117.43L207.777 118.429H194.278L194.151 117.43H207.904Z" fill="#AD2F24"/>
<path d="M207.596 119.989L207.469 120.988H194.666L194.54 119.989H207.596Z" fill="#AD2F24"/>
<path d="M207.277 122.611L207.15 123.61H194.981L194.855 122.611H207.277Z" fill="#AD2F24"/>
<path d="M206.895 125.232L206.768 126.168H195.296L195.169 125.232H206.895Z" fill="#AD2F24"/>
<path d="M82.6192 37.8876C92.5952 37.8876 100.682 29.9232 100.682 20.0986C100.682 10.2739 92.5952 2.30948 82.6192 2.30948C72.6433 2.30948 64.5562 10.2739 64.5562 20.0986C64.5562 29.9232 72.6433 37.8876 82.6192 37.8876Z" fill="#FFCDB3"/>
<path d="M82.6194 35.5782C92.5953 35.5782 100.682 27.6137 100.682 17.7891C100.682 7.96444 92.5953 0 82.6194 0C72.6434 0 64.5563 7.96444 64.5563 17.7891C64.5563 27.6137 72.6434 35.5782 82.6194 35.5782Z" fill="#EF452F"/>
<path d="M82.6209 32.2698C90.7334 32.2698 97.3248 25.7783 97.3248 17.7889C97.3248 9.7994 90.7334 3.30795 82.6209 3.30795C74.5083 3.30795 67.9169 9.7994 67.9169 17.7889C67.9169 25.7783 74.5083 32.2698 82.6209 32.2698Z" fill="white"/>
<path d="M67.9169 17.7889C67.9169 18.1634 67.9169 18.5379 67.9803 18.9124C68.5507 11.4847 74.952 5.55499 82.6209 5.55499C90.3531 5.55499 96.691 11.4223 97.2614 18.9124C97.2614 18.5379 97.3248 18.1634 97.3248 17.7889C97.3248 9.7994 90.7334 3.30795 82.6209 3.30795C74.5083 3.30795 67.9169 9.7994 67.9169 17.7889Z" fill="#FFDECB"/>
<path d="M82.6167 19.287C82.7435 19.287 82.8702 19.2246 82.9336 19.1621L90.1588 9.61222C90.2856 9.42497 90.2222 9.23771 90.0954 9.11288C89.9053 8.98804 89.7152 9.05046 89.5884 9.17529L82.5533 18.538L74.5042 15.0426C74.314 14.9802 74.1239 15.0426 73.9971 15.2298C73.9337 15.4171 73.9971 15.6043 74.1873 15.7292L82.4266 19.287C82.4899 19.287 82.5533 19.287 82.6167 19.287Z" fill="#35252F"/>
<path d="M190.929 115.232L175.839 165.451C175.145 167.672 173.064 169.209 170.752 169.209L109.468 169.38C106.23 169.38 103.629 166.704 103.802 163.515C103.976 160.554 106.462 158.22 109.468 158.22H132.883L151.673 106.748H184.454C188.963 106.748 192.201 111.019 190.929 115.232Z" fill="#263238"/>
<path d="M153.004 162.603C145.309 162.603 139.07 162.501 139.07 162.376C139.07 162.25 145.309 162.148 153.004 162.148C160.699 162.148 166.937 162.25 166.937 162.376C166.937 162.501 160.699 162.603 153.004 162.603Z" fill="#263238"/>
<path d="M186.42 108.343C186.305 108.286 182.142 120.3 177.112 135.217C172.082 150.078 168.093 162.149 168.209 162.206C168.324 162.263 172.487 150.249 177.517 135.331C182.547 120.47 186.536 108.343 186.42 108.343Z" fill="#263238"/>
<path d="M141.613 213.848L145.371 213.734V169.208H141.613V213.848Z" fill="#263238"/>
<path d="M160.867 213.62H126.12L141.846 208.268H145.604L160.867 213.62Z" fill="#263238"/>
<path d="M169.662 95.1894L163.938 123.487L164.979 144.725L126.301 138.405L127.804 119.843L127.862 104.47L118.38 122.576L110.98 108.513L124.509 84.4281C126.995 81.9229 129.885 80.0439 133.354 78.7913C135.031 78.165 136.823 77.8233 138.904 77.7664C143.356 79.1329 147.808 79.1329 152.317 77.7664C152.838 77.8233 153.589 77.8803 154.572 77.9942C154.63 77.9942 154.688 77.9942 154.746 77.9942C162.955 78.9621 169.199 85.6807 169.662 93.8228V95.1894Z" fill="#278DFF"/>
<path d="M154.514 77.9937C154.514 77.9937 170.413 78.1076 172.379 94.6195L172.668 106.747L158.966 106.633L154.514 77.9937Z" fill="#278DFF"/>
<path d="M116.526 99.2318C116.526 99.3457 129.014 99.4596 144.451 99.4596C159.887 99.4596 172.375 99.3457 172.375 99.2318C172.375 99.118 159.887 99.0041 144.451 99.0041C129.014 99.0041 116.526 99.118 116.526 99.2318Z" fill="#FAFAFA"/>
<path d="M116.526 101.851C116.526 101.965 129.014 102.079 144.451 102.079C159.887 102.079 172.375 101.965 172.375 101.851C172.375 101.737 159.887 101.623 144.451 101.623C129.014 101.623 116.526 101.737 116.526 101.851Z" fill="#FAFAFA"/>
<path d="M117.451 97.0682C117.451 97.1821 129.766 97.296 144.913 97.296C160.061 97.296 172.375 97.1821 172.375 97.0682C172.375 96.9543 160.061 96.8405 144.913 96.8405C129.708 96.8405 117.451 96.9543 117.451 97.0682Z" fill="#FAFAFA"/>
<path d="M128.028 122.576C128.143 122.576 128.085 115.858 127.912 107.602C127.739 99.3457 127.507 92.6271 127.334 92.6271C127.218 92.6271 127.276 99.3457 127.45 107.602C127.681 115.858 127.912 122.576 128.028 122.576Z" fill="#263238"/>
<path d="M133.467 111.701C133.467 111.701 125.951 112.214 124.622 114.207C123.292 116.143 121.211 121.722 121.962 121.779C122.772 121.836 123.292 121.381 123.292 121.381L125.373 117.794C125.373 117.794 125.026 121.267 126.298 121.324C127.512 121.381 133.641 122.577 133.641 122.577L133.467 111.701Z" fill="#FFBE9D"/>
<path d="M172.603 103.502V122.576C172.372 127.017 168.093 130.206 163.699 129.295L133.404 123.145L133.462 110.904L159.594 115.857L159.941 102.932L172.603 103.502Z" fill="#278DFF"/>
<path d="M155.317 127.758C155.317 127.758 155.201 127.701 154.912 127.644C154.623 127.587 154.218 127.473 153.756 127.359C152.715 127.131 151.212 126.847 149.304 126.448C145.431 125.651 139.996 124.569 133.521 123.26L133.694 123.43C133.694 119.616 133.694 115.345 133.694 110.847L133.463 111.075C135.197 111.417 136.99 111.758 138.782 112.1C146.413 113.523 153.582 114.89 159.595 116.029L159.826 116.085V115.858C159.653 110.164 159.48 105.438 159.364 102.079C159.306 100.428 159.248 99.175 159.19 98.264C159.19 97.8654 159.133 97.5238 159.133 97.2391C159.133 97.0113 159.075 96.8975 159.075 96.8975C159.075 96.8975 159.075 97.0113 159.075 97.2391C159.075 97.5238 159.075 97.8085 159.075 98.264C159.075 99.175 159.133 100.485 159.133 102.136C159.19 105.495 159.306 110.221 159.48 115.915L159.711 115.744C153.698 114.605 146.529 113.239 138.898 111.758C137.047 111.417 135.255 111.075 133.579 110.733L133.347 110.676V110.904C133.347 115.402 133.347 119.616 133.347 123.487V123.658L133.521 123.715C139.996 124.968 145.431 125.993 149.304 126.733C151.212 127.074 152.715 127.359 153.756 127.53C154.276 127.587 154.623 127.701 154.97 127.758C155.201 127.758 155.317 127.758 155.317 127.758Z" fill="#263238"/>
<path d="M137.923 77.9942C137.923 77.9942 137.865 78.108 137.807 78.2789C137.749 78.4497 137.633 78.7344 137.576 79.1329C137.402 79.8731 137.344 81.0119 137.691 82.3214C138.038 83.631 138.963 85.1114 140.293 86.3071C141.68 87.5597 143.646 88.3568 145.785 88.3568C147.924 88.3568 149.948 87.5028 151.22 86.1932C152.492 84.8836 153.07 83.2324 153.243 81.8659C153.417 80.4994 153.128 79.3607 152.839 78.6774C152.723 78.3358 152.55 78.0511 152.434 77.8803C152.318 77.7095 152.261 77.5956 152.261 77.6525C152.203 77.6525 152.434 78.0511 152.665 78.7343C152.896 79.4176 153.07 80.4994 152.896 81.809C152.723 83.1186 152.145 84.6559 150.873 85.9085C149.659 87.1611 147.751 87.9583 145.727 87.9583C143.704 87.9583 141.796 87.2181 140.466 86.0224C139.137 84.8836 138.269 83.5171 137.865 82.2076C137.46 80.9549 137.518 79.8162 137.576 79.1329C137.865 78.3927 137.98 77.9942 137.923 77.9942Z" fill="#263238"/>
<path d="M136.474 124.114C136.532 124.114 136.532 123.374 136.474 122.235C136.416 121.096 136.358 119.502 136.358 117.737C136.358 115.972 136.358 114.378 136.416 113.239C136.474 112.1 136.474 111.36 136.416 111.36C136.358 111.36 136.243 112.043 136.127 113.239C136.011 114.378 135.953 116.029 135.953 117.794C135.953 119.559 136.069 121.153 136.185 122.349C136.3 123.431 136.416 124.171 136.474 124.114Z" fill="#FAFAFA"/>
<path d="M138.028 124.455C138.085 124.455 138.085 123.715 138.085 122.577C138.085 121.267 138.028 119.73 138.028 118.078C138.028 116.427 138.028 114.89 138.028 113.58C138.028 112.442 138.028 111.701 137.97 111.701C137.912 111.701 137.796 112.385 137.738 113.58C137.681 114.719 137.623 116.313 137.623 118.078C137.623 119.844 137.681 121.438 137.796 122.577C137.854 123.772 137.97 124.455 138.028 124.455Z" fill="#FAFAFA"/>
<path d="M107.674 200.24L101.951 215.784L93.7987 226.773C93.2205 227.57 93.4518 228.708 94.2612 229.221C94.7237 229.506 95.3018 229.563 95.8222 229.335C99.1176 227.968 111.143 223.015 111.49 221.876C111.895 220.509 119.642 203.827 119.642 203.827L107.674 200.24Z" fill="#263238"/>
<g opacity="0.6">
<g opacity="0.6">
<path d="M94.3244 229.222L111.958 220.852L111.727 221.478C111.495 222.047 111.091 222.503 110.57 222.788C109.125 223.528 105.078 225.578 96.0011 229.335C95.4229 229.563 94.787 229.506 94.3244 229.222Z" fill="black"/>
</g>
</g>
<g opacity="0.6">
<g opacity="0.6">
<g opacity="0.6">
<path opacity="0.6" d="M110.74 214.645C110.22 214.759 109.873 215.271 109.989 215.783C110.104 216.296 110.625 216.637 111.145 216.524C111.665 216.41 112.07 215.783 111.954 215.328C111.781 214.872 111.145 214.474 110.682 214.702" fill="white"/>
</g>
</g>
</g>
<path d="M100.563 223.869C100.447 223.869 100.447 222.958 99.638 222.16C98.8864 221.363 97.9614 221.249 97.9614 221.136C97.9614 221.079 98.1927 221.022 98.5974 221.136C99.0021 221.249 99.4646 221.477 99.9271 221.933C100.332 222.388 100.563 222.901 100.621 223.299C100.679 223.641 100.621 223.869 100.563 223.869Z" fill="#263238"/>
<path d="M98.6076 225.52C98.4919 225.577 98.2029 224.836 97.5091 224.324C96.8153 223.755 96.0637 223.641 96.0637 223.527C96.0637 223.413 96.9309 223.413 97.7404 224.039C98.5498 224.609 98.7232 225.463 98.6076 225.52Z" fill="#263238"/>
<path d="M103.688 221.99C103.573 222.047 103.11 220.965 102.069 220.054C101.029 219.087 99.9303 218.745 99.9881 218.631C99.9881 218.517 101.26 218.745 102.358 219.77C103.457 220.795 103.746 221.99 103.688 221.99Z" fill="#263238"/>
<path d="M105.829 217.435C105.771 217.492 105.019 216.808 103.921 216.353C102.822 215.84 101.84 215.783 101.84 215.726C101.84 215.613 102.88 215.556 104.094 216.068C105.251 216.524 105.887 217.378 105.829 217.435Z" fill="#263238"/>
<path d="M107.619 212.936C107.561 212.993 106.868 212.139 105.654 211.741C104.439 211.285 103.399 211.57 103.399 211.456C103.399 211.399 103.63 211.285 104.093 211.228C104.555 211.171 105.191 211.171 105.827 211.399C106.463 211.627 106.983 211.968 107.272 212.31C107.561 212.652 107.619 212.879 107.619 212.936Z" fill="#263238"/>
<path d="M106.005 210.887C106.005 210.887 106.005 210.659 106.236 210.318C106.409 209.976 106.756 209.463 107.334 208.951C107.623 208.723 107.912 208.439 108.433 208.382C108.664 208.382 109.011 208.552 109.127 208.78C109.242 209.065 109.184 209.35 109.127 209.577C108.722 210.545 107.508 211.172 106.351 210.887C105.195 210.602 104.444 209.577 104.328 208.552C104.328 208.325 104.328 207.983 104.559 207.812C104.79 207.585 105.137 207.585 105.369 207.755C105.831 207.983 106.005 208.382 106.178 208.666C106.525 209.293 106.698 209.862 106.756 210.261C106.814 210.659 106.814 210.887 106.814 210.887C106.756 210.887 106.698 209.976 105.947 208.78C105.773 208.496 105.542 208.154 105.195 207.983C105.022 207.926 104.848 207.926 104.79 208.04C104.675 208.154 104.617 208.325 104.675 208.552C104.79 209.407 105.484 210.318 106.467 210.545C107.45 210.773 108.548 210.261 108.837 209.463C108.895 209.293 108.953 209.065 108.895 208.894C108.837 208.723 108.722 208.666 108.548 208.666C108.202 208.666 107.855 208.894 107.566 209.122C106.351 210.033 106.062 210.944 106.005 210.887Z" fill="#263238"/>
<path d="M83.5167 196.197L84.037 208.837C84.037 208.837 71.2022 213.563 71.0287 215.897L95.8891 215.84L95.9469 196.14L83.5167 196.197Z" fill="#263238"/>
<g opacity="0.6">
<g opacity="0.6">
<path opacity="0.6" d="M91.7168 207.755C92.1793 207.869 92.5262 208.438 92.4106 208.894C92.2949 209.349 91.7746 209.691 91.2543 209.577C90.7918 209.463 90.3292 208.837 90.5027 208.381C90.6761 207.926 91.3121 207.527 91.7746 207.812" fill="white"/>
</g>
</g>
<g opacity="0.6">
<path d="M95.8821 215.841V213.905L71.9468 214.702C71.9468 214.702 70.8483 215.158 70.9639 215.955L95.8821 215.841Z" fill="black"/>
</g>
<path d="M83.6281 208.723C83.6281 208.837 84.264 208.893 84.8422 209.292C85.4781 209.634 85.7672 210.203 85.8828 210.146C85.9985 210.146 85.825 209.406 85.0734 208.95C84.3218 208.438 83.5702 208.609 83.6281 208.723Z" fill="#263238"/>
<path d="M81.0265 209.748C81.0265 209.862 81.5468 210.089 81.9515 210.545C82.3562 211.057 82.4719 211.57 82.5875 211.57C82.7031 211.57 82.7609 210.887 82.2406 210.26C81.7203 209.691 81.0265 209.634 81.0265 209.748Z" fill="#263238"/>
<path d="M79.522 212.823C79.6376 212.823 79.8111 212.254 79.4642 211.57C79.1751 210.887 78.597 210.659 78.5392 210.773C78.4813 210.887 78.8282 211.229 79.1173 211.741C79.3486 212.31 79.4064 212.823 79.522 212.823Z" fill="#263238"/>
<path d="M83.8004 205.819C83.8582 205.933 84.4363 205.762 85.0723 205.819C85.7661 205.876 86.2864 206.047 86.3442 205.99C86.402 205.876 85.8817 205.477 85.0723 205.42C84.3207 205.306 83.7425 205.705 83.8004 205.819Z" fill="#263238"/>
<g opacity="0.3">
<path opacity="0.3" d="M83.6324 198.702L83.6902 200.923L95.9469 200.809V198.759L83.6324 198.702Z" fill="black"/>
</g>
<path d="M83.7394 203.257C83.7394 203.314 84.2019 203.371 85.0113 203.257C85.416 203.2 85.8207 203.086 86.341 202.859C86.5723 202.745 86.8036 202.631 87.0348 202.46C87.1505 202.403 87.2661 202.289 87.3817 202.175C87.4974 202.062 87.613 201.72 87.4395 201.549C87.3239 201.378 87.0926 201.264 86.9192 201.264C86.7457 201.264 86.5723 201.321 86.4567 201.321C86.1676 201.378 85.9364 201.492 85.7051 201.606C85.2426 201.834 84.8379 202.118 84.5488 202.346C83.9707 202.859 83.7972 203.314 83.7972 203.371C83.855 203.428 84.1441 203.029 84.7222 202.574C85.0113 202.346 85.416 202.118 85.8207 201.948C86.052 201.834 86.2832 201.777 86.5145 201.72C86.8036 201.663 86.977 201.663 87.0926 201.777C87.0926 201.834 87.0926 201.834 87.0926 201.891C87.0348 201.948 86.9192 202.005 86.8036 202.118C86.5723 202.232 86.3411 202.403 86.1676 202.517C85.7629 202.745 85.3004 202.859 84.9535 202.973C84.2597 203.143 83.7394 203.2 83.7394 203.257Z" fill="#263238"/>
<path d="M83.9167 203.428C83.9746 203.428 84.2058 203.03 84.2636 202.232C84.2636 201.834 84.2636 201.378 84.0902 200.866C84.0324 200.638 83.9167 200.353 83.7433 200.126C83.5699 199.898 83.3964 199.556 82.9339 199.499C82.7026 199.499 82.4714 199.67 82.4136 199.841C82.3557 200.012 82.2979 200.126 82.2979 200.297C82.2401 200.581 82.2401 200.866 82.2979 201.151C82.3557 201.663 82.587 202.119 82.8183 202.403C83.2808 203.03 83.8011 203.2 83.8011 203.143C83.8589 203.086 83.3964 202.859 83.0495 202.232C82.8761 201.948 82.7026 201.549 82.6448 201.094C82.6448 200.866 82.6448 200.638 82.6448 200.41C82.7026 200.126 82.7604 199.955 82.8761 199.955C82.9917 199.955 83.223 200.126 83.3386 200.353C83.4542 200.581 83.5699 200.809 83.6277 201.037C83.8011 201.492 83.8589 201.891 83.8589 202.232C83.9746 202.973 83.8589 203.428 83.9167 203.428Z" fill="#263238"/>
<path d="M95.9402 135.673C110.625 137.153 130.109 139.146 130.109 139.146L127.449 162.718C127.449 162.718 98.8309 155.259 99.0044 155.886C99.2356 156.512 97.6746 206.048 97.6746 206.048H80.4459L80.099 149.964C80.0412 141.48 87.3836 134.819 95.9402 135.673Z" fill="black"/>
<path d="M165.323 145.181V152.469C165.323 157.423 159.541 162.718 154.511 162.718H150.58C147.516 162.718 142.659 160.497 140.173 158.732L138.67 157.65L120.69 212.424C120.69 212.424 100.166 208.78 100.166 208.154C100.166 207.528 114.099 163.287 120.516 142.733C123.118 134.363 132.253 129.466 140.694 132.313C140.983 132.427 141.272 132.541 141.561 132.655C150.753 136.356 165.323 145.181 165.323 145.181Z" fill="black"/>
<path d="M100.219 208.211C100.219 208.211 100.277 208.154 100.335 208.04C100.393 207.869 100.451 207.698 100.566 207.47C100.74 206.958 101.029 206.218 101.376 205.193C102.069 203.2 102.994 200.353 104.151 196.766C106.463 189.649 109.527 179.742 112.881 168.81C114.557 163.344 116.118 158.105 117.564 153.38C118.257 150.988 118.951 148.768 119.587 146.661C119.934 145.579 120.223 144.611 120.512 143.586C120.801 142.618 121.09 141.65 121.437 140.796C122.131 139.088 123.229 137.779 124.328 136.754C125.426 135.729 126.467 134.989 127.392 134.419C128.259 133.85 128.953 133.394 129.473 133.11C129.705 132.996 129.878 132.882 129.994 132.768C130.109 132.711 130.167 132.654 130.167 132.654C130.167 132.654 130.109 132.654 129.994 132.768C129.82 132.825 129.647 132.939 129.416 133.053C128.895 133.338 128.202 133.736 127.334 134.305C126.409 134.875 125.369 135.615 124.212 136.583C123.114 137.608 121.958 138.917 121.206 140.683C120.801 141.537 120.512 142.505 120.223 143.472C119.934 144.44 119.587 145.465 119.298 146.49C118.662 148.597 117.968 150.874 117.217 153.209C115.771 157.935 114.153 163.173 112.476 168.639C109.123 179.571 106.116 189.421 103.919 196.652C102.821 200.182 101.896 203.086 101.26 205.136C100.971 206.104 100.682 206.901 100.508 207.413C100.451 207.641 100.393 207.869 100.335 208.04C100.219 208.097 100.219 208.211 100.219 208.211Z" fill="#455A64"/>
<path d="M95.8818 148.825C95.7661 148.882 96.749 150.362 97.5584 152.298C98.3678 154.234 98.7147 155.942 98.8881 155.942C99.0038 155.942 98.8303 154.177 97.9631 152.127C97.0959 150.077 95.9396 148.711 95.8818 148.825Z" fill="#455A64"/>
<path d="M92.594 151.102C92.5361 151.216 94.0393 151.842 95.5425 153.038C97.1035 154.234 98.0863 155.486 98.202 155.429C98.3176 155.372 97.4504 153.949 95.8316 152.696C94.2128 151.444 92.594 150.988 92.594 151.102Z" fill="#455A64"/>
<path d="M120.574 212.481C120.689 212.537 125.546 197.848 131.385 179.741C137.282 161.635 141.907 146.888 141.792 146.888C141.676 146.831 136.82 161.521 130.98 179.627C125.141 197.734 120.458 212.424 120.574 212.481Z" fill="#455A64"/>
<path d="M142.599 127.018L83.8014 127.587L72.8745 97.0688L115.599 97.3535L125.544 124.797L142.599 125.025V127.018Z" fill="#263238"/>
<path d="M97.6817 114.948C96.3726 114.948 95.3113 113.902 95.3113 112.613C95.3113 111.324 96.3726 110.279 97.6817 110.279C98.9909 110.279 100.052 111.324 100.052 112.613C100.052 113.902 98.9909 114.948 97.6817 114.948Z" fill="white"/>
<path d="M147.397 44.458C146.819 42.4083 145.316 41.4403 143.292 40.7571C141.269 40.0738 138.898 40.4724 137.222 41.725C136.065 42.5791 135.198 43.8317 133.869 44.2872C131.672 45.0274 129.07 43.4331 126.931 44.4011C125.659 44.9705 124.965 46.5078 125.254 47.8173C125.601 49.1269 126.931 50.1518 128.318 50.0949C126.873 50.6073 126.41 52.6571 127.278 53.9097C128.145 55.1623 129.879 55.6747 131.382 55.3901C132.886 55.1054 134.215 54.1944 135.372 53.1695C136.528 52.1446 137.569 51.0059 138.783 50.0949C139.997 49.1838 141.5 48.5006 143.061 48.5575C145.142 48.6714 146.935 50.2087 147.86 52.0307C148.785 53.8527 149.016 55.9594 149.132 58.0092C149.247 60.0589 149.305 62.1656 149.883 64.1015C149.941 64.3293 150.057 64.614 150.288 64.6709C150.635 64.7848 150.924 64.4431 151.097 64.1015C153.005 60.6283 154.219 56.8135 154.624 52.8848C154.855 50.6073 154.797 48.4437 153.525 46.5647C152.196 44.6288 148.958 43.2054 147.397 44.458Z" fill="black"/>
<path d="M151.446 53.9667L152.487 77.0265C152.661 80.9552 152.14 86.7628 145.838 86.7628C140.346 86.3643 138.727 81.2968 138.612 77.6528C138.554 75.9447 138.438 74.4643 138.438 74.2935C138.438 74.2935 132.483 74.0088 131.732 68.2011C131.385 65.4112 131.153 59.6036 131.038 54.3084C130.864 48.6715 135.201 43.8318 140.866 43.2624L141.445 43.2055C147.631 42.9208 151.273 47.8744 151.446 53.9667Z" fill="#FFAA8C" fill-opacity="0.63"/>
<path d="M138.379 74.1797C138.379 74.1797 142.137 74.0658 145.837 71.2189C145.837 71.2189 144.45 75.6031 138.553 75.6601L138.379 74.1797Z" fill="#EB996E"/>
<path d="M133.179 58.0093C133.237 58.4648 133.642 58.8064 134.104 58.7495C134.567 58.7495 134.914 58.3509 134.914 57.8954C134.856 57.4399 134.451 57.0983 133.989 57.1552C133.468 57.2121 133.122 57.5538 133.179 58.0093Z" fill="#263238"/>
<path d="M132.598 57.0411C132.714 57.155 133.292 56.5856 134.217 56.5287C135.142 56.4148 135.836 56.8134 135.893 56.6995C135.951 56.6426 135.836 56.4718 135.489 56.301C135.2 56.1301 134.679 55.9593 134.101 56.0163C133.523 56.0732 133.061 56.3579 132.829 56.5856C132.598 56.7565 132.54 56.9842 132.598 57.0411Z" fill="#263238"/>
<path d="M142.079 57.3826C142.137 57.8381 142.542 58.1797 143.005 58.1228C143.467 58.1228 143.814 57.7242 143.814 57.2687C143.756 56.8132 143.351 56.4716 142.889 56.5285C142.369 56.5855 142.022 56.9271 142.079 57.3826Z" fill="#263238"/>
<path d="M141.499 56.2443C141.614 56.3582 142.193 55.7888 143.118 55.7319C144.043 55.618 144.736 56.0165 144.794 55.9027C144.852 55.8457 144.736 55.6749 144.39 55.5041C144.1 55.3333 143.58 55.1625 143.002 55.2194C142.424 55.2764 141.961 55.561 141.73 55.7888C141.499 56.0165 141.441 56.1874 141.499 56.2443Z" fill="#263238"/>
<path d="M138.96 63.1904C138.96 63.1335 138.382 63.0765 137.457 63.0765C137.226 63.0765 136.995 63.0765 136.937 62.9057C136.879 62.7349 136.937 62.5072 136.995 62.2225C137.168 61.6531 137.341 61.0268 137.515 60.4005C138.209 57.8383 138.671 55.7316 138.556 55.7316C138.44 55.7316 137.804 57.7813 137.11 60.3435C136.937 60.9698 136.763 61.5962 136.648 62.1655C136.59 62.4502 136.474 62.7349 136.648 63.0765C136.705 63.2473 136.937 63.3612 137.052 63.3612C137.226 63.4182 137.341 63.3612 137.457 63.3612C138.382 63.3043 138.96 63.2473 138.96 63.1904Z" fill="#263238"/>
<path d="M141.676 63.5323C141.503 63.5323 141.619 64.5003 140.867 65.2974C140.115 66.0945 139.017 66.0945 139.075 66.2084C139.075 66.2654 139.306 66.3792 139.769 66.3223C140.231 66.2654 140.809 66.0945 141.272 65.639C141.734 65.1835 141.908 64.5572 141.908 64.1587C141.85 63.7601 141.734 63.5323 141.676 63.5323Z" fill="#263238"/>
<path d="M140.866 52.771C140.982 52.9988 141.849 52.771 142.947 52.8279C144.046 52.8279 144.913 53.0557 145.029 52.8279C145.086 52.7141 144.913 52.4863 144.508 52.3155C144.161 52.1447 143.583 51.9739 142.947 51.9739C142.311 51.9739 141.733 52.1447 141.386 52.3155C141.039 52.4863 140.866 52.6571 140.866 52.771Z" fill="#263238"/>
<path d="M132.654 54.4224C132.827 54.5932 133.463 54.3086 134.157 54.2516C134.908 54.1377 135.544 54.2516 135.66 54.0239C135.718 53.91 135.602 53.7392 135.313 53.5684C135.024 53.3976 134.562 53.2837 134.041 53.3406C133.521 53.3976 133.116 53.6253 132.885 53.8531C132.654 54.0808 132.596 54.3086 132.654 54.4224Z" fill="#263238"/>
<path d="M151.392 58.2941C151.507 58.2371 155.323 56.6998 155.612 60.6854C155.901 64.6711 151.797 64.1586 151.797 64.0448C151.797 63.874 151.392 58.2941 151.392 58.2941Z" fill="#FFBE9D"/>
<path d="M152.885 62.3937C152.885 62.3937 152.943 62.4507 153.059 62.5076C153.174 62.5646 153.405 62.5646 153.579 62.5076C153.984 62.3368 154.33 61.6536 154.273 60.9134C154.273 60.5717 154.157 60.2301 153.984 59.9454C153.81 59.6607 153.637 59.4899 153.405 59.433C153.174 59.3761 153.059 59.5469 153.001 59.6607C152.943 59.7746 153.001 59.8316 152.943 59.8885C152.943 59.8885 152.827 59.8316 152.885 59.6607C152.885 59.6038 152.943 59.4899 153.001 59.3761C153.116 59.3191 153.232 59.2622 153.405 59.2622C153.695 59.2622 154.041 59.5469 154.215 59.8316C154.388 60.1162 154.504 60.5148 154.562 60.9134C154.62 61.7105 154.215 62.5076 153.695 62.6784C153.405 62.7923 153.174 62.6784 153.059 62.6215C152.943 62.5076 152.885 62.4507 152.885 62.3937Z" fill="#EB996E"/>
<path d="M129.65 53.2265C132.31 53.6251 135.143 52.6571 136.993 50.7782C138.322 49.4117 139.19 47.5897 140.924 46.8495C142.08 46.337 143.468 46.4509 144.624 46.9633C145.78 47.4758 146.763 48.2729 147.688 49.1839C146.879 52.2586 147.977 55.4471 149.076 58.4078C149.191 58.7495 149.365 59.0911 149.654 59.2619C150.174 59.5466 150.868 59.205 151.215 58.7495C151.793 58.0093 151.967 56.9844 152.024 56.0734C152.198 53.9097 152.024 51.6892 151.273 49.6394C150.579 47.5897 149.307 45.7107 147.573 44.3442C145.376 42.693 142.543 42.0098 139.768 42.3514C136.993 42.693 134.449 43.9456 132.483 45.8246C131.558 46.6787 130.691 47.7035 130.344 48.8992" fill="black"/>
<path d="M209.728 182.286C207.646 181.261 205.218 181.09 202.963 181.489C201.749 181.717 200.477 182.058 199.61 182.969C198.801 183.88 198.627 185.475 199.552 186.272C200.13 186.727 200.94 186.784 201.691 186.784C203.484 186.784 205.449 186.443 206.895 187.524C207.704 188.151 208.282 189.119 209.207 189.46C210.19 189.745 211.231 189.176 211.751 188.321C212.271 187.467 212.271 186.386 212.04 185.475C212.098 185.418 211.809 183.311 209.728 182.286Z" fill="#3A974C"/>
<path d="M214.465 173.29C213.194 175.055 210.765 174.486 209.609 173.404C208.453 172.322 207.99 170.728 207.528 169.247C206.545 165.831 205.504 162.244 206.256 158.771C206.487 157.746 206.892 156.721 207.643 155.924C208.395 155.127 209.551 154.671 210.592 154.956C211.806 155.297 212.615 156.493 213.136 157.575C214.754 160.934 215.622 164.578 215.622 168.279C215.68 170.044 215.448 171.866 214.465 173.29Z" fill="#3A974C"/>
<path d="M217.931 175.852C216.543 174.257 216.312 171.923 216.89 169.93C217.526 167.937 218.856 166.229 220.475 164.806C222.325 163.154 224.522 161.902 226.892 161.105C227.817 160.763 228.8 160.535 229.783 160.649C230.766 160.763 231.749 161.219 232.211 162.073C232.905 163.325 232.211 164.863 231.517 166.115C230.303 168.336 228.858 170.442 227.297 172.435C226.025 174.03 224.58 175.624 222.672 176.307C220.764 177.047 218.74 176.933 217.757 175.624" fill="#3A974C"/>
<path d="M214.583 200.05C214.583 200.05 214.525 199.765 214.467 199.253C214.409 198.683 214.351 197.943 214.236 197.032C214.12 196.121 214.004 194.982 213.715 193.787C213.484 192.591 213.022 191.282 212.501 189.972C211.981 188.662 211.287 187.467 210.536 186.556C209.784 185.588 208.859 184.905 208.05 184.506C207.24 184.107 206.489 183.937 205.968 183.88C205.448 183.823 205.159 183.766 205.159 183.766C205.159 183.766 205.448 183.766 205.968 183.766C206.489 183.823 207.298 183.937 208.165 184.335C209.032 184.734 210.015 185.417 210.825 186.385C211.634 187.353 212.328 188.549 212.848 189.915C213.369 191.225 213.773 192.534 214.004 193.787C214.236 194.982 214.351 196.121 214.467 197.032C214.525 197.943 214.583 198.74 214.583 199.253C214.583 199.765 214.583 200.05 214.583 200.05Z" fill="#263238"/>
<path d="M214.409 198.342C214.409 198.342 214.409 198.228 214.409 197.944C214.409 197.659 214.409 197.317 214.409 196.862C214.409 195.951 214.409 194.584 214.351 192.933C214.294 189.631 214.004 186.044 213.426 181.033C212.906 176.307 212.212 170.785 211.461 167.197C211.287 166.4 211.114 165.66 210.998 165.034C210.825 164.407 210.709 163.838 210.593 163.383C210.478 162.984 210.42 162.642 210.362 162.358C210.304 162.13 210.304 162.016 210.304 162.016C210.304 162.016 210.362 162.13 210.42 162.358C210.478 162.642 210.593 162.984 210.709 163.383C210.825 163.838 210.998 164.351 211.172 165.034C211.345 165.66 211.518 166.4 211.692 167.197C212.443 170.443 213.195 174.998 213.773 180.008C214.351 185.076 214.583 189.631 214.583 192.99C214.583 194.641 214.583 196.008 214.525 196.919C214.525 197.374 214.467 197.716 214.467 198.001C214.409 198.228 214.409 198.342 214.409 198.342Z" fill="#263238"/>
<path d="M214.404 189.46C214.404 189.46 214.404 189.061 214.404 188.321C214.462 187.581 214.52 186.556 214.751 185.303C214.982 184.05 215.271 182.513 215.734 180.919C215.965 180.179 216.428 178.357 217.584 175.681C219.145 172.037 221.226 169.076 223.076 167.254C223.481 166.741 224.001 166.4 224.348 166.058C224.522 165.887 224.695 165.717 224.926 165.603C225.1 165.489 225.273 165.375 225.447 165.261C226.025 164.862 226.372 164.635 226.43 164.635C226.487 164.692 225.1 165.546 223.308 167.368C221.515 169.247 219.492 172.15 217.931 175.738C217.064 177.673 216.486 179.438 216.023 180.919C215.56 182.513 215.214 184.05 214.982 185.303C214.751 186.556 214.635 187.581 214.52 188.321C214.462 189.118 214.404 189.46 214.404 189.46Z" fill="#263238"/>
<path d="M223.074 205.117L222.149 217.245H206.308L205.383 205.117H223.074Z" fill="#263238"/>
<path d="M203.479 200.335H224.582V205.117H203.479V200.335Z" fill="#263238"/>
<path d="M222.319 219.534L223.248 217.256H205.325L206.363 219.534H222.319Z" fill="#263238"/>
<path d="M205.738 209.046C205.738 209.046 205.738 209.103 205.796 209.16C205.853 209.217 205.911 209.331 206.027 209.445C206.258 209.73 206.547 210.128 206.952 210.584L207.01 210.641C207.588 209.843 208.339 208.819 209.265 207.566H209.149C209.843 208.534 210.594 209.559 211.404 210.697L211.461 210.811L211.519 210.697C212.329 209.73 213.254 208.705 214.179 207.566H214.005C214.063 207.623 214.121 207.68 214.179 207.737C214.988 208.762 215.798 209.73 216.549 210.641L216.607 210.754L216.665 210.641C217.474 209.502 218.226 208.477 218.92 207.509H218.804C219.902 208.762 220.827 209.786 221.579 210.584L221.637 210.641L221.695 210.584C222.042 209.957 222.331 209.502 222.562 209.16C222.678 208.989 222.735 208.875 222.793 208.762C222.851 208.648 222.851 208.648 222.851 208.648C222.851 208.648 222.793 208.705 222.735 208.762C222.678 208.875 222.562 208.989 222.504 209.103C222.273 209.445 221.984 209.9 221.579 210.527H221.637C220.943 209.729 220.018 208.648 218.92 207.395L218.862 207.338L218.804 207.395C218.11 208.363 217.359 209.388 216.549 210.47H216.723C215.971 209.559 215.162 208.534 214.352 207.566C214.294 207.509 214.237 207.452 214.179 207.395L214.121 207.281L214.063 207.395C213.138 208.477 212.271 209.559 211.404 210.527H211.577C210.768 209.388 210.016 208.363 209.322 207.452L209.265 207.338L209.207 207.452C208.339 208.705 207.53 209.786 207.01 210.584H207.068C206.663 210.128 206.316 209.73 206.085 209.445C205.969 209.331 205.911 209.217 205.853 209.16C205.738 209.103 205.738 209.046 205.738 209.046Z" fill="black"/>
<path d="M214.064 205.121C209.179 205.121 205.218 205.069 205.218 205.006C205.218 204.942 209.179 204.89 214.064 204.89C218.949 204.89 222.91 204.942 222.91 205.006C222.91 205.069 218.949 205.121 214.064 205.121Z" fill="#455A64"/>
<path d="M49.982 71.788L60.9668 117.11H57.9027L47.0335 71.788H49.982Z" fill="#263238"/>
<path d="M54.1999 101.623C54.3734 102.477 49.17 127.188 49.17 127.188H51.6561L55.5875 107.602L54.1999 101.623Z" fill="#263238"/>
<path d="M17.5476 159.871H69.1182V213.734H17.5476V159.871Z" fill="#263238"/>
<path d="M14.9459 167.728H17.4898V170.233H14.9459V167.728Z" fill="#263238"/>
<path d="M14.9459 175.642H17.4898V178.148H14.9459V175.642Z" fill="#263238"/>
<path d="M14.9459 183.613H17.4898V186.119H14.9459V183.613Z" fill="#263238"/>
<path d="M14.9459 191.528H17.4898V194.033H14.9459V191.528Z" fill="#263238"/>
<path d="M14.8892 184.297C14.8892 184.297 14.6002 184.24 14.1376 184.126C13.6173 184.069 12.9235 183.898 11.9407 183.898C11.0157 183.898 9.85937 184.069 8.8187 184.695C8.29837 185.037 7.77803 185.492 7.48895 186.119C7.14207 186.745 7.02645 187.428 7.08426 188.169C7.14208 188.852 7.37332 189.535 7.72021 190.104C8.0671 190.674 8.52963 191.129 9.04996 191.471C10.0328 192.211 11.1313 192.496 12.0563 192.667C12.9813 192.78 13.7329 192.78 14.2533 192.724C14.7736 192.667 15.0627 192.61 15.0627 192.61C15.0627 192.61 14.7736 192.61 14.2533 192.61C13.7329 192.61 12.9814 192.61 12.1141 192.439C11.2469 192.268 10.2062 191.926 9.2234 191.243C8.29836 190.56 7.43115 189.421 7.37334 188.112C7.31552 187.428 7.43114 186.802 7.72021 186.233C8.00928 185.663 8.4718 185.265 8.93432 184.923C9.91717 184.297 11.0157 184.126 11.9407 184.069C12.8657 184.069 13.5595 184.126 14.0798 184.183C14.6002 184.297 14.8892 184.354 14.8892 184.297Z" fill="#263238"/>
<path d="M15.5251 176.44C15.5251 176.44 15.4672 176.383 15.2938 176.269C15.1204 176.212 14.8891 176.098 14.5422 175.984C13.8484 175.757 12.8078 175.586 11.5937 175.814C11.3046 175.871 10.9577 175.984 10.6686 176.155C10.3796 176.326 10.0905 176.668 9.97487 177.066C9.74361 177.806 10.0327 178.661 10.553 179.344C10.8421 179.685 11.189 179.97 11.5937 180.141C11.9984 180.312 12.5765 180.312 12.9812 180.084C13.3859 179.856 13.7906 179.401 13.7906 178.888C13.7906 178.376 13.4437 177.863 12.9812 177.636C12.5187 177.408 11.9984 177.408 11.478 177.465C11.0155 177.579 10.553 177.806 10.2061 178.091C9.45453 178.661 8.99201 179.515 8.9342 180.369C8.81857 181.223 9.16546 182.02 9.57016 182.646C10.0327 183.273 10.6108 183.671 11.1312 183.956C12.2875 184.525 13.3281 184.639 14.0219 184.696C14.3688 184.696 14.6578 184.753 14.8313 184.753C15.0047 184.753 15.1204 184.753 15.1204 184.753C15.1204 184.753 14.7157 184.696 14.0219 184.639C13.3281 184.525 12.3453 184.411 11.2468 183.842C10.7264 183.557 10.1483 183.159 9.7436 182.589C9.33889 182.02 9.04982 181.28 9.16545 180.483C9.28108 179.685 9.68578 178.945 10.3796 178.433C10.7264 178.148 11.1311 177.977 11.5359 177.863C11.9406 177.75 12.4031 177.806 12.8078 177.977C13.2125 178.148 13.4437 178.547 13.4437 178.945C13.4437 179.344 13.1547 179.685 12.8078 179.913C12.4609 180.141 11.9984 180.141 11.6515 179.97C11.2468 179.856 10.9577 179.572 10.7265 179.287C10.2061 178.717 9.97486 177.92 10.1483 177.237C10.3217 176.554 10.9577 176.212 11.5937 176.098C12.8078 175.814 13.7906 175.984 14.4844 176.155C15.1782 176.269 15.5251 176.497 15.5251 176.44Z" fill="#263238"/>
<path d="M15.4666 168.696C15.4666 168.696 15.2931 168.639 14.8884 168.582C14.5415 168.582 13.9634 168.582 13.3274 168.81C12.6915 169.038 11.9977 169.436 11.4196 170.062C10.8414 170.746 10.4367 171.657 10.4367 172.682C10.3789 173.706 10.7258 174.674 11.2461 175.358C11.7664 176.041 12.4602 176.496 13.0962 176.724C13.7321 176.952 14.2525 177.009 14.5994 177.009C14.9463 177.009 15.1775 176.952 15.1775 176.952C15.1775 176.895 14.3103 177.066 13.154 176.496C12.5759 176.212 11.9399 175.813 11.4774 175.13C10.957 174.447 10.668 173.593 10.7258 172.625C10.7836 171.657 11.1305 170.803 11.6508 170.176C12.1711 169.55 12.8649 169.151 13.4431 168.924C14.6572 168.582 15.4666 168.753 15.4666 168.696Z" fill="#263238"/>
<path d="M53.7971 131.288C53.7971 131.288 53.5659 131.63 53.3346 132.313C53.1034 132.996 52.8721 134.021 52.6409 135.388C52.4096 136.754 52.2362 138.406 52.0627 140.284C51.8893 142.22 51.7158 144.384 51.4267 146.832C51.3689 147.459 51.2533 148.028 51.1377 148.654C51.022 149.281 50.8486 149.907 50.5595 150.476C50.2705 151.046 49.808 151.558 49.2876 152.014C48.7673 152.469 48.2469 152.925 47.611 153.266C46.3969 154.006 44.9515 154.519 43.4483 154.69C41.9452 154.861 40.3264 154.633 38.881 153.893C37.4356 153.209 36.2793 151.843 35.9325 150.249C35.759 149.451 35.8168 148.597 36.1059 147.8C36.395 147.003 36.9731 146.377 37.7247 145.921C38.4185 145.466 39.2857 145.181 40.1529 145.124C41.0201 145.067 41.9452 145.295 42.6389 145.864C42.9858 146.149 43.2749 146.434 43.4483 146.832C43.6218 147.231 43.6796 147.629 43.6218 148.085C43.4483 148.939 42.8124 149.679 42.003 150.078C41.1936 150.533 40.2685 150.704 39.3435 150.818C38.4185 150.932 37.4934 150.989 36.6262 150.989C34.7762 151.046 32.9839 150.875 31.2495 150.704C27.7228 150.306 24.3117 149.736 21.0741 149.736C17.8365 149.679 14.6567 150.135 11.9972 151.444C10.6675 152.071 9.5112 152.925 8.64398 153.95C7.71895 154.974 7.1408 156.17 6.90955 157.366C6.38921 159.814 6.96737 162.092 7.8924 163.8C8.87525 165.508 10.205 166.647 11.3035 167.387C12.4597 168.127 13.4426 168.583 14.1364 168.81C14.8301 169.038 15.177 169.152 15.177 169.152C15.177 169.152 15.0614 169.095 14.888 169.038C14.7145 168.981 14.4254 168.867 14.1364 168.753C13.4426 168.469 12.4598 168.07 11.3613 167.273C10.2628 166.476 8.93305 165.337 8.00802 163.686C7.08298 162.035 6.56267 159.757 7.083 157.423C7.37207 156.284 7.8924 155.088 8.81744 154.12C9.68465 153.152 10.8409 152.298 12.1129 151.729C14.7145 150.476 17.8365 150.021 21.0741 150.078C24.3117 150.135 27.7228 150.704 31.2495 151.046C33.0417 151.217 34.834 151.387 36.684 151.33C37.6091 151.33 38.5341 151.273 39.4591 151.16C40.3842 151.046 41.367 150.875 42.1764 150.419C43.0436 149.964 43.7374 149.167 43.9109 148.199C44.0265 147.743 43.9109 147.231 43.7374 146.775C43.5062 146.32 43.2171 145.978 42.8124 145.694C42.0608 145.124 41.0779 144.896 40.1529 144.896C39.2279 144.953 38.3028 145.238 37.5513 145.751C36.7997 146.263 36.1637 146.946 35.8168 147.8C35.4699 148.654 35.4699 149.565 35.6434 150.362C36.0481 152.071 37.2622 153.437 38.7654 154.177C40.2685 154.917 41.9452 155.145 43.4483 154.974C45.0093 154.804 46.4547 154.291 47.7266 153.551C48.3626 153.152 48.9407 152.754 49.4032 152.241C49.9236 151.729 50.3861 151.273 50.733 150.647C51.0221 150.021 51.1955 149.395 51.3111 148.768C51.4268 148.142 51.5424 147.516 51.6002 146.946C51.8893 144.555 52.0627 142.334 52.2361 140.398C52.4096 138.462 52.5831 136.811 52.7565 135.502C52.9299 134.135 53.1612 133.11 53.3924 132.427C53.5081 132.085 53.5659 131.801 53.6815 131.687C53.7393 131.345 53.7971 131.288 53.7971 131.288Z" fill="#263238"/>
<path d="M20.44 211.457C20.44 211.457 20.44 211.4 20.44 211.229C20.44 211.058 20.44 210.83 20.44 210.546C20.44 209.919 20.44 209.065 20.44 207.87C20.44 205.535 20.44 202.119 20.4978 197.792C20.4978 189.137 20.5556 176.782 20.5556 161.978L20.44 162.092C34.0842 162.092 50.0411 162.092 67.0964 162.092L66.923 161.921C66.923 180.141 66.923 197.108 66.923 211.4L67.0386 211.286C53.0475 211.286 41.4267 211.343 33.2748 211.343C29.17 211.343 25.9902 211.343 23.7932 211.4C22.6947 211.4 21.8853 211.4 21.3072 211.4C20.729 211.457 20.44 211.457 20.44 211.457C20.44 211.457 20.729 211.457 21.3072 211.457C21.8853 211.457 22.6947 211.457 23.7932 211.457C25.9902 211.457 29.17 211.457 33.217 211.514C41.3689 211.514 53.0475 211.57 67.0964 211.57H67.2121V211.457C67.2121 197.165 67.2121 180.141 67.2121 161.978V161.807H67.0386C50.0411 161.807 34.0842 161.807 20.3822 161.807H20.2665V161.921C20.2665 176.725 20.3243 189.137 20.3243 197.792C20.3243 202.119 20.3243 205.535 20.3822 207.87C20.3822 209.008 20.3822 209.919 20.3822 210.489C20.3822 210.773 20.3822 211.001 20.3822 211.172C20.44 211.4 20.44 211.457 20.44 211.457Z" fill="#263238"/>
<path d="M33.7898 168.298C33.6621 168.298 33.5585 168.196 33.5585 168.07C33.5585 167.944 33.6621 167.843 33.7898 167.843C33.9175 167.843 34.0211 167.944 34.0211 168.07C34.0211 168.196 33.9175 168.298 33.7898 168.298Z" fill="#263238"/>
<path d="M32.521 168.298C32.3933 168.298 32.2897 168.196 32.2897 168.07C32.2897 167.944 32.3933 167.842 32.521 167.842C32.6487 167.842 32.7523 167.944 32.7523 168.07C32.7523 168.196 32.6487 168.298 32.521 168.298Z" fill="#263238"/>
<path d="M31.1931 168.298C31.0653 168.298 30.9618 168.196 30.9618 168.07C30.9618 167.944 31.0653 167.842 31.1931 167.842C31.3208 167.842 31.4243 167.944 31.4243 168.07C31.4243 168.196 31.3208 168.298 31.1931 168.298Z" fill="#263238"/>
<path d="M29.825 168.335C29.6972 168.335 29.5937 168.233 29.5937 168.107C29.5937 167.981 29.6972 167.879 29.825 167.879C29.9527 167.879 30.0562 167.981 30.0562 168.107C30.0562 168.233 29.9527 168.335 29.825 168.335Z" fill="#263238"/>
<path d="M28.4976 168.335C28.3699 168.335 28.2663 168.233 28.2663 168.107C28.2663 167.981 28.3699 167.879 28.4976 167.879C28.6253 167.879 28.7289 167.981 28.7289 168.107C28.7289 168.233 28.6253 168.335 28.4976 168.335Z" fill="#263238"/>
<path d="M27.1996 168.298C27.0718 168.298 26.9683 168.196 26.9683 168.07C26.9683 167.944 27.0718 167.842 27.1996 167.842C27.3273 167.842 27.4308 167.944 27.4308 168.07C27.4308 168.196 27.3273 168.298 27.1996 168.298Z" fill="#263238"/>
<path d="M25.9309 168.298C25.8032 168.298 25.6997 168.196 25.6997 168.07C25.6997 167.944 25.8032 167.842 25.9309 167.842C26.0586 167.842 26.1622 167.944 26.1622 168.07C26.1622 168.196 26.0586 168.298 25.9309 168.298Z" fill="#263238"/>
<path d="M26.5098 169.209C26.3821 169.209 26.2785 169.107 26.2785 168.981C26.2785 168.855 26.3821 168.753 26.5098 168.753C26.6375 168.753 26.7411 168.855 26.7411 168.981C26.7411 169.107 26.6375 169.209 26.5098 169.209Z" fill="#263238"/>
<path d="M27.8018 169.243C27.674 169.243 27.5705 169.141 27.5705 169.015C27.5705 168.889 27.674 168.787 27.8018 168.787C27.9295 168.787 28.033 168.889 28.033 169.015C28.033 169.141 27.9295 169.243 27.8018 169.243Z" fill="#263238"/>
<path d="M29.1875 169.243C29.0598 169.243 28.9562 169.141 28.9562 169.015C28.9562 168.889 29.0598 168.787 29.1875 168.787C29.3152 168.787 29.4187 168.889 29.4187 169.015C29.4187 169.141 29.3152 169.243 29.1875 169.243Z" fill="#263238"/>
<path d="M30.5206 169.243C30.3929 169.243 30.2894 169.141 30.2894 169.015C30.2894 168.889 30.3929 168.787 30.5206 168.787C30.6484 168.787 30.7519 168.889 30.7519 169.015C30.7519 169.141 30.6484 169.243 30.5206 169.243Z" fill="#263238"/>
<path d="M31.8839 169.209C31.7562 169.209 31.6526 169.107 31.6526 168.981C31.6526 168.855 31.7562 168.753 31.8839 168.753C32.0116 168.753 32.1151 168.855 32.1151 168.981C32.1151 169.107 32.0116 169.209 31.8839 169.209Z" fill="#263238"/>
<path d="M33.2696 169.209C33.1419 169.209 33.0383 169.107 33.0383 168.981C33.0383 168.855 33.1419 168.753 33.2696 168.753C33.3973 168.753 33.5009 168.855 33.5009 168.981C33.5009 169.107 33.3973 169.209 33.2696 169.209Z" fill="#263238"/>
<path d="M33.7902 170.176C33.6624 170.176 33.5589 170.074 33.5589 169.949C33.5589 169.823 33.6624 169.721 33.7902 169.721C33.9179 169.721 34.0214 169.823 34.0214 169.949C34.0214 170.074 33.9179 170.176 33.7902 170.176Z" fill="#263238"/>
<path d="M32.521 170.176C32.3933 170.176 32.2897 170.074 32.2897 169.949C32.2897 169.823 32.3933 169.721 32.521 169.721C32.6487 169.721 32.7523 169.823 32.7523 169.949C32.7523 170.074 32.6487 170.176 32.521 170.176Z" fill="#263238"/>
<path d="M31.1931 170.176C31.0653 170.176 30.9618 170.074 30.9618 169.949C30.9618 169.823 31.0653 169.721 31.1931 169.721C31.3208 169.721 31.4243 169.823 31.4243 169.949C31.4243 170.074 31.3208 170.176 31.1931 170.176Z" fill="#263238"/>
<path d="M29.825 170.211C29.6972 170.211 29.5937 170.109 29.5937 169.983C29.5937 169.858 29.6972 169.756 29.825 169.756C29.9527 169.756 30.0562 169.858 30.0562 169.983C30.0562 170.109 29.9527 170.211 29.825 170.211Z" fill="#263238"/>
<path d="M28.4976 170.211C28.3699 170.211 28.2663 170.109 28.2663 169.983C28.2663 169.858 28.3699 169.756 28.4976 169.756C28.6253 169.756 28.7289 169.858 28.7289 169.983C28.7289 170.109 28.6253 170.211 28.4976 170.211Z" fill="#263238"/>
<path d="M27.1996 170.176C27.0718 170.176 26.9683 170.074 26.9683 169.949C26.9683 169.823 27.0718 169.721 27.1996 169.721C27.3273 169.721 27.4308 169.823 27.4308 169.949C27.4308 170.074 27.3273 170.176 27.1996 170.176Z" fill="#263238"/>
<path d="M25.9309 170.176C25.8032 170.176 25.6997 170.074 25.6997 169.949C25.6997 169.823 25.8032 169.721 25.9309 169.721C26.0586 169.721 26.1622 169.823 26.1622 169.949C26.1622 170.074 26.0586 170.176 25.9309 170.176Z" fill="#263238"/>
<path d="M26.5098 171.03C26.3821 171.03 26.2785 170.928 26.2785 170.802C26.2785 170.677 26.3821 170.575 26.5098 170.575C26.6375 170.575 26.7411 170.677 26.7411 170.802C26.7411 170.928 26.6375 171.03 26.5098 171.03Z" fill="#263238"/>
<path d="M27.8018 171.065C27.674 171.065 27.5705 170.963 27.5705 170.837C27.5705 170.712 27.674 170.61 27.8018 170.61C27.9295 170.61 28.033 170.712 28.033 170.837C28.033 170.963 27.9295 171.065 27.8018 171.065Z" fill="#263238"/>
<path d="M29.1875 171.065C29.0598 171.065 28.9562 170.963 28.9562 170.837C28.9562 170.712 29.0598 170.61 29.1875 170.61C29.3152 170.61 29.4187 170.712 29.4187 170.837C29.4187 170.963 29.3152 171.065 29.1875 171.065Z" fill="#263238"/>
<path d="M30.5206 171.065C30.3929 171.065 30.2894 170.963 30.2894 170.837C30.2894 170.712 30.3929 170.61 30.5206 170.61C30.6484 170.61 30.7519 170.712 30.7519 170.837C30.7519 170.963 30.6484 171.065 30.5206 171.065Z" fill="#263238"/>
<path d="M31.8839 171.03C31.7562 171.03 31.6526 170.928 31.6526 170.802C31.6526 170.677 31.7562 170.575 31.8839 170.575C32.0116 170.575 32.1151 170.677 32.1151 170.802C32.1151 170.928 32.0116 171.03 31.8839 171.03Z" fill="#263238"/>
<path d="M33.2696 171.03C33.1419 171.03 33.0383 170.928 33.0383 170.802C33.0383 170.677 33.1419 170.575 33.2696 170.575C33.3973 170.575 33.5009 170.677 33.5009 170.802C33.5009 170.928 33.3973 171.03 33.2696 171.03Z" fill="#263238"/>
<path d="M33.7902 172.055C33.6624 172.055 33.5589 171.954 33.5589 171.828C33.5589 171.702 33.6624 171.6 33.7902 171.6C33.9179 171.6 34.0214 171.702 34.0214 171.828C34.0214 171.954 33.9179 172.055 33.7902 172.055Z" fill="#263238"/>
<path d="M32.521 172.055C32.3933 172.055 32.2897 171.954 32.2897 171.828C32.2897 171.702 32.3933 171.6 32.521 171.6C32.6487 171.6 32.7523 171.702 32.7523 171.828C32.7523 171.954 32.6487 172.055 32.521 172.055Z" fill="#263238"/>
<path d="M31.1931 172.055C31.0653 172.055 30.9618 171.954 30.9618 171.828C30.9618 171.702 31.0653 171.6 31.1931 171.6C31.3208 171.6 31.4243 171.702 31.4243 171.828C31.4243 171.954 31.3208 172.055 31.1931 172.055Z" fill="#263238"/>
<path d="M29.825 172.09C29.6972 172.09 29.5937 171.988 29.5937 171.863C29.5937 171.737 29.6972 171.635 29.825 171.635C29.9527 171.635 30.0562 171.737 30.0562 171.863C30.0562 171.988 29.9527 172.09 29.825 172.09Z" fill="#263238"/>
<path d="M28.4976 172.09C28.3699 172.09 28.2663 171.988 28.2663 171.863C28.2663 171.737 28.3699 171.635 28.4976 171.635C28.6253 171.635 28.7289 171.737 28.7289 171.863C28.7289 171.988 28.6253 172.09 28.4976 172.09Z" fill="#263238"/>
<path d="M27.1996 172.055C27.0718 172.055 26.9683 171.954 26.9683 171.828C26.9683 171.702 27.0718 171.6 27.1996 171.6C27.3273 171.6 27.4308 171.702 27.4308 171.828C27.4308 171.954 27.3273 172.055 27.1996 172.055Z" fill="#263238"/>
<path d="M25.9309 172.055C25.8032 172.055 25.6997 171.954 25.6997 171.828C25.6997 171.702 25.8032 171.6 25.9309 171.6C26.0586 171.6 26.1622 171.702 26.1622 171.828C26.1622 171.954 26.0586 172.055 25.9309 172.055Z" fill="#263238"/>
<path d="M26.5098 172.909C26.3821 172.909 26.2785 172.807 26.2785 172.682C26.2785 172.556 26.3821 172.454 26.5098 172.454C26.6375 172.454 26.7411 172.556 26.7411 172.682C26.7411 172.807 26.6375 172.909 26.5098 172.909Z" fill="#263238"/>
<path d="M27.8018 172.944C27.674 172.944 27.5705 172.842 27.5705 172.717C27.5705 172.591 27.674 172.489 27.8018 172.489C27.9295 172.489 28.033 172.591 28.033 172.717C28.033 172.842 27.9295 172.944 27.8018 172.944Z" fill="#263238"/>
<path d="M29.1875 172.944C29.0598 172.944 28.9562 172.842 28.9562 172.717C28.9562 172.591 29.0598 172.489 29.1875 172.489C29.3152 172.489 29.4187 172.591 29.4187 172.717C29.4187 172.842 29.3152 172.944 29.1875 172.944Z" fill="#263238"/>
<path d="M30.5206 172.944C30.3929 172.944 30.2894 172.842 30.2894 172.717C30.2894 172.591 30.3929 172.489 30.5206 172.489C30.6484 172.489 30.7519 172.591 30.7519 172.717C30.7519 172.842 30.6484 172.944 30.5206 172.944Z" fill="#263238"/>
<path d="M31.8839 172.909C31.7562 172.909 31.6526 172.807 31.6526 172.682C31.6526 172.556 31.7562 172.454 31.8839 172.454C32.0116 172.454 32.1151 172.556 32.1151 172.682C32.1151 172.807 32.0116 172.909 31.8839 172.909Z" fill="#263238"/>
<path d="M33.2696 172.909C33.1419 172.909 33.0383 172.807 33.0383 172.682C33.0383 172.556 33.1419 172.454 33.2696 172.454C33.3973 172.454 33.5009 172.556 33.5009 172.682C33.5009 172.807 33.3973 172.909 33.2696 172.909Z" fill="#263238"/>
<path d="M221.81 127.188V132.655H191.226V213.734H188.393V132.655L60.5649 133.281V213.734H57.7898V133.11L38.075 133.281V126.733L221.81 127.188Z" fill="#FF8F6B"/>
<path d="M202.21 131.573L190.127 140.113L191.225 141.138L203.366 132.085L202.21 131.573Z" fill="#FF8F6B"/>
<path d="M46.397 132.37L60.446 142.22L59.4053 143.188L45.2985 132.883L46.397 132.37Z" fill="#FF8F6B"/>
<path d="M145.662 125.196H177.286V127.473H145.662V125.196Z" fill="#263238"/>
</svg>
