<svg width="101" height="37" viewBox="0 0 101 37" fill="none" xmlns="http://www.w3.org/2000/svg">
<g clip-path="url(#clip0_2100_14449)">
<path d="M53.5876 19.5578C53.2621 19.5578 52.9499 19.6868 52.7198 19.9166C52.4896 20.1463 52.3603 20.4579 52.3603 20.7828V21.3882C51.8305 20.7154 51.1515 20.1744 50.3767 19.8079C49.6019 19.4414 48.7524 19.2594 47.8952 19.2761C46.9977 19.2619 46.1074 19.4378 45.2831 19.7921C44.4587 20.1465 43.719 20.6713 43.1127 21.3319C41.8721 22.6884 41.2026 24.4697 41.2435 26.3059C41.2237 27.2619 41.3975 28.212 41.7544 29.0993C42.1114 29.9867 42.6441 30.7929 43.3208 31.4699C43.9035 32.0584 44.5986 32.5243 45.365 32.84C46.1313 33.1556 46.9533 33.3145 47.7823 33.3073H47.8317C49.7574 33.3073 51.2881 32.6034 52.3779 31.2376V31.8113C52.3779 32.1365 52.5071 32.4485 52.7372 32.6788C52.9673 32.9091 53.2794 33.0389 53.6053 33.0399C53.9314 33.0389 54.244 32.9092 54.4746 32.679C54.7052 32.4488 54.8352 32.1368 54.8362 31.8113V20.7687C54.8339 20.6073 54.7997 20.448 54.7357 20.2999C54.6718 20.1517 54.5791 20.0175 54.4632 19.9051C54.3473 19.7927 54.2103 19.7041 54.06 19.6445C53.9098 19.5849 53.7493 19.5554 53.5876 19.5578ZM52.3603 26.3199C52.3975 27.5383 51.9543 28.7226 51.1259 29.6183C50.7422 30.0375 50.2737 30.3707 49.7515 30.5958C49.2292 30.8209 48.6651 30.9329 48.0962 30.9243C47.5164 30.9358 46.9406 30.8241 46.4073 30.5965C45.874 30.3689 45.3954 30.0307 45.0031 29.6042C44.1711 28.7155 43.7227 27.5358 43.7546 26.3199C43.7231 25.0999 44.1712 23.916 45.0031 23.0216C45.3931 22.5913 45.871 22.2496 46.4046 22.0194C46.9382 21.7893 47.5151 21.6761 48.0962 21.6875C48.6693 21.6765 49.2379 21.7898 49.7627 22.0195C50.2876 22.2492 50.7563 22.5899 51.1364 23.018C51.9538 23.9211 52.392 25.1033 52.3603 26.3199Z" fill="white"/>
<path d="M65.1137 19.2938C64.0694 19.2581 63.0345 19.5011 62.1158 19.9978C61.465 20.3512 60.8908 20.8297 60.4264 21.4059V20.8039C60.4264 20.479 60.2971 20.1674 60.0669 19.9377C59.8367 19.708 59.5246 19.5789 59.199 19.5789C58.8735 19.5789 58.5613 19.708 58.3312 19.9377C58.101 20.1674 57.9717 20.479 57.9717 20.8039V35.5286C57.9717 35.8535 58.101 36.165 58.3312 36.3948C58.5613 36.6245 58.8735 36.7536 59.199 36.7536C59.5246 36.7536 59.8367 36.6245 60.0669 36.3948C60.2971 36.165 60.4264 35.8535 60.4264 35.5286V31.2164C60.9114 31.7873 61.4971 32.2645 62.1546 32.6245C63.2559 33.2233 64.52 33.4551 65.7626 33.2863C67.3213 33.086 68.7476 32.3082 69.7586 31.1073C70.8928 29.7778 71.5 28.0798 71.4656 26.334C71.503 24.5748 70.8932 22.8628 69.7515 21.522C69.1791 20.8458 68.4701 20.2978 67.6709 19.9138C66.8717 19.5298 66.0003 19.3186 65.1137 19.2938ZM68.9545 26.334C68.9877 27.5466 68.549 28.725 67.7306 29.6218C67.3482 30.0461 66.8787 30.3833 66.3541 30.6104C65.8296 30.8376 65.2622 30.9494 64.6904 30.9383C64.1187 30.9494 63.5513 30.8376 63.0267 30.6104C62.5022 30.3833 62.0327 30.0461 61.6502 29.6218C60.8318 28.725 60.3932 27.5466 60.4264 26.334C60.3947 25.1174 60.8329 23.9352 61.6502 23.0321C62.0304 22.604 62.499 22.2633 63.0239 22.0336C63.5488 21.8039 64.1174 21.6906 64.6904 21.7015C65.2635 21.6906 65.8321 21.8039 66.3569 22.0336C66.8818 22.2633 67.3505 22.604 67.7306 23.0321C68.5408 23.9333 68.9749 25.1096 68.9439 26.3199L68.9545 26.334Z" fill="white"/>
<path d="M85.7037 21.508C85.13 20.8343 84.4204 20.2889 83.6212 19.9074C82.8221 19.5259 81.9514 19.3168 81.0658 19.2938C80.0216 19.2581 78.9867 19.5011 78.0679 19.9978C77.4172 20.3512 76.843 20.8297 76.3786 21.4059V20.8039C76.3786 20.479 76.2492 20.1674 76.0191 19.9377C75.7889 19.708 75.4767 19.5789 75.1512 19.5789C74.8257 19.5789 74.5135 19.708 74.2833 19.9377C74.0531 20.1674 73.9238 20.479 73.9238 20.8039V35.5286C73.9238 35.8535 74.0531 36.165 74.2833 36.3948C74.5135 36.6245 74.8257 36.7536 75.1512 36.7536C75.4767 36.7536 75.7889 36.6245 76.0191 36.3948C76.2492 36.165 76.3786 35.8535 76.3786 35.5286V31.2164C76.8648 31.7874 77.4517 32.2646 78.1103 32.6245C79.2101 33.2237 80.4733 33.4556 81.7148 33.2863C83.2738 33.087 84.7005 32.309 85.7107 31.1073C86.845 29.7778 87.4522 28.0798 87.4178 26.334C87.4587 24.57 86.8486 22.8525 85.7037 21.508ZM84.9066 26.3199C84.9398 27.5326 84.5012 28.7109 83.6828 29.6078C83.3003 30.032 82.8309 30.3692 82.3063 30.5963C81.7817 30.8235 81.2143 30.9354 80.6426 30.9243C80.0709 30.9351 79.5036 30.8232 78.979 30.596C78.4545 30.3689 77.985 30.0319 77.6024 29.6078C76.784 28.7109 76.3454 27.5326 76.3786 26.3199C76.3463 25.1026 76.786 23.9198 77.6059 23.0181C77.9855 22.5902 78.4536 22.2497 78.9779 22.0199C79.5021 21.7902 80.0701 21.6768 80.6426 21.6875C81.2156 21.6765 81.7842 21.7898 82.3091 22.0195C82.834 22.2492 83.3027 22.5899 83.6828 23.0181C84.5002 23.9211 84.9383 25.1033 84.9066 26.3199Z" fill="white"/>
<path d="M100.81 20.0929C100.703 19.9287 100.558 19.7937 100.386 19.7002C100.214 19.6067 100.021 19.5578 99.8256 19.5578C99.5971 19.558 99.3736 19.6247 99.1826 19.7497C98.9915 19.8748 98.8411 20.0527 98.7499 20.2618L95.4769 27.7949L94.7715 29.474L94.0661 27.8688L90.4511 20.2266C90.3557 20.0267 90.2059 19.8576 90.0188 19.7387C89.8317 19.6198 89.6148 19.5559 89.393 19.5543C89.1937 19.554 88.9977 19.6047 88.8236 19.7014C88.6495 19.7981 88.5032 19.9377 88.3984 20.1069C88.2931 20.2753 88.2323 20.4677 88.2218 20.6659C88.2113 20.8642 88.2515 21.0619 88.3385 21.2404L93.5935 31.9873L93.3643 32.4907C93.1065 33.1631 92.6817 33.759 92.1299 34.2226C91.6099 34.5356 91.0081 34.6863 90.4017 34.6556H88.4831C88.1716 34.6556 87.8728 34.7791 87.6526 34.9989C87.4323 35.2188 87.3086 35.5169 87.3086 35.8278C87.3095 36.1384 87.4336 36.436 87.6536 36.6556C87.8737 36.8753 88.1719 36.9991 88.4831 37H90.4017C90.8293 37.0045 91.2566 36.9715 91.6784 36.9014C92.1063 36.8138 92.5227 36.678 92.9199 36.4966C93.4488 36.2567 93.913 35.8948 94.2742 35.4406C94.7274 34.8736 95.1001 34.247 95.3817 33.5784L100.912 21.2087C100.99 21.0292 101.022 20.8328 101.004 20.6377C100.987 20.4426 100.92 20.2551 100.81 20.0929Z" fill="white"/>
<path d="M10.3267 29.0551C10.3258 30.0681 9.92244 31.0394 9.2051 31.756C8.48775 32.4726 7.51497 32.8761 6.50003 32.8779C5.48754 32.8724 4.51837 32.4673 3.80407 31.751C3.08978 31.0348 2.68836 30.0657 2.68745 29.0551V6.4876C2.68931 5.47461 3.09356 4.5037 3.81157 3.78774C4.52957 3.07178 5.50272 2.66921 6.51767 2.66828C7.53199 2.67014 8.50425 3.07312 9.22149 3.78898C9.93873 4.50484 10.3425 5.47522 10.3444 6.4876V14.2952C11.2169 14.669 12.1094 14.9945 13.0178 15.2703V6.46998C13.0159 4.74994 12.3305 3.10088 11.1119 1.88463C9.89326 0.668374 8.24102 -0.0157146 6.51767 -0.0175781C4.79431 -0.0157146 3.14207 0.668374 1.92347 1.88463C0.704874 3.10088 0.0194453 4.74994 0.0175781 6.46998V29.0375C0.0194453 30.7576 0.704874 32.4066 1.92347 33.6229C3.14207 34.8391 4.79431 35.5232 6.51767 35.5251C8.24102 35.5232 9.89326 34.8391 11.1119 33.6229C12.3305 32.4066 13.0159 30.7576 13.0178 29.0375V25.0527C12.1254 24.8697 11.2331 24.6479 10.3444 24.3804L10.3267 29.0551Z" fill="white"/>
<path d="M32.2287 0C30.505 0.00186162 28.8524 0.685881 27.6333 1.90203C26.4141 3.11819 25.7279 4.76724 25.7251 6.4876V15.2879C26.634 15.0137 27.5266 14.6881 28.3985 14.3128V6.50522C28.4004 5.49223 28.8046 4.52132 29.5226 3.80536C30.2406 3.0894 31.2138 2.68678 32.2287 2.68585C33.2437 2.68678 34.2168 3.0894 34.9348 3.80536C35.6528 4.52132 36.0571 5.49223 36.0589 6.50522V29.0727C36.058 30.0863 35.6542 31.0581 34.9361 31.7749C34.218 32.4916 33.2443 32.8946 32.2287 32.8956C31.2132 32.8946 30.2395 32.4916 29.5214 31.7749C28.8033 31.0581 28.3994 30.0863 28.3985 29.0727V24.4156C27.5062 24.6831 26.6139 24.9049 25.7251 25.0879V29.0727C25.727 30.7934 26.4129 32.443 27.6322 33.6593C28.8516 34.8757 30.5047 35.5593 32.2287 35.5603C33.9521 35.5584 35.6043 34.8743 36.8229 33.6581C38.0415 32.4418 38.7269 30.7928 38.7288 29.0727V6.50522C38.7302 5.65204 38.5631 4.80691 38.2372 4.01819C37.9112 3.22947 37.4328 2.51259 36.8291 1.90848C36.2255 1.30437 35.5085 0.824883 34.7192 0.497423C33.9298 0.169964 33.0835 0.000923731 32.2287 0Z" fill="white"/>
<path d="M33.4209 17.1747C33.3426 17.018 33.2341 16.8783 33.1016 16.7636C32.9691 16.6489 32.8152 16.5614 32.6487 16.5061C32.4823 16.4508 32.3066 16.4289 32.1316 16.4415C31.9567 16.4542 31.7859 16.5012 31.6292 16.5798C23.3762 20.7019 15.3525 20.7019 7.09604 16.5798C6.77934 16.422 6.41285 16.396 6.07697 16.5075C5.74108 16.619 5.46323 16.859 5.30438 17.1747C5.22573 17.3313 5.17885 17.5019 5.16643 17.6767C5.15401 17.8515 5.17629 18.027 5.232 18.1931C5.28771 18.3593 5.37574 18.5128 5.49106 18.6449C5.60637 18.777 5.74668 18.885 5.90395 18.9629C10.369 21.1946 14.8658 22.3105 19.3626 22.3105C23.8594 22.3105 28.3598 21.1946 32.8248 18.9629C32.9818 18.8847 33.1218 18.7765 33.2367 18.6442C33.3517 18.512 33.4393 18.3584 33.4947 18.1923C33.5501 18.0261 33.5721 17.8508 33.5594 17.6761C33.5467 17.5015 33.4996 17.3311 33.4209 17.1747Z" fill="white"/>
</g>
<defs>
<clipPath id="clip0_2100_14449">
<rect width="101" height="37" fill="white"/>
</clipPath>
</defs>
</svg>
