<svg width="20" height="19" viewBox="0 0 20 19" fill="none" xmlns="http://www.w3.org/2000/svg">
<g id="Group">
<path id="Vector" d="M5.12004 2.20432C5.56966 1.90393 6.04669 1.64676 6.54476 1.43624C7.74747 0.927897 8.34839 0.673298 9.11647 1.1825C9.88284 1.69084 9.88284 2.52321 9.88284 4.18882V5.9033C9.88284 7.52004 9.88284 8.32756 10.3852 8.8299C10.8875 9.33224 11.695 9.33224 13.3118 9.33224H15.0263C16.691 9.33224 17.5242 9.33224 18.0326 10.0995C18.5409 10.8667 18.2872 11.4676 17.7788 12.6712C17.0103 14.4878 15.639 15.9838 13.896 16.9072C12.153 17.8305 10.145 18.1246 8.21037 17.74C6.54739 17.4093 5.01981 16.5929 3.82083 15.3941C2.62186 14.1952 1.80534 12.6677 1.47454 11.0047C1.14375 9.34172 1.31354 7.61801 1.96243 6.05155C2.61133 4.48509 3.71019 3.14624 5.12004 2.20432Z" stroke="#007AFF" stroke-width="1.5"/>
<path id="Vector_2" opacity="0.5" d="M12.0259 1.02992C13.5084 1.41424 14.8612 2.18795 15.9441 3.27089C17.0271 4.35384 17.8008 5.70665 18.1851 7.18916" stroke="#007AFF" stroke-width="1.5" stroke-linecap="round"/>
</g>
</svg>
