<svg width="55" height="54" viewBox="0 0 55 54" fill="none" xmlns="http://www.w3.org/2000/svg">
<rect width="55" height="54" rx="16" fill="#F8EDE8"/>
<path opacity="0.4" d="M33.0294 15H22.9726C18.6042 15 16 17.6042 16 21.9726V32.0174C16 36.3977 18.6042 39.002 22.9726 39.002H33.0174C37.3857 39.002 39.99 36.3977 39.99 32.0294V21.9726C40.002 17.6042 37.3977 15 33.0294 15Z" fill="#F08F5F"/>
<path d="M33.3052 21.97V32.0268C33.3052 32.7949 32.6811 33.4189 31.913 33.4189C31.133 33.4189 30.5089 32.7949 30.5089 32.0268V21.97C30.5089 21.2019 31.133 20.5779 31.913 20.5779C32.6811 20.5779 33.3052 21.2019 33.3052 21.97ZM25.4925 28.1169V32.0292C25.4925 32.7973 24.8685 33.4213 24.0884 33.4213C23.3203 33.4213 22.6963 32.7973 22.6963 32.0292V28.1169C22.6963 27.3488 23.3203 26.7248 24.0884 26.7248C24.8685 26.7248 25.4925 27.3488 25.4925 28.1169Z" fill="#F08F5F"/>
</svg>
