<svg width="44" height="44" viewBox="0 0 44 44" fill="none" xmlns="http://www.w3.org/2000/svg">
<circle opacity="0.5" cx="22.0443" cy="21.7747" r="21.7747" fill="#D8D593"/>
<path d="M20.4109 20.8675C22.4152 20.8675 24.04 19.2427 24.04 17.2384C24.04 15.2341 22.4152 13.6093 20.4109 13.6093C18.4066 13.6093 16.7817 15.2341 16.7817 17.2384C16.7817 19.2427 18.4066 20.8675 20.4109 20.8675Z" stroke="#434222" stroke-width="1.5" stroke-linecap="round" stroke-linejoin="round"/>
<path d="M14.9673 29.9403V28.1258C14.9673 27.1633 15.3496 26.2402 16.0302 25.5596C16.7108 24.879 17.6339 24.4966 18.5964 24.4966H22.2255C23.188 24.4966 24.1111 24.879 24.7917 25.5596C25.4723 26.2402 25.8547 27.1633 25.8547 28.1258V29.9403" stroke="#434222" stroke-width="1.5" stroke-linecap="round" stroke-linejoin="round"/>
<path d="M26.7617 20.8675L28.5763 22.682L32.2054 19.0529" stroke="#434222" stroke-width="1.5" stroke-linecap="round" stroke-linejoin="round"/>
</svg>
