<svg width="39" height="39" viewBox="0 0 39 39" fill="none" xmlns="http://www.w3.org/2000/svg">
<rect x="0.758789" y="0.491455" width="38.0172" height="38.0172" rx="19.0086" fill="url(#paint0_linear_296_920)"/>
<path d="M23.0305 12.0568C23.9762 12.0596 24.8824 12.4366 25.5511 13.1053C26.2198 13.774 26.5968 14.6802 26.5996 15.6259V22.7634C26.5968 23.7091 26.2198 24.6153 25.5511 25.284C24.8824 25.9528 23.9762 26.3297 23.0305 26.3325H15.893C14.9473 26.3297 14.0411 25.9528 13.3724 25.284C12.7037 24.6153 12.3267 23.7091 12.3239 22.7634V15.6259C12.3267 14.6802 12.7037 13.774 13.3724 13.1053C14.0411 12.4366 14.9473 12.0596 15.893 12.0568H23.0305ZM23.0305 10.6294H15.893C13.1449 10.6294 10.8965 12.8778 10.8965 15.6259V22.7634C10.8965 25.5116 13.1449 27.76 15.893 27.76H23.0305C25.7786 27.76 28.027 25.5116 28.027 22.7634V15.6259C28.027 12.8778 25.7786 10.6294 23.0305 10.6294Z" fill="white"/>
<path d="M24.1007 15.6262C23.889 15.6262 23.682 15.5634 23.5059 15.4457C23.3298 15.3281 23.1926 15.1609 23.1116 14.9652C23.0305 14.7696 23.0093 14.5543 23.0506 14.3466C23.092 14.139 23.1939 13.9482 23.3437 13.7985C23.4934 13.6487 23.6842 13.5467 23.8919 13.5054C24.0995 13.4641 24.3148 13.4853 24.5105 13.5664C24.7061 13.6474 24.8733 13.7846 24.9909 13.9607C25.1086 14.1368 25.1714 14.3438 25.1714 14.5555C25.1717 14.6962 25.1442 14.8356 25.0905 14.9656C25.0368 15.0956 24.958 15.2138 24.8585 15.3133C24.759 15.4128 24.6408 15.4916 24.5108 15.5453C24.3808 15.599 24.2414 15.6265 24.1007 15.6262ZM19.4613 16.3397C20.026 16.3397 20.5781 16.5072 21.0476 16.8209C21.5172 17.1346 21.8831 17.5806 22.0992 18.1023C22.3153 18.624 22.3719 19.1981 22.2617 19.752C22.1515 20.3058 21.8796 20.8146 21.4803 21.2139C21.081 21.6132 20.5722 21.8851 20.0184 21.9953C19.4645 22.1055 18.8904 22.0489 18.3687 21.8328C17.847 21.6167 17.4011 21.2507 17.0873 20.7812C16.7736 20.3117 16.6061 19.7596 16.6061 19.1949C16.6069 18.4379 16.908 17.7122 17.4433 17.1769C17.9786 16.6416 18.7043 16.3405 19.4613 16.3397ZM19.4613 14.9123C18.6143 14.9123 17.7863 15.1635 17.082 15.634C16.3778 16.1046 15.8289 16.7735 15.5047 17.556C15.1806 18.3386 15.0958 19.1997 15.261 20.0304C15.4262 20.8612 15.8341 21.6243 16.4331 22.2232C17.032 22.8221 17.7951 23.23 18.6258 23.3953C19.4566 23.5605 20.3177 23.4757 21.1002 23.1516C21.8828 22.8274 22.5516 22.2785 23.0222 21.5742C23.4928 20.87 23.744 20.042 23.744 19.1949C23.744 18.0591 23.2928 16.9698 22.4896 16.1666C21.6865 15.3635 20.5972 14.9123 19.4613 14.9123Z" fill="white"/>
<defs>
<linearGradient id="paint0_linear_296_920" x1="19.7674" y1="0.491455" x2="19.7674" y2="38.5087" gradientUnits="userSpaceOnUse">
<stop stop-color="#4A1FEF"/>
<stop offset="0.494792" stop-color="#FB0F4C"/>
<stop offset="1" stop-color="#FAC51A"/>
</linearGradient>
</defs>
</svg>
