<svg width="55" height="54" viewBox="0 0 55 54" fill="none" xmlns="http://www.w3.org/2000/svg">
<rect width="55" height="54" rx="16" fill="#F7F2ED"/>
<path opacity="0.4" d="M38 22.4219V34C38 37.5625 35.8744 38.75 33.25 38.75H23.75C21.1256 38.75 19 37.5625 19 34V22.4219C19 18.5625 21.1256 17.6719 23.75 17.6719C23.75 18.4081 24.0469 19.0731 24.5337 19.56C25.0206 20.0469 25.6856 20.3438 26.4219 20.3438H30.5781C32.0506 20.3438 33.25 19.1444 33.25 17.6719C35.8744 17.6719 38 18.5625 38 22.4219Z" fill="#EA9F26"/>
<path d="M33.25 17.6719C33.25 19.1444 32.0506 20.3438 30.5781 20.3438H26.4219C25.6856 20.3438 25.0206 20.0469 24.5337 19.56C24.0469 19.0731 23.75 18.4081 23.75 17.6719C23.75 16.1994 24.9494 15 26.4219 15H30.5781C31.3144 15 31.9794 15.2969 32.4663 15.7838C32.9531 16.2706 33.25 16.9356 33.25 17.6719ZM28.5 28.9531H23.75C23.2631 28.9531 22.8594 28.5494 22.8594 28.0625C22.8594 27.5756 23.2631 27.1719 23.75 27.1719H28.5C28.9869 27.1719 29.3906 27.5756 29.3906 28.0625C29.3906 28.5494 28.9869 28.9531 28.5 28.9531ZM33.25 33.7031H23.75C23.2631 33.7031 22.8594 33.2994 22.8594 32.8125C22.8594 32.3256 23.2631 31.9219 23.75 31.9219H33.25C33.7369 31.9219 34.1406 32.3256 34.1406 32.8125C34.1406 33.2994 33.7369 33.7031 33.25 33.7031Z" fill="#EA9F26"/>
</svg>
