<svg width="35" height="37" viewBox="0 0 35 37" fill="none" xmlns="http://www.w3.org/2000/svg">
<g id="Group 1161">
<g id="Group">
<g id="Group_2">
<path id="Vector" d="M20.8439 34.9851V29.4611C20.844 28.925 20.727 28.3954 20.5013 27.9091C20.2755 27.4229 19.9464 26.9918 19.5368 26.6458C19.1273 26.2999 18.6472 26.0475 18.13 25.9063C17.6128 25.7651 17.0711 25.7384 16.5426 25.8282C14.7325 26.1228 13.4786 27.8242 13.4786 29.6581V34.9851C13.4786 35.4734 13.2846 35.9418 12.9393 36.2871C12.594 36.6324 12.1256 36.8264 11.6373 36.8264H6.11331C5.13661 36.8264 4.19992 36.4384 3.50929 35.7478C2.81866 35.0572 2.43066 34.1205 2.43066 33.1438V20.5086C3.46383 20.9454 4.57364 21.172 5.69533 21.1752C7.89571 21.1752 9.91196 20.319 11.4255 18.9214C13.0025 20.3725 15.0679 21.1771 17.211 21.1752C19.3212 21.1599 21.3494 20.356 22.897 18.9214C24.454 20.3679 26.5 21.1729 28.6253 21.1752C29.7669 21.1752 30.8717 20.9358 31.8918 20.5104V33.1438C31.8918 34.1205 31.5038 35.0572 30.8132 35.7478C30.1226 36.4384 29.1859 36.8264 28.2092 36.8264H22.6852C22.1969 36.8264 21.7285 36.6324 21.3832 36.2871C21.0379 35.9418 20.8439 35.4734 20.8439 34.9851Z" fill="#FF725C"/>
<path id="Vector_2" opacity="0.3" d="M0.11071 11.6003L1.83787 2.96085C2.0048 2.1257 2.45602 1.37423 3.11473 0.834377C3.77343 0.294523 4.59888 -0.000337045 5.45055 2.89124e-07H28.8722C29.7235 8.87413e-05 30.5485 0.295142 31.2069 0.83496C31.8652 1.37478 32.3161 2.12601 32.483 2.96085L34.212 11.6003C34.3628 12.3637 34.3555 13.1498 34.1907 13.9102C34.0259 14.6706 33.707 15.3891 33.2537 16.0215C32.8004 16.6539 32.2224 17.1868 31.5552 17.5871C30.8881 17.9875 30.146 18.2469 29.3747 18.3494C28.6034 18.4518 27.8193 18.3951 27.0708 18.1829C26.3222 17.9706 25.6251 17.6071 25.0225 17.115C24.4198 16.6229 23.9244 16.0125 23.5668 15.3215C23.2091 14.6305 22.9969 13.8735 22.9431 13.0973H22.8658C22.6669 16.0379 20.2474 18.4132 17.2129 18.4132H17.1116C14.0753 18.4132 11.6521 16.0398 11.4588 13.0973H11.3778C11.3258 13.8749 11.1149 14.6335 10.758 15.3262C10.4011 16.0189 9.90585 16.631 9.30287 17.1247C8.69989 17.6183 8.00203 17.9829 7.25247 18.196C6.5029 18.4091 5.71758 18.4661 4.94511 18.3634C4.17264 18.2608 3.42945 18.0007 2.76152 17.5993C2.0936 17.1979 1.51516 16.6637 1.062 16.0297C0.608841 15.3958 0.290599 14.6756 0.12697 13.9137C-0.0366588 13.1518 -0.0421928 12.3644 0.11071 11.6003Z" fill="#FF725C"/>
</g>
</g>
</g>
</svg>
