<svg width="35" height="35" viewBox="0 0 35 35" fill="none" xmlns="http://www.w3.org/2000/svg">
<g id="Group 1161">
<g id="Group">
<g id="Group_2">
<path id="Vector" opacity="0.3" d="M23.9674 8.70638C23.9681 5.56984 22.7345 2.559 20.5332 0.324651C21.7784 0.0659955 23.0656 0.0880632 24.3012 0.38925C25.5368 0.690437 26.6898 1.26317 27.6763 2.06582C28.6628 2.86847 29.4581 3.88086 30.0043 5.02939C30.5505 6.17792 30.8339 7.43373 30.8339 8.70552C30.8339 9.97731 30.5505 11.2331 30.0043 12.3816C29.4581 13.5302 28.6628 14.5426 27.6763 15.3452C26.6898 16.1479 25.5368 16.7206 24.3012 17.0218C23.0656 17.323 21.7784 17.345 20.5332 17.0864C22.7341 14.8525 23.9676 11.8423 23.9674 8.70638ZM27.3913 24.114H24.7549C26.4512 25.9914 27.3906 28.4315 27.3913 30.9618V34.3857H32.5271C32.9812 34.3857 33.4166 34.2053 33.7377 33.8843C34.0587 33.5632 34.2391 33.1278 34.2391 32.6737V30.9618C34.2391 29.1456 33.5176 27.4039 32.2334 26.1196C30.9492 24.8354 29.2074 24.114 27.3913 24.114Z" fill="#007AFF"/>
<path id="Vector_2" d="M6.84781 24.1141H17.1195C18.9357 24.1141 20.6775 24.8355 21.9617 26.1198C23.2459 27.404 23.9674 29.1457 23.9674 30.9619V32.6738C23.9674 33.1279 23.787 33.5633 23.4659 33.8844C23.1449 34.2054 22.7094 34.3858 22.2554 34.3858H1.71195C1.25792 34.3858 0.822473 34.2054 0.501419 33.8844C0.180366 33.5633 0 33.1279 0 32.6738V30.9619C0 29.1457 0.721464 27.404 2.00568 26.1198C3.28989 24.8355 5.03166 24.1141 6.84781 24.1141ZM11.9837 0.146729C9.71348 0.146729 7.53627 1.04856 5.93101 2.65383C4.32574 4.25909 3.42391 6.4363 3.42391 8.7065C3.42391 10.9767 4.32574 13.1539 5.93101 14.7592C7.53627 16.3644 9.71348 17.2663 11.9837 17.2663C14.2539 17.2663 16.4311 16.3644 18.0363 14.7592C19.6416 13.1539 20.5434 10.9767 20.5434 8.7065C20.5434 6.4363 19.6416 4.25909 18.0363 2.65383C16.4311 1.04856 14.2539 0.146729 11.9837 0.146729Z" fill="#007AFF"/>
</g>
</g>
</g>
</svg>
