<svg width="28" height="30" viewBox="0 0 28 30" fill="none" xmlns="http://www.w3.org/2000/svg">
<g id="Group 1161">
<g id="Group">
<g id="Group_2">
<path id="Vector" d="M1.892e-07 8.07947L12.6294 14.2853V29.9685L0.963319 24.2369C0.673744 24.0947 0.430217 23.876 0.260061 23.6053C0.0899043 23.3347 -0.000150659 23.0228 1.892e-07 22.7047V8.07947ZM27.8718 22.7047V8.08118L15.2424 14.287V29.9719L26.9085 24.2369C27.1975 24.0949 27.4407 23.8768 27.6108 23.6068C27.781 23.3368 27.8713 23.0257 27.8718 22.7081V22.7047Z" fill="#FFBE3D"/>
<path id="Vector_2" opacity="0.5" d="M13.9353 12.0564L1.46094 5.92758L13.1566 0.180553C13.3984 0.0618142 13.665 0 13.9353 0C14.2056 0 14.4722 0.0618142 14.714 0.180553L26.4097 5.92758L13.9353 12.0564Z" fill="#FFBE3D"/>
</g>
</g>
</g>
</svg>
