<svg width="31" height="31" viewBox="0 0 31 31" fill="none" xmlns="http://www.w3.org/2000/svg">
<g id="Group 1161">
<g id="Group">
<g id="Group_2">
<path id="Vector" opacity="0.3" d="M30.8152 6.72768H0V3.36384C0 2.47169 0.360732 1.61609 1.00284 0.985245C1.64495 0.354403 2.51583 0 3.42391 0H27.3913C28.2993 0 29.1702 0.354403 29.8123 0.985245C30.4544 1.61609 30.8152 2.47169 30.8152 3.36384V6.72768Z" fill="#FF715B"/>
<path id="Vector_2" d="M0 26.9107V10.0916H30.8152V26.9107C30.8152 27.8029 30.4544 28.6585 29.8123 29.2893C29.1702 29.9202 28.2993 30.2746 27.3913 30.2746H22.2554C21.8014 30.2746 21.3659 30.0974 21.0449 29.782C20.7238 29.4665 20.5434 29.0387 20.5434 28.5927V21.865C20.5435 21.1795 20.4014 20.5012 20.1259 19.8715C19.8503 19.2418 19.447 18.6738 18.9406 18.2023C18.4342 17.7307 17.8353 17.3655 17.1805 17.1289C16.5257 16.8922 15.8287 16.7892 15.132 16.826C12.3535 16.9706 10.2717 19.4178 10.2717 22.1509V28.5927C10.2717 29.0387 10.0914 29.4665 9.7703 29.782C9.44925 30.0974 9.01381 30.2746 8.55977 30.2746H3.42391C2.51583 30.2746 1.64495 29.9202 1.00284 29.2893C0.360732 28.6585 0 27.8029 0 26.9107Z" fill="#FF715B"/>
</g>
</g>
</g>
</svg>
