<svg width="35" height="35" viewBox="0 0 35 35" fill="none" xmlns="http://www.w3.org/2000/svg">
<g id="Group 1161">
<g id="Group">
<g id="Group_2">
<path id="Vector" opacity="0.3" d="M4.91029 24.1351L7.27107 22.7724C7.48913 22.6521 7.7352 22.5917 7.98421 22.5974C8.23321 22.6031 8.47626 22.6747 8.68857 22.8049L8.70226 22.8135C8.92005 22.9324 9.10244 23.1069 9.23085 23.3192C9.35926 23.5315 9.42911 23.774 9.43327 24.0221V27.0095C9.43327 27.7953 10.0701 28.4304 10.8542 28.4304H15.2368C15.1721 27.9366 15.216 27.4346 15.3653 26.9594C15.5146 26.4842 15.7658 26.0474 16.1013 25.6793C15.6026 25.1427 15.2886 24.4606 15.2051 23.7328C15.1217 23.005 15.2731 22.2696 15.6374 21.634L17.31 18.7356C17.6708 18.1119 18.2189 17.6176 18.8765 17.3229C19.5341 17.0282 20.2678 16.9481 20.9735 17.0939C21.1422 16.4665 21.4854 15.8999 21.9633 15.4599C22.4412 15.0199 23.0342 14.7245 23.6733 14.6081C23.64 14.4836 23.6227 14.3553 23.6219 14.2263V14.2041C23.6219 13.6648 23.913 13.1649 24.3786 12.8944L26.6829 11.566C26.8446 11.4727 26.9863 11.3485 27.1 11.2004C27.2136 11.0524 27.297 10.8834 27.3453 10.7031C27.3936 10.5228 27.406 10.3348 27.3816 10.1497C27.3573 9.96468 27.2967 9.78624 27.2033 9.6246L24.4266 4.81573C24.3333 4.65405 24.2091 4.51234 24.061 4.39868C23.913 4.28503 23.744 4.20165 23.5637 4.15332C23.3834 4.10499 23.1954 4.09266 23.0103 4.11702C22.8253 4.14138 22.6468 4.20195 22.4852 4.29529L20.1244 5.65801C19.9067 5.7783 19.661 5.83881 19.4124 5.8334C19.1637 5.82798 18.9209 5.75684 18.7086 5.62719L18.6932 5.61863C18.4754 5.49975 18.293 5.32526 18.1646 5.11295C18.0362 4.90064 17.9664 4.65808 17.9622 4.40999V1.42092C17.9622 1.04407 17.8125 0.682653 17.546 0.416178C17.2796 0.149704 16.9181 0 16.5413 0H10.8542C10.4773 0 10.1159 0.149704 9.84945 0.416178C9.58297 0.682653 9.43327 1.04407 9.43327 1.42092V4.40999C9.42911 4.65808 9.35926 4.90064 9.23085 5.11295C9.10244 5.32526 8.92005 5.49975 8.70226 5.61863L8.68686 5.62719C8.47459 5.75684 8.23178 5.82798 7.98312 5.8334C7.73445 5.83881 7.48878 5.7783 7.27107 5.65801L4.91029 4.29529C4.74865 4.20195 4.57021 4.14138 4.38516 4.11702C4.20011 4.09266 4.01207 4.10499 3.83179 4.15332C3.65151 4.20165 3.48252 4.28503 3.33446 4.39868C3.18641 4.51234 3.0622 4.65405 2.96893 4.81573L0.19043 9.6246C0.0970916 9.78624 0.0365127 9.96468 0.0121533 10.1497C-0.0122062 10.3348 0.000131285 10.5228 0.0484609 10.7031C0.0967904 10.8834 0.180165 11.0524 0.293822 11.2004C0.407479 11.3485 0.549192 11.4727 0.710864 11.566L3.03912 12.9098C3.26125 13.0442 3.44373 13.2352 3.56795 13.4632C3.69217 13.6911 3.75366 13.948 3.74616 14.2075V14.2246C3.74616 14.7553 3.49964 15.2552 3.03912 15.5223L0.710864 16.8662C0.549192 16.9594 0.407479 17.0836 0.293822 17.2317C0.180165 17.3798 0.0967904 17.5487 0.0484609 17.729C0.000131285 17.9093 -0.0122062 18.0973 0.0121533 18.2824C0.0365127 18.4674 0.0970916 18.6459 0.19043 18.8075L2.96722 23.6147C3.06035 23.7765 3.18445 23.9184 3.33244 24.0322C3.48043 24.146 3.6494 24.2296 3.82969 24.2781C4.00998 24.3266 4.19807 24.339 4.38319 24.3148C4.56831 24.2906 4.74684 24.2301 4.90857 24.1368L4.91029 24.1351ZM13.6977 9.95159C14.2578 9.95159 14.8123 10.0619 15.3297 10.2762C15.8471 10.4905 16.3172 10.8046 16.7132 11.2006C17.1092 11.5966 17.4233 12.0667 17.6376 12.5841C17.8519 13.1015 17.9622 13.656 17.9622 14.2161C17.9622 14.7761 17.8519 15.3306 17.6376 15.848C17.4233 16.3654 17.1092 16.8355 16.7132 17.2315C16.3172 17.6275 15.8471 17.9416 15.3297 18.1559C14.8123 18.3702 14.2578 18.4805 13.6977 18.4805C12.5667 18.4805 11.482 18.0312 10.6823 17.2315C9.88256 16.4318 9.43327 15.3471 9.43327 14.2161C9.43327 13.0851 9.88256 12.0004 10.6823 11.2006C11.482 10.4009 12.5667 9.95159 13.6977 9.95159Z" fill="#007AFF"/>
<path id="Vector_2" d="M32.4261 24.8849L33.8128 24.0837C34.0094 23.9702 34.1528 23.7833 34.2116 23.564C34.2703 23.3447 34.2396 23.1111 34.126 22.9145L32.4552 20.0196C32.3417 19.823 32.1547 19.6795 31.9354 19.6208C31.7162 19.562 31.4825 19.5928 31.2859 19.7063L29.865 20.5263C29.7336 20.5989 29.5854 20.6355 29.4353 20.6322C29.2853 20.6289 29.1388 20.5858 29.0107 20.5075L29.0022 20.5023C28.8711 20.4307 28.7614 20.3256 28.6841 20.1978C28.6068 20.0701 28.5648 19.9241 28.5622 19.7747V17.9755C28.5622 17.7485 28.472 17.5307 28.3115 17.3702C28.151 17.2097 27.9332 17.1195 27.7062 17.1195H24.2823C24.0553 17.1195 23.8376 17.2097 23.677 17.3702C23.5165 17.5307 23.4263 17.7485 23.4263 17.9755V19.7747C23.4238 19.9241 23.3817 20.0701 23.3044 20.1978C23.2272 20.3256 23.1174 20.4307 22.9864 20.5023L22.9778 20.5075C22.85 20.5857 22.7038 20.6286 22.5541 20.6319C22.4043 20.6352 22.2563 20.5988 22.1253 20.5263L20.7043 19.7046C20.6068 19.6482 20.4991 19.6116 20.3874 19.5969C20.2757 19.5822 20.1622 19.5897 20.0534 19.619C19.9447 19.6482 19.8427 19.6987 19.7535 19.7674C19.6642 19.8362 19.5894 19.9218 19.5334 20.0196L17.8625 22.9128C17.806 23.0102 17.7693 23.1178 17.7545 23.2294C17.7397 23.341 17.7471 23.4545 17.7762 23.5633C17.8053 23.672 17.8555 23.774 17.9241 23.8633C17.9927 23.9526 18.0782 24.0275 18.1758 24.0837L19.5779 24.8935C19.8552 25.0527 20.0041 25.354 20.0024 25.6741V25.6844C20.0069 25.8404 19.97 25.9949 19.8955 26.132C19.8209 26.2691 19.7113 26.3841 19.5779 26.4651L18.1758 27.2748C17.9792 27.3883 17.8357 27.5753 17.777 27.7946C17.7182 28.0138 17.749 28.2475 17.8625 28.4441L19.5334 31.339C19.6469 31.5356 19.8338 31.679 20.0531 31.7378C20.2724 31.7965 20.506 31.7658 20.7026 31.6523L22.1235 30.8305C22.2565 30.7573 22.4067 30.721 22.5585 30.7256C22.7102 30.7301 22.858 30.7752 22.9864 30.8562C23.2517 31.0086 23.4263 31.2774 23.4263 31.5838V33.3814C23.4263 33.6084 23.5165 33.8261 23.677 33.9866C23.8376 34.1471 24.0553 34.2373 24.2823 34.2373H27.7062C27.9332 34.2373 28.151 34.1471 28.3115 33.9866C28.472 33.8261 28.5622 33.6084 28.5622 33.3814V31.5838C28.5622 31.2774 28.7368 31.0086 29.0022 30.8562L29.0107 30.8511C29.2761 30.697 29.5979 30.6799 29.865 30.8323L31.2859 31.654C31.3834 31.7101 31.4909 31.7465 31.6024 31.761C31.7139 31.7756 31.8272 31.768 31.9358 31.7388C32.0444 31.7095 32.1462 31.6592 32.2353 31.5906C32.3244 31.522 32.3991 31.4365 32.4552 31.339L34.126 28.4458C34.1825 28.3484 34.2192 28.2408 34.234 28.1291C34.2488 28.0175 34.2415 27.9041 34.2124 27.7953C34.1833 27.6865 34.133 27.5846 34.0644 27.4952C33.9959 27.4059 33.9103 27.331 33.8128 27.2748L32.4261 26.4736C32.2878 26.3938 32.1729 26.279 32.093 26.1408C32.0131 26.0026 31.9709 25.8458 31.9707 25.6861V25.6724C31.9707 25.3472 32.1436 25.0476 32.4261 24.8849ZM25.9943 28.2472C25.3132 28.2472 24.66 27.9767 24.1785 27.4951C23.6969 27.0135 23.4263 26.3603 23.4263 25.6793C23.4263 24.9982 23.6969 24.3451 24.1785 23.8635C24.66 23.3819 25.3132 23.1113 25.9943 23.1113C26.6753 23.1113 27.3285 23.3819 27.8101 23.8635C28.2916 24.3451 28.5622 24.9982 28.5622 25.6793C28.5622 26.3603 28.2916 27.0135 27.8101 27.4951C27.3285 27.9767 26.6753 28.2472 25.9943 28.2472Z" fill="#007AFF"/>
</g>
</g>
</g>
</svg>
