<svg width="55" height="54" viewBox="0 0 55 54" fill="none" xmlns="http://www.w3.org/2000/svg">
<rect width="55" height="54" rx="16" fill="#DEF2F1"/>
<path opacity="0.4" d="M37.7027 26.1147V32.6804C37.7027 35.7057 35.2474 38.161 32.2221 38.161H22.642C19.6167 38.161 17.1614 35.7057 17.1614 32.6804V26.1914C17.9944 27.0902 19.1782 27.6054 20.4607 27.6054C21.8418 27.6054 23.1681 26.9148 24.0012 25.8077C24.3816 26.366 24.8935 26.822 25.4919 27.1355C26.0902 27.449 26.7566 27.6104 27.432 27.6054C28.8351 27.6054 30.0847 26.9477 30.841 25.8516C31.685 26.9367 32.9894 27.6054 34.3486 27.6054C35.6749 27.6054 36.8806 27.0683 37.7027 26.1147Z" fill="#09BBA1"/>
<path d="M30.7094 15H24.1327L23.3215 23.0675C23.2558 23.8128 23.3654 24.5143 23.6394 25.1501C24.2752 26.6408 25.7659 27.6054 27.432 27.6054C29.12 27.6054 30.5779 26.6628 31.2356 25.1611C31.4329 24.6897 31.5534 24.1417 31.5644 23.5826V23.3744L30.7094 15Z" fill="#09BBA1"/>
<path opacity="0.6" d="M38.7877 22.6948L38.4698 19.6585C38.0094 16.3482 36.5077 15 33.2961 15H29.087L29.8981 23.2209C29.9091 23.3305 29.92 23.4511 29.92 23.6594C29.9858 24.2294 30.1612 24.7555 30.4243 25.2268C31.2135 26.6737 32.748 27.6054 34.3484 27.6054C35.8062 27.6054 37.1216 26.9587 37.9437 25.8187C38.6013 24.9418 38.8973 23.8348 38.7877 22.6948ZM21.5018 15C18.2792 15 16.7885 16.3482 16.3171 19.6914L16.0212 22.7057C15.9116 23.8786 16.2295 25.0186 16.92 25.9064C17.7531 26.9916 19.0355 27.6054 20.4605 27.6054C22.0608 27.6054 23.5954 26.6737 24.3737 25.2488C24.6586 24.7555 24.845 24.1855 24.8998 23.5936L25.7548 15.011H21.5018V15Z" fill="#09BBA1"/>
<path d="M26.7193 31.8912C26.0463 31.9631 25.424 32.2819 24.9725 32.7861C24.521 33.2902 24.2724 33.9438 24.2749 34.6206V38.1611H30.5776V35.0042C30.5886 32.7133 29.2404 31.6282 26.7193 31.8912Z" fill="#09BBA1"/>
</svg>
