<svg width="33" height="33" viewBox="0 0 33 33" fill="none" xmlns="http://www.w3.org/2000/svg">
<g id="Group 4956">
<path id="Vector" opacity="0.4" d="M29.5419 30.9361C27.9901 32.0795 25.9483 32.6676 23.5144 32.6676H9.82602C9.43399 32.6676 9.04196 32.6512 8.66626 32.6022L19.9372 21.3313L29.5419 30.9361ZM33 9.49362V23.182C33 25.6159 32.4119 27.6577 31.2685 29.2095L21.6637 19.6048L32.9346 8.33386C32.9836 8.70956 33 9.10159 33 9.49362Z" fill="#F56262"/>
<path id="Vector_2" opacity="0.4" d="M21.6653 19.6016L31.2701 29.2063C30.7964 29.8924 30.2247 30.4641 29.5386 30.9378L19.9338 21.333L8.66294 32.6039C7.61752 32.5386 6.67011 32.3262 5.80438 31.9996C2.30877 30.7255 0.332275 27.6219 0.332275 23.1789V9.49042C0.332275 3.54462 3.87689 0 9.8227 0H23.5111C27.9541 0 31.0577 1.97649 32.3318 5.4721C32.6585 6.33784 32.8709 7.28525 32.9362 8.33066L21.6653 19.6016Z" fill="#F56262"/>
<path id="Vector_3" d="M21.6686 19.6048L31.2733 29.2096C30.7996 29.8956 30.2279 30.4673 29.5418 30.941L19.9371 21.3363L8.66618 32.6072C7.62076 32.5418 6.67335 32.3295 5.80762 32.0028L6.44467 31.3657L32.3351 5.47534C32.6618 6.34108 32.8741 7.28849 32.9395 8.3339L21.6686 19.6048ZM17.0589 9.68804C16.4382 6.99283 14.0533 5.78407 11.9625 5.76773C9.87167 5.76773 7.48682 6.97649 6.8661 9.67171C6.18005 12.6609 8.00953 15.1601 9.65932 16.7283C10.3127 17.349 11.1294 17.643 11.9625 17.643C12.7956 17.643 13.6123 17.3327 14.2657 16.7283C15.9155 15.1601 17.745 12.6609 17.0589 9.68804ZM12.0115 12.2362C11.1131 12.2362 10.378 11.5012 10.378 10.6028C10.378 9.70438 11.0968 8.96932 12.0115 8.96932H12.0278C12.9263 8.96932 13.6613 9.70438 13.6613 10.6028C13.6613 11.5012 12.9099 12.2362 12.0115 12.2362Z" fill="#F56262"/>
</g>
</svg>
