<svg width="55" height="54" viewBox="0 0 55 54" fill="none" xmlns="http://www.w3.org/2000/svg">
<rect width="55" height="54" rx="16" fill="#F9F0EE"/>
<path opacity="0.4" d="M36.8624 37.0954C35.7541 37.9121 34.2957 38.3321 32.5574 38.3321H22.7807C22.5007 38.3321 22.2207 38.3204 21.9524 38.2854L30.0024 30.2354L36.8624 37.0954ZM39.3322 21.7806V31.5573C39.3322 33.2956 38.9122 34.7539 38.0956 35.8623L31.2356 29.0023L39.2856 20.9523C39.3206 21.2206 39.3322 21.5006 39.3322 21.7806Z" fill="#F56262"/>
<path opacity="0.4" d="M31.2367 29L38.0967 35.86C37.7583 36.35 37.35 36.7583 36.86 37.0967L30 30.2367L21.95 38.2867C21.2033 38.24 20.5267 38.0883 19.9083 37.855C17.4117 36.945 16 34.7283 16 31.555V21.7783C16 17.5317 18.5317 15 22.7783 15H32.555C35.7283 15 37.945 16.4117 38.855 18.9083C39.0883 19.5267 39.24 20.2033 39.2867 20.95L31.2367 29Z" fill="#F56262"/>
<path d="M31.239 29.0023L38.099 35.8623C37.7606 36.3523 37.3523 36.7606 36.8623 37.099L30.0023 30.239L21.9523 38.289C21.2056 38.2423 20.529 38.0906 19.9106 37.8573L20.3656 37.4023L38.8573 18.9106C39.0906 19.529 39.2423 20.2056 39.289 20.9523L31.239 29.0023ZM27.9466 21.9195C27.5033 19.9945 25.8 19.1311 24.3066 19.1195C22.8133 19.1195 21.11 19.9828 20.6666 21.9078C20.1766 24.0428 21.4833 25.8278 22.6616 26.9478C23.1283 27.3911 23.7116 27.6011 24.3066 27.6011C24.9016 27.6011 25.485 27.3795 25.9516 26.9478C27.13 25.8278 28.4366 24.0428 27.9466 21.9195ZM24.3416 23.7395C23.7 23.7395 23.175 23.2145 23.175 22.5728C23.175 21.9311 23.6883 21.4061 24.3416 21.4061H24.3533C24.995 21.4061 25.52 21.9311 25.52 22.5728C25.52 23.2145 24.9833 23.7395 24.3416 23.7395Z" fill="#F56262"/>
</svg>
