<svg width="55" height="54" viewBox="0 0 55 54" fill="none" xmlns="http://www.w3.org/2000/svg">
<rect width="55" height="54" rx="16" fill="#E9F0FB"/>
<path d="M38.6453 24.686C38.1781 24.686 37.7907 24.2986 37.7907 23.8314V21.5523C37.7907 18.6123 35.8877 16.7093 32.9477 16.7093H21.5523C18.6123 16.7093 16.7093 18.6123 16.7093 21.5523V23.8314C16.7093 24.2986 16.3219 24.686 15.8547 24.686C15.3874 24.686 15 24.2986 15 23.8314V21.5523C15 17.6323 17.6323 15 21.5523 15H32.9477C36.8677 15 39.5 17.6323 39.5 21.5523V23.8314C39.5 24.2986 39.1126 24.686 38.6453 24.686ZM32.9477 39.5H21.5523C17.6323 39.5 15 36.8677 15 32.9477V30.6686C15 30.2014 15.3874 29.814 15.8547 29.814C16.3219 29.814 16.7093 30.2014 16.7093 30.6686V32.9477C16.7093 35.8877 18.6123 37.7907 21.5523 37.7907H32.9477C35.8877 37.7907 37.7907 35.8877 37.7907 32.9477V30.6686C37.7907 30.2014 38.1781 29.814 38.6453 29.814C39.1126 29.814 39.5 30.2014 39.5 30.6686V32.9477C39.5 36.8677 36.8677 39.5 32.9477 39.5ZM38.6453 28.1047H15.8547C15.3874 28.1047 15 27.7172 15 27.25C15 26.7828 15.3874 26.3953 15.8547 26.3953H38.6453C39.1126 26.3953 39.5 26.7828 39.5 27.25C39.5 27.7172 39.1126 28.1047 38.6453 28.1047Z" fill="#007AFF"/>
<path opacity="0.4" d="M32.3778 23.8314H22.122C21.8029 23.8314 21.5522 23.5807 21.5522 23.2616V20.9826C21.5522 20.0481 22.3157 19.2733 23.2615 19.2733H31.2383C32.1841 19.2733 32.9476 20.0481 32.9476 20.9826V23.2616C32.9476 23.5807 32.6969 23.8314 32.3778 23.8314ZM32.3778 30.6686H22.122C21.8029 30.6686 21.5522 30.9193 21.5522 31.2384V33.5174C21.5522 34.4519 22.3157 35.2267 23.2615 35.2267H31.2383C32.1841 35.2267 32.9476 34.4519 32.9476 33.5174V31.2384C32.9476 30.9193 32.6969 30.6686 32.3778 30.6686Z" fill="#007AFF"/>
</svg>
