<svg width="55" height="54" viewBox="0 0 55 54" fill="none" xmlns="http://www.w3.org/2000/svg">
<rect width="55" height="54" rx="16" fill="#E9EAFB"/>
<path opacity="0.4" d="M38 20.8824V30.2941H21.3529C19.5059 30.2941 18 31.8 18 33.6471V20.8824C18 16.1765 19.1765 15 23.8824 15H32.1176C36.8235 15 38 16.1765 38 20.8824Z" fill="#4951FF"/>
<path d="M38 30.2941V34.4118C38 36.6824 36.1529 38.5294 33.8824 38.5294H22.1176C19.8471 38.5294 18 36.6824 18 34.4118V33.6471C18 31.8 19.5059 30.2941 21.3529 30.2941H38ZM32.7059 21.7647H23.2941C22.8118 21.7647 22.4118 21.3647 22.4118 20.8824C22.4118 20.4 22.8118 20 23.2941 20H32.7059C33.1882 20 33.5882 20.4 33.5882 20.8824C33.5882 21.3647 33.1882 21.7647 32.7059 21.7647ZM29.1765 25.8824H23.2941C22.8118 25.8824 22.4118 25.4824 22.4118 25C22.4118 24.5176 22.8118 24.1176 23.2941 24.1176H29.1765C29.6588 24.1176 30.0588 24.5176 30.0588 25C30.0588 25.4824 29.6588 25.8824 29.1765 25.8824Z" fill="#4951FF"/>
</svg>
