<svg width="53" height="53" viewBox="0 0 53 53" fill="none" xmlns="http://www.w3.org/2000/svg">
<circle cx="26.5" cy="26.5" r="26.5" fill="#F4F7FE"/>
<path opacity="0.35" d="M34.25 38.125H18.75C16.6097 38.125 14.875 36.3903 14.875 34.25V18.75C14.875 16.6097 16.6097 14.875 18.75 14.875H34.25C36.3903 14.875 38.125 16.6097 38.125 18.75V34.25C38.125 36.3903 36.3903 38.125 34.25 38.125Z" fill="#1D6AFF"/>
<path d="M38.125 30.375V34.25C38.125 36.3903 36.3903 38.125 34.25 38.125H18.75C16.6097 38.125 14.875 36.3903 14.875 34.25V30.375H20.4834C21.518 30.375 22.5268 30.9317 22.9285 31.885C23.5162 33.2761 24.8919 34.25 26.5 34.25C28.1081 34.25 29.4838 33.2761 30.0715 31.885C30.4732 30.9317 31.4807 30.375 32.5166 30.375H38.125Z" fill="#1D6AFF"/>
</svg>
