<svg width="53" height="53" viewBox="0 0 53 53" fill="none" xmlns="http://www.w3.org/2000/svg">
<circle cx="26.5" cy="26.5" r="26.5" fill="#F4F7FE"/>
<path fill-rule="evenodd" clip-rule="evenodd" d="M20.7502 14.0656C20.991 14.0656 21.2219 14.1612 21.3922 14.3315C21.5624 14.5017 21.6581 14.7327 21.6581 14.9734V18.605C21.6581 18.8458 21.5624 19.0767 21.3922 19.247C21.2219 19.4173 20.991 19.5129 20.7502 19.5129C20.5094 19.5129 20.2785 19.4173 20.1082 19.247C19.9379 19.0767 19.8423 18.8458 19.8423 18.605V14.9734C19.8423 14.7327 19.9379 14.5017 20.1082 14.3315C20.2785 14.1612 20.5094 14.0656 20.7502 14.0656ZM30.4344 14.0656C30.6752 14.0656 30.9061 14.1612 31.0764 14.3315C31.2466 14.5017 31.3423 14.7327 31.3423 14.9734V18.605C31.3423 18.8458 31.2466 19.0767 31.0764 19.247C30.9061 19.4173 30.6752 19.5129 30.4344 19.5129C30.1936 19.5129 29.9627 19.4173 29.7924 19.247C29.6221 19.0767 29.5265 18.8458 29.5265 18.605V14.9734C29.5265 14.7327 29.6221 14.5017 29.7924 14.3315C29.9627 14.1612 30.1936 14.0656 30.4344 14.0656Z" fill="#1D6AFF"/>
<path opacity="0.4" d="M38 22.6845V33.2887C38 33.4824 37.9879 33.6761 37.9758 33.8577H15.0242C15.0121 33.6761 15 33.4824 15 33.2887V22.6845C15 21.121 15.6211 19.6215 16.7267 18.5159C17.8323 17.4104 19.3317 16.7892 20.8953 16.7892H32.1047C33.6683 16.7892 35.1677 17.4104 36.2733 18.5159C37.3789 19.6215 38 21.121 38 22.6845Z" fill="#1D6AFF"/>
<path d="M37.9516 33.86C37.8086 35.3182 37.1283 36.671 36.0432 37.6554C34.9581 38.6398 33.5457 39.1855 32.0805 39.1863H20.8711C17.8084 39.1863 15.2905 36.85 15 33.86H37.9516ZM28.3279 26.6211C28.8726 26.2458 29.2116 25.689 29.2116 24.9384C29.2116 23.3648 27.9526 22.5537 26.4758 22.5537C24.9989 22.5537 23.7279 23.3648 23.7279 24.9384C23.7279 25.689 24.0789 26.2579 24.6116 26.6211C23.8732 27.0569 23.4495 27.759 23.4495 28.5821C23.4495 30.0832 24.5995 31.0153 26.4758 31.0153C28.34 31.0153 29.5021 30.0832 29.5021 28.5821C29.5021 27.759 29.0784 27.0448 28.3279 26.6211ZM26.4758 24.0548C27.1053 24.0548 27.5653 24.4058 27.5653 25.0111C27.5653 25.6042 27.1053 25.9795 26.4758 25.9795C25.8463 25.9795 25.3863 25.6042 25.3863 25.0111C25.3863 24.4058 25.8463 24.0548 26.4758 24.0548ZM26.4758 29.5021C25.6768 29.5021 25.0958 29.1027 25.0958 28.3763C25.0958 27.65 25.6768 27.2627 26.4758 27.2627C27.2747 27.2627 27.8558 27.6621 27.8558 28.3763C27.8558 29.1027 27.2747 29.5021 26.4758 29.5021Z" fill="#1D6AFF"/>
</svg>
