<svg width="38" height="38" viewBox="0 0 38 38" fill="none" xmlns="http://www.w3.org/2000/svg">
<rect x="0.378906" y="0.491455" width="37.1724" height="37.1724" rx="18.5862" fill="#02AAF5"/>
<path d="M27.9599 13.2077C27.2739 13.5058 26.548 13.7021 25.8053 13.7906C26.5858 13.3336 27.1728 12.6074 27.4562 11.7484C26.7182 12.18 25.9122 12.4827 25.0726 12.6438C24.7191 12.2733 24.2939 11.9785 23.8229 11.7775C23.3519 11.5764 22.845 11.4732 22.3329 11.4741C20.2595 11.4741 18.5816 13.1277 18.5816 15.166C18.5801 15.4496 18.6126 15.7322 18.6783 16.008C17.1915 15.9383 15.7357 15.5591 14.4039 14.8945C13.0721 14.2299 11.8937 13.2946 10.944 12.1485C10.6109 12.7101 10.4347 13.351 10.4339 14.004C10.4339 15.2841 11.1018 16.4157 12.1103 17.0786C11.5128 17.0645 10.9275 16.9063 10.4042 16.6176V16.6634C10.4042 18.4541 11.6996 19.9438 13.4141 20.2829C13.0916 20.3688 12.7594 20.4124 12.4257 20.4124C12.189 20.4128 11.9528 20.3898 11.7205 20.3438C12.1971 21.8107 13.5844 22.8775 15.2276 22.908C13.8924 23.937 12.253 24.4932 10.5672 24.4891C10.268 24.4887 9.96904 24.4709 9.67188 24.4358C11.3868 25.5309 13.3803 26.1101 15.4151 26.1046C22.3249 26.1046 26.0998 20.4772 26.0998 15.5966C26.0998 15.4365 26.0956 15.2765 26.088 15.1203C26.8207 14.5991 27.4546 13.9514 27.9599 13.2077Z" fill="white"/>
</svg>
