<svg width="18" height="19" viewBox="0 0 18 19" fill="none" xmlns="http://www.w3.org/2000/svg">
<rect width="18" height="19" fill="#1E1E1E"/>
<g id="Admin home" clip-path="url(#clip0_0_1)">
<rect width="1440" height="1072" transform="translate(-29 -473)" fill="#F8FAFF"/>
<g id="sidebar">
<rect id="Rectangle 2" x="-29" y="-473" width="228" height="900" fill="white"/>
<g id="Frame 5153">
<g id="Group 5157">
<g id="Frame 5151">
<g id="Group">
<path id="Vector" d="M6.90981 9.40466C6.90981 9.61683 6.82553 9.82032 6.6755 9.97035C6.52547 10.1204 6.32199 10.2047 6.10981 10.2047C5.89764 10.2047 5.69416 10.1204 5.54413 9.97035C5.3941 9.82032 5.30981 9.61683 5.30981 9.40466C5.30981 9.19249 5.3941 8.989 5.54413 8.83897C5.69416 8.68895 5.89764 8.60466 6.10981 8.60466C6.32199 8.60466 6.52547 8.68895 6.6755 8.83897C6.82553 8.989 6.90981 9.19249 6.90981 9.40466ZM10.1098 9.40466C10.1098 9.61683 10.0255 9.82032 9.8755 9.97035C9.72547 10.1204 9.52199 10.2047 9.30981 10.2047C9.09764 10.2047 8.89416 10.1204 8.74413 9.97035C8.5941 9.82032 8.50981 9.61683 8.50981 9.40466C8.50981 9.19249 8.5941 8.989 8.74413 8.83897C8.89416 8.68895 9.09764 8.60466 9.30981 8.60466C9.52199 8.60466 9.72547 8.68895 9.8755 8.83897C10.0255 8.989 10.1098 9.19249 10.1098 9.40466ZM13.3098 9.40466C13.3098 9.61683 13.2255 9.82032 13.0755 9.97035C12.9255 10.1204 12.722 10.2047 12.5098 10.2047C12.2976 10.2047 12.0942 10.1204 11.9441 9.97035C11.7941 9.82032 11.7098 9.61683 11.7098 9.40466C11.7098 9.19249 11.7941 8.989 11.9441 8.83897C12.0942 8.68895 12.2976 8.60466 12.5098 8.60466C12.722 8.60466 12.9255 8.68895 13.0755 8.83897C13.2255 8.989 13.3098 9.19249 13.3098 9.40466Z" fill="#8392A5"/>
<path id="Vector_2" opacity="0.5" d="M1.30981 9.40475C1.30981 5.63355 1.30981 3.74795 2.48101 2.57595C3.65381 1.40475 5.53861 1.40475 9.30981 1.40475C13.081 1.40475 14.9666 1.40475 16.1378 2.57595C17.3098 3.74875 17.3098 5.63355 17.3098 9.40475C17.3098 13.176 17.3098 15.0616 16.1378 16.2328C14.9674 17.4048 13.081 17.4048 9.30981 17.4048C5.53861 17.4048 3.65301 17.4048 2.48101 16.2328C1.30981 15.0624 1.30981 13.176 1.30981 9.40475Z" stroke="#8392A5" stroke-width="1.2"/>
</g>
</g>
</g>
</g>
</g>
</g>
<defs>
<clipPath id="clip0_0_1">
<rect width="1440" height="1072" fill="white" transform="translate(-29 -473)"/>
</clipPath>
</defs>
</svg>
