<svg width="18" height="19" viewBox="0 0 18 19" fill="none" xmlns="http://www.w3.org/2000/svg">
<path opacity="0.5" d="M4.62341 4.71836C6.83301 2.50956 7.93701 1.40476 9.30981 1.40476C10.6826 1.40476 11.7866 2.50876 13.9962 4.71836C16.205 6.92796 17.3098 8.03196 17.3098 9.40476C17.3098 10.7776 16.2058 11.8816 13.9962 14.0912C11.7866 16.3 10.6826 17.4048 9.30981 17.4048C7.93701 17.4048 6.83301 16.3008 4.62341 14.0912C2.41461 11.8816 1.30981 10.7776 1.30981 9.40476C1.30981 8.03196 2.41381 6.92796 4.62341 4.71836Z" stroke="#8392A5" stroke-width="1.2"/>
<path d="M6.30983 11.0048C6.30983 11.1639 6.37304 11.3165 6.48556 11.429C6.59808 11.5416 6.7507 11.6048 6.90983 11.6048C7.06896 11.6048 7.22157 11.5416 7.33409 11.429C7.44661 11.3165 7.50983 11.1639 7.50983 11.0048H6.30983ZM11.7098 9.40477L12.1338 9.82877C12.2462 9.71627 12.3093 9.56377 12.3093 9.40477C12.3093 9.24577 12.2462 9.09327 12.1338 8.98077L11.7098 9.40477ZM10.5338 7.38077C10.4789 7.32182 10.4127 7.27454 10.3391 7.24175C10.2655 7.20895 10.186 7.19132 10.1054 7.1899C10.0249 7.18848 9.94486 7.2033 9.87015 7.23347C9.79544 7.26365 9.72757 7.30857 9.67059 7.36554C9.61362 7.42252 9.5687 7.49038 9.53853 7.56509C9.50835 7.6398 9.49353 7.71983 9.49495 7.80039C9.49637 7.88095 9.51401 7.9604 9.5468 8.034C9.57959 8.1076 9.62688 8.17384 9.68583 8.22877L10.5338 7.38077ZM9.68583 10.5808C9.62688 10.6357 9.57959 10.7019 9.5468 10.7755C9.51401 10.8491 9.49637 10.9286 9.49495 11.0092C9.49353 11.0897 9.50835 11.1697 9.53853 11.2444C9.5687 11.3192 9.61362 11.387 9.67059 11.444C9.72757 11.501 9.79544 11.5459 9.87015 11.5761C9.94486 11.6062 10.0249 11.6211 10.1054 11.6196C10.186 11.6182 10.2655 11.6006 10.3391 11.5678C10.4127 11.535 10.4789 11.4877 10.5338 11.4288L9.68583 10.5808ZM8.50983 10.0048H11.7098V8.80477H8.50983V10.0048ZM12.1338 8.98077L10.5338 7.38077L9.68583 8.22877L11.2858 9.82877L12.1338 8.98077ZM11.2858 8.98077L9.68583 10.5808L10.5338 11.4288L12.1338 9.82877L11.2858 8.98077ZM7.50983 11.0048C7.50983 10.6104 7.51142 10.3752 7.53382 10.2072C7.53886 10.1587 7.55016 10.1111 7.56742 10.0656L7.56823 10.0632L6.72022 9.21517C6.47222 9.46237 6.38263 9.76237 6.34423 10.0472C6.30823 10.3144 6.30983 10.6448 6.30983 11.0048H7.50983ZM8.50983 8.80477C8.14983 8.80477 7.81943 8.80317 7.55223 8.83917C7.26743 8.87757 6.96742 8.96717 6.72022 9.21517L7.56823 10.0632L7.57063 10.0624C7.61617 10.0451 7.66377 10.0338 7.71223 10.0288C7.88023 10.0064 8.11543 10.0048 8.50983 10.0048V8.80477Z" fill="#8392A5"/>
</svg>
