<svg width="18" height="18" viewBox="0 0 18 18" fill="none" xmlns="http://www.w3.org/2000/svg">
<rect width="18" height="18" fill="#1E1E1E"/>
<g id="Pickup Man" clip-path="url(#clip0_0_1)">
<rect width="1440" height="900" transform="translate(-1355 -318)" fill="#F8FAFF"/>
<g id="background" filter="url(#filter0_d_0_1)">
<rect x="-1103" y="-21" width="1145" height="621" rx="12" fill="white"/>
</g>
<g id="Group 33722">
<g id="background_2">
<mask id="path-2-inside-1_0_1" fill="white">
<path d="M-1103 3C-1103 -8.31371 -1103 -13.9706 -1099.49 -17.4853C-1095.97 -21 -1090.31 -21 -1079 -21H18C29.3137 -21 34.9706 -21 38.4852 -17.4853C42 -13.9706 42 -8.31371 42 3V39H-1103V3Z"/>
</mask>
<path d="M-1103 3C-1103 -8.31371 -1103 -13.9706 -1099.49 -17.4853C-1095.97 -21 -1090.31 -21 -1079 -21H18C29.3137 -21 34.9706 -21 38.4852 -17.4853C42 -13.9706 42 -8.31371 42 3V39H-1103V3Z" fill="white"/>
<path d="M-1103 -21H42H-1103ZM42 40H-1103V38H42V40ZM-1103 39V-21V39ZM42 -21V39V-21Z" fill="#007AFF" fill-opacity="0.12" mask="url(#path-2-inside-1_0_1)"/>
</g>
<g id="Frame 33906">
<g id="Search/default">
<g id="Group 33768">
<path id="Vector" d="M16.5 11.5V14.8333C16.5 15.2754 16.3244 15.6993 16.0118 16.0118C15.6993 16.3244 15.2754 16.5 14.8333 16.5H3.16667C2.72464 16.5 2.30072 16.3244 1.98816 16.0118C1.67559 15.6993 1.5 15.2754 1.5 14.8333V11.5" stroke="#64748B" stroke-width="1.5" stroke-linecap="round" stroke-linejoin="round"/>
<path id="Vector_2" d="M4.83203 7.33301L8.9987 11.4997L13.1654 7.33301" stroke="#64748B" stroke-width="1.5" stroke-linecap="round" stroke-linejoin="round"/>
<path id="Vector_3" d="M9 11.5V1.5" stroke="#64748B" stroke-width="1.5" stroke-linecap="round" stroke-linejoin="round"/>
</g>
<rect x="-11.5" y="-11.5" width="41" height="41" rx="6.5" stroke="#E2E8F0"/>
</g>
</g>
</g>
</g>
<defs>
<filter id="filter0_d_0_1" x="-1123" y="-31" width="1185" height="661" filterUnits="userSpaceOnUse" color-interpolation-filters="sRGB">
<feFlood flood-opacity="0" result="BackgroundImageFix"/>
<feColorMatrix in="SourceAlpha" type="matrix" values="0 0 0 0 0 0 0 0 0 0 0 0 0 0 0 0 0 0 127 0" result="hardAlpha"/>
<feOffset dy="10"/>
<feGaussianBlur stdDeviation="10"/>
<feComposite in2="hardAlpha" operator="out"/>
<feColorMatrix type="matrix" values="0 0 0 0 0.01875 0 0 0 0 0.181172 0 0 0 0 0.5 0 0 0 0.03 0"/>
<feBlend mode="normal" in2="BackgroundImageFix" result="effect1_dropShadow_0_1"/>
<feBlend mode="normal" in="SourceGraphic" in2="effect1_dropShadow_0_1" result="shape"/>
</filter>
<clipPath id="clip0_0_1">
<rect width="1440" height="900" fill="white" transform="translate(-1355 -318)"/>
</clipPath>
</defs>
</svg>
