<svg width="40" height="46" viewBox="0 0 40 46" fill="none" xmlns="http://www.w3.org/2000/svg">
<g id="Group">
<path id="Vector" opacity="0.5" d="M0 19.4558C0 12.3492 6.62274e-08 8.79582 0.84 7.60026C1.67778 6.40693 5.01778 5.26248 11.7 2.97582L12.9733 2.54026C16.4556 1.34693 18.1956 0.751373 20 0.751373C21.8022 0.751373 23.5444 1.34693 27.0267 2.54026L28.3 2.97582C34.9822 5.26248 38.3222 6.40693 39.16 7.60026C40 8.79582 40 12.3514 40 19.4558V22.9536C40 35.4825 30.58 41.5647 24.6689 44.1447C23.0667 44.8447 22.2667 45.1958 20 45.1958C17.7333 45.1958 16.9333 44.8447 15.3311 44.1447C9.42 41.5625 0 35.4847 0 22.9536V19.4558Z" fill="#E9A92A"/>
<path id="Vector_2" d="M24.4448 16.307C24.4448 17.4857 23.9765 18.6162 23.143 19.4497C22.3095 20.2832 21.179 20.7515 20.0003 20.7515C18.8216 20.7515 17.6911 20.2832 16.8576 19.4497C16.0241 18.6162 15.5559 17.4857 15.5559 16.307C15.5559 15.1283 16.0241 13.9978 16.8576 13.1643C17.6911 12.3308 18.8216 11.8626 20.0003 11.8626C21.179 11.8626 22.3095 12.3308 23.143 13.1643C23.9765 13.9978 24.4448 15.1283 24.4448 16.307ZM20.0003 34.0848C28.8892 34.0848 28.8892 32.0959 28.8892 29.6403C28.8892 27.1848 24.9114 25.1959 20.0003 25.1959C15.0892 25.1959 11.1114 27.1848 11.1114 29.6403C11.1114 32.0959 11.1114 34.0848 20.0003 34.0848Z" fill="#E9A92A"/>
</g>
</svg>
