<svg width="17" height="17" viewBox="0 0 17 17" fill="none" xmlns="http://www.w3.org/2000/svg">
<path opacity="0.5" d="M8.13755 0C11.9628 0 13.8758 0 15.0649 1.3797C15.6793 2.09406 15.9763 3.03271 16.12 4.38791V7.53936H0.154297V4.38791C0.297145 3.03271 0.593392 2.09406 1.20861 1.3797C2.39766 0 4.31069 0 8.13674 0H8.13755Z" fill="#0CAF60"/>
<path fill-rule="evenodd" clip-rule="evenodd" d="M0 10.1559C0 7.92074 4.75815e-08 6.80314 0.435065 5.94897C0.817731 5.19797 1.42832 4.58738 2.17932 4.20472C3.03348 3.76965 4.15108 3.76965 6.38628 3.76965H9.57942C11.8146 3.76965 12.9322 3.76965 13.7864 4.20472C14.5374 4.58738 15.148 5.19797 15.5306 5.94897C15.9657 6.80314 15.9657 7.92074 15.9657 10.1559C15.9657 12.3911 15.9657 13.5087 15.5306 14.3629C15.148 15.1139 14.5374 15.7245 13.7864 16.1071C12.9322 16.5422 11.8146 16.5422 9.57942 16.5422H6.38628C4.15108 16.5422 3.03348 16.5422 2.17932 16.1071C1.42832 15.7245 0.817731 15.1139 0.435065 14.3629C4.75815e-08 13.5087 0 12.3911 0 10.1559ZM8.40594 7.33799C8.29368 7.22587 8.14151 7.16289 7.98285 7.16289C7.82419 7.16289 7.67202 7.22587 7.55976 7.33799L5.56405 9.3337C5.50522 9.38851 5.45804 9.45461 5.42532 9.52805C5.3926 9.60149 5.375 9.68077 5.37358 9.76116C5.37216 9.84155 5.38695 9.9214 5.41706 9.99596C5.44718 10.0705 5.492 10.1382 5.54885 10.1951C5.6057 10.2519 5.67342 10.2968 5.74797 10.3269C5.82252 10.357 5.90238 10.3718 5.98277 10.3703C6.06315 10.3689 6.14244 10.3513 6.21588 10.3186C6.28932 10.2859 6.35542 10.2387 6.41023 10.1799L7.38414 9.20597V12.5508C7.38414 12.7096 7.44722 12.8619 7.5595 12.9741C7.67178 13.0864 7.82406 13.1495 7.98285 13.1495C8.14164 13.1495 8.29392 13.0864 8.40621 12.9741C8.51849 12.8619 8.58156 12.7096 8.58156 12.5508V9.20597L9.55547 10.1799C9.61028 10.2387 9.67638 10.2859 9.74982 10.3186C9.82327 10.3513 9.90255 10.3689 9.98294 10.3703C10.0633 10.3718 10.1432 10.357 10.2177 10.3269C10.2923 10.2968 10.36 10.2519 10.4169 10.1951C10.4737 10.1382 10.5185 10.0705 10.5486 9.99596C10.5787 9.9214 10.5935 9.84155 10.5921 9.76116C10.5907 9.68077 10.5731 9.60149 10.5404 9.52805C10.5077 9.45461 10.4605 9.38851 10.4017 9.3337L8.40594 7.33799Z" fill="#0CAF60"/>
</svg>
