<svg width="16" height="16" viewBox="0 0 16 16" fill="none" xmlns="http://www.w3.org/2000/svg">
<path opacity="0.5" d="M1.40553 12.3146L2.54547 13.4537L3.68462 14.5937C4.37898 15.2872 4.72536 15.6336 5.16614 15.8168C5.60772 15.9992 6.0981 15.9992 7.07965 15.9992H8.92115C9.90191 15.9992 10.3931 15.9992 10.8339 15.8168C11.2746 15.6336 11.6218 15.2872 12.3154 14.5929L14.5945 12.3146C15.288 11.621 15.6344 11.2746 15.8176 10.8331C16 10.3923 16 9.90111 16 8.92116V7.07885C16 6.0981 16 5.60692 15.8176 5.16694C15.6352 4.72536 15.288 4.37818 14.5937 3.68462L13.4545 2.54547L12.3154 1.40553C11.6218 0.711964 11.2754 0.365582 10.8339 0.182391C10.3915 -5.96017e-08 9.90111 0 8.92115 0H7.07885C6.0981 0 5.60692 -5.96017e-08 5.16694 0.182391C4.72536 0.365582 4.37818 0.711964 3.68462 1.40633L1.40553 3.68382C0.711964 4.37738 0.365582 4.72376 0.182391 5.16534C-5.96017e-08 5.60772 0 6.0981 0 7.07805V8.92036C0 9.90111 -5.96017e-08 10.3923 0.182391 10.8323C0.365582 11.2738 0.711164 11.621 1.40553 12.3146Z" fill="#E8515A"/>
<path d="M13.4546 2.54547L2.54639 13.4537" stroke="#E8515A" stroke-width="1.0625"/>
</svg>
