<svg width="40" height="40" viewBox="0 0 40 40" fill="none" xmlns="http://www.w3.org/2000/svg">
<rect width="40" height="40" rx="8.64954" fill="white"/>
<rect x="0.432477" y="0.432477" width="39.135" height="39.135" rx="8.21706" stroke="#2E3185" stroke-opacity="0.2" stroke-width="0.864954"/>
<path d="M14.56 14H25.44C25.5606 14.0433 25.6698 14.1143 25.7595 14.2075C25.8491 14.3007 25.9167 14.4137 25.9571 14.5378C25.9974 14.6619 26.0096 14.7938 25.9925 14.9235C25.9754 15.0531 25.9296 15.177 25.8585 15.2857L21.6739 20V26L18.3261 23.4286V20L14.1415 15.2857C14.0704 15.177 14.0246 15.0531 14.0075 14.9235C13.9904 14.7938 14.0026 14.6619 14.0429 14.5378C14.0833 14.4137 14.1509 14.3007 14.2405 14.2075C14.3302 14.1143 14.4394 14.0433 14.56 14Z" stroke="#64748B" stroke-width="1.5" stroke-linecap="round" stroke-linejoin="round"/>
</svg>
