<svg width="17" height="15" viewBox="0 0 17 15" fill="none" xmlns="http://www.w3.org/2000/svg">
<path d="M10.375 10.375V11.9375C10.375 12.3519 10.2104 12.7493 9.91735 13.0424C9.62433 13.3354 9.2269 13.5 8.8125 13.5H2.5625C2.1481 13.5 1.75067 13.3354 1.45765 13.0424C1.16462 12.7493 1 12.3519 1 11.9375V2.5625C1 2.1481 1.16462 1.75067 1.45765 1.45765C1.75067 1.16462 2.1481 1 2.5625 1H8.5C9.36289 1 10.375 1.69961 10.375 2.5625V4.125M12.875 10.375L16 7.25L12.875 4.125M5.375 7.25H15.375" stroke="#595F84" stroke-width="1.25" stroke-linecap="round" stroke-linejoin="round"/>
</svg>
