<svg width="53" height="53" viewBox="0 0 53 53" fill="none" xmlns="http://www.w3.org/2000/svg">
<circle cx="26.5" cy="26.5" r="26.5" fill="#4951FF" fill-opacity="0.06"/>
<path opacity="0.2" d="M26.585 38.17C32.9834 38.17 38.17 32.9834 38.17 26.585C38.17 20.1866 32.9834 15 26.585 15C20.1866 15 15 20.1866 15 26.585C15 28.4386 15.4356 30.1902 16.2083 31.7438C16.4145 32.1562 16.4829 32.6277 16.3636 33.0737L15.6742 35.6526C15.6062 35.9077 15.6065 36.1762 15.675 36.4312C15.7435 36.6862 15.8778 36.9187 16.0645 37.1055C16.2512 37.2922 16.4838 37.4265 16.7388 37.495C16.9938 37.5635 17.2623 37.5638 17.5174 37.4957L20.0962 36.8064C20.5439 36.6938 21.0173 36.7486 21.4274 36.9605C23.0295 37.7583 24.7952 38.1724 26.585 38.17Z" fill="#4951FF"/>
<path d="M30.332 24.964V26.284H26.396V29.02C26.396 29.244 26.428 29.412 26.492 29.524C26.556 29.628 26.7 29.68 26.924 29.68C27.108 29.68 27.288 29.652 27.464 29.596C27.64 29.532 27.8 29.452 27.944 29.356C28.088 29.252 28.204 29.132 28.292 28.996C28.38 28.86 28.424 28.72 28.424 28.576C28.424 28.504 28.392 28.436 28.328 28.372C28.264 28.308 28.14 28.276 27.956 28.276C27.812 28.276 27.684 28.288 27.572 28.312L27.38 27.088C27.524 27.048 27.684 27.02 27.86 27.004C28.044 26.988 28.232 26.98 28.424 26.98C28.896 26.98 29.276 27.088 29.564 27.304C29.852 27.52 29.996 27.856 29.996 28.312C29.996 28.744 29.896 29.128 29.696 29.464C29.496 29.8 29.232 30.08 28.904 30.304C28.576 30.528 28.216 30.7 27.824 30.82C27.44 30.932 27.064 30.988 26.696 30.988C26.36 30.988 26.076 30.948 25.844 30.868C25.62 30.788 25.44 30.684 25.304 30.556C25.216 30.468 25.132 30.368 25.052 30.256C24.98 30.144 24.92 29.988 24.872 29.788C24.832 29.588 24.812 29.32 24.812 28.984V26.284H23.804V24.964H30.332ZM24.692 22C24.956 22 25.188 22.032 25.388 22.096C25.588 22.16 25.756 22.26 25.892 22.396C26.052 22.548 26.176 22.76 26.264 23.032C26.352 23.304 26.396 23.688 26.396 24.184V25.012H24.812V24.244C24.812 24.044 24.796 23.876 24.764 23.74C24.732 23.604 24.668 23.504 24.572 23.44C24.476 23.368 24.332 23.332 24.14 23.332C24.036 23.332 23.924 23.344 23.804 23.368C23.692 23.392 23.576 23.428 23.456 23.476L23 22.324C23.312 22.212 23.592 22.132 23.84 22.084C24.088 22.028 24.372 22 24.692 22Z" fill="#4951FF"/>
</svg>
