<svg width="17" height="17" viewBox="0 0 17 17" fill="none" xmlns="http://www.w3.org/2000/svg">
<path d="M0.910221 5.97503C0.654785 6.21508 0.654785 6.60096 0.654785 7.37354V12.2892C0.654785 13.0618 0.654785 13.4477 0.910221 13.6877C1.16566 13.9278 1.57627 13.9278 2.39837 13.9278C3.22048 13.9278 3.63109 13.9278 3.88653 13.6877C4.14196 13.4477 4.14196 13.0618 4.14196 12.2892V7.37354C4.14196 6.60096 4.14196 6.21508 3.88653 5.97503C3.63109 5.73499 3.22048 5.73499 2.39837 5.73499C1.57627 5.73499 1.16566 5.73499 0.910221 5.97503Z" fill="#1D6AFF"/>
<path opacity="0.4" d="M13.1138 0.240048C12.8584 0.480097 12.8584 0.865976 12.8584 1.63856V12.2892C12.8584 13.0617 12.8584 13.4476 13.1138 13.6877C13.3693 13.9277 13.7799 13.9277 14.602 13.9277C15.4241 13.9277 15.8347 13.9277 16.0901 13.6877C16.3456 13.4476 16.3456 13.0617 16.3456 12.2892V1.63856C16.3456 0.865976 16.3456 0.480097 16.0901 0.240048C15.8347 -2.44164e-08 15.4241 0 14.602 0C13.7799 0 13.3693 -2.44164e-08 13.1138 0.240048Z" fill="#1D6AFF"/>
<path opacity="0.7" d="M6.75684 4.09638C6.75684 3.3238 6.75684 2.93792 7.01227 2.69787C7.26771 2.45782 7.67832 2.45782 8.50043 2.45782C9.32253 2.45782 9.73314 2.45782 9.98858 2.69787C10.244 2.93792 10.244 3.3238 10.244 4.09638V12.2892C10.244 13.0617 10.244 13.4476 9.98858 13.6877C9.73314 13.9277 9.32253 13.9277 8.50043 13.9277C7.67832 13.9277 7.26771 13.9277 7.01227 13.6877C6.75684 13.4476 6.75684 13.0617 6.75684 12.2892V4.09638Z" fill="#1D6AFF"/>
<path d="M0.653846 15.7711C0.480435 15.7711 0.314127 15.8359 0.191507 15.9511C0.0688871 16.0663 0 16.2226 0 16.3856C0 16.5485 0.0688871 16.7048 0.191507 16.8201C0.314127 16.9353 0.480435 17 0.653846 17H16.3462C16.5196 17 16.6859 16.9353 16.8085 16.8201C16.9311 16.7048 17 16.5485 17 16.3856C17 16.2226 16.9311 16.0663 16.8085 15.9511C16.6859 15.8359 16.5196 15.7711 16.3462 15.7711H0.653846Z" fill="#1D6AFF"/>
</svg>
