<svg width="53" height="53" viewBox="0 0 53 53" fill="none" xmlns="http://www.w3.org/2000/svg">
<circle cx="26.5" cy="26.5" r="26.5" fill="#F4F7FE"/>
<path d="M17.0965 23.1349C16.7885 23.443 16.7885 23.9381 16.7885 24.9295V31.2372C16.7885 32.2285 16.7885 32.7237 17.0965 33.0317C17.4045 33.3397 17.8997 33.3397 18.891 33.3397C19.8824 33.3397 20.3775 33.3397 20.6856 33.0317C20.9936 32.7237 20.9936 32.2285 20.9936 31.2372V24.9295C20.9936 23.9381 20.9936 23.443 20.6856 23.1349C20.3775 22.8269 19.8824 22.8269 18.891 22.8269C17.8997 22.8269 17.4045 22.8269 17.0965 23.1349Z" fill="#1D6AFF"/>
<path opacity="0.4" d="M31.8144 15.7759C31.5064 16.0839 31.5064 16.5791 31.5064 17.5705V31.2371C31.5064 32.2285 31.5064 32.7236 31.8144 33.0317C32.1225 33.3397 32.6176 33.3397 33.609 33.3397C34.6003 33.3397 35.0955 33.3397 35.4035 33.0317C35.7115 32.7236 35.7115 32.2285 35.7115 31.2371V17.5705C35.7115 16.5791 35.7115 16.0839 35.4035 15.7759C35.0955 15.4679 34.6003 15.4679 33.609 15.4679C32.6176 15.4679 32.1225 15.4679 31.8144 15.7759Z" fill="#1D6AFF"/>
<path opacity="0.7" d="M24.1474 20.7243C24.1474 19.7329 24.1474 19.2378 24.4555 18.9297C24.7635 18.6217 25.2586 18.6217 26.25 18.6217C27.2414 18.6217 27.7365 18.6217 28.0445 18.9297C28.3526 19.2378 28.3526 19.7329 28.3526 20.7243V31.2371C28.3526 32.2284 28.3526 32.7236 28.0445 33.0316C27.7365 33.3397 27.2414 33.3397 26.25 33.3397C25.2586 33.3397 24.7635 33.3397 24.4555 33.0316C24.1474 32.7236 24.1474 32.2284 24.1474 31.2371V20.7243Z" fill="#1D6AFF"/>
<path d="M16.7885 35.7051C16.5793 35.7051 16.3788 35.7881 16.2309 35.936C16.0831 36.0839 16 36.2844 16 36.4935C16 36.7027 16.0831 36.9032 16.2309 37.0511C16.3788 37.1989 16.5793 37.282 16.7885 37.282H35.7115C35.9207 37.282 36.1212 37.1989 36.2691 37.0511C36.4169 36.9032 36.5 36.7027 36.5 36.4935C36.5 36.2844 36.4169 36.0839 36.2691 35.936C36.1212 35.7881 35.9207 35.7051 35.7115 35.7051H16.7885Z" fill="#1D6AFF"/>
</svg>
