<svg width="30" height="31" viewBox="0 0 30 31" fill="none" xmlns="http://www.w3.org/2000/svg">
<path d="M9.633 28.5121C12.267 29.8951 13.584 30.5851 15 30.5851V15.5851L0.957 8.19458C0.936592 8.22783 0.91659 8.26134 0.897 8.29508C8.9407e-08 9.81608 0 11.7106 0 15.4981V15.6736C0 19.4596 -1.78814e-07 21.3541 0.8955 22.8751C1.7925 24.3976 3.4065 25.2451 6.633 26.9386L9.633 28.5121Z" fill="#007AFF"/>
<path opacity="0.7" d="M23.3654 4.23296L20.3654 2.65796C17.7329 1.27646 16.4159 0.584961 14.9999 0.584961C13.5824 0.584961 12.2669 1.27496 9.63291 2.65796L6.63291 4.23296C3.47691 5.88896 1.86291 6.73496 0.956909 8.19296L14.9999 15.585L29.0429 8.19446C28.1339 6.73496 26.5229 5.88896 23.3654 4.23296Z" fill="#007AFF"/>
<path opacity="0.5" d="M29.1045 8.29508C29.0844 8.26133 29.0639 8.22782 29.043 8.19458L15 15.5851V30.5851C16.416 30.5851 17.733 29.8951 20.367 28.5121L23.367 26.9371C26.5935 25.2436 28.2075 24.3976 29.1045 22.8751C30 21.3541 30 19.4596 30 15.6751V15.4996C30 11.7121 30 9.81608 29.1045 8.29508Z" fill="#007AFF"/>
</svg>
