<svg width="16" height="16" viewBox="0 0 16 16" fill="none" xmlns="http://www.w3.org/2000/svg">
<path opacity="0.5" d="M8.00064 0C11.771 0 13.6566 0 14.8286 1.1712C15.4342 1.7776 15.727 2.5744 15.8686 3.7248V6.4H0.131836V3.7248C0.272636 2.5744 0.564636 1.7776 1.17104 1.1712C2.34304 0 4.22864 0 7.99984 0H8.00064Z" fill="#8F94FF"/>
<path fill-rule="evenodd" clip-rule="evenodd" d="M0 9.60001C0 7.36001 4.76837e-08 6.24001 0.436 5.38401C0.819488 4.6314 1.43139 4.0195 2.184 3.63601C3.04 3.20001 4.16 3.20001 6.4 3.20001H9.6C11.84 3.20001 12.96 3.20001 13.816 3.63601C14.5686 4.0195 15.1805 4.6314 15.564 5.38401C16 6.24001 16 7.36001 16 9.60001C16 11.84 16 12.96 15.564 13.816C15.1805 14.5686 14.5686 15.1805 13.816 15.564C12.96 16 11.84 16 9.6 16H6.4C4.16 16 3.04 16 2.184 15.564C1.43139 15.1805 0.819488 14.5686 0.436 13.816C4.76837e-08 12.96 0 11.84 0 9.60001ZM8.6 7.20001C8.6 7.04088 8.53679 6.88827 8.42426 6.77575C8.31174 6.66323 8.15913 6.60001 8 6.60001C7.84087 6.60001 7.68826 6.66323 7.57574 6.77575C7.46321 6.88827 7.4 7.04088 7.4 7.20001V10.552L6.424 9.57601C6.36907 9.51706 6.30283 9.46978 6.22923 9.43699C6.15563 9.40419 6.07618 9.38656 5.99562 9.38514C5.91506 9.38372 5.83503 9.39854 5.76032 9.42871C5.68561 9.45889 5.61774 9.50381 5.56077 9.56078C5.50379 9.61776 5.45888 9.68562 5.4287 9.76033C5.39853 9.83505 5.38371 9.91507 5.38513 9.99563C5.38655 10.0762 5.40418 10.1556 5.43698 10.2292C5.46977 10.3028 5.51705 10.3691 5.576 10.424L7.576 12.424C7.6885 12.5364 7.841 12.5995 8 12.5995C8.159 12.5995 8.3115 12.5364 8.424 12.424L10.424 10.424C10.4829 10.3691 10.5302 10.3028 10.563 10.2292C10.5958 10.1556 10.6135 10.0762 10.6149 9.99563C10.6163 9.91507 10.6015 9.83505 10.5713 9.76033C10.5411 9.68562 10.4962 9.61776 10.4392 9.56078C10.3823 9.50381 10.3144 9.45889 10.2397 9.42871C10.165 9.39854 10.0849 9.38372 10.0044 9.38514C9.92382 9.38656 9.84437 9.40419 9.77077 9.43699C9.69717 9.46978 9.63093 9.51706 9.576 9.57601L8.6 10.552V7.20001Z" fill="#8F94FF"/>
</svg>
