<svg width="38" height="38" viewBox="0 0 38 38" fill="none" xmlns="http://www.w3.org/2000/svg">
<rect y="0.491455" width="37.1724" height="37.1724" rx="18.5862" fill="#039AE7"/>
<path fill-rule="evenodd" clip-rule="evenodd" d="M27.2682 19.1947C27.2682 14.4647 23.433 10.6294 18.703 10.6294C13.9729 10.6294 10.1377 14.4647 10.1377 19.1947C10.1377 23.4697 13.2694 27.0132 17.3646 27.6563V21.6713H15.1893V19.1947H17.3646V17.3076C17.3646 15.1613 18.6437 13.9748 20.5999 13.9748C21.5371 13.9748 22.5176 14.1423 22.5176 14.1423V16.2504H21.437C20.3736 16.2504 20.0409 16.9103 20.0409 17.5887V19.1947H22.4162L22.0369 21.6713H20.0413V27.6571C24.1365 27.0143 27.2682 23.4708 27.2682 19.1947Z" fill="white"/>
</svg>
