<svg width="36" height="35" viewBox="0 0 36 35" fill="none" xmlns="http://www.w3.org/2000/svg">
<g id="Group 1161">
<g id="Group">
<g id="Group_2">
<path id="Vector" d="M19.2331 13.9936C19.0728 14.1673 18.8782 14.306 18.6617 14.4009C18.4451 14.4957 18.2112 14.5447 17.9748 14.5447C17.7384 14.5447 17.5045 14.4957 17.288 14.4009C17.0714 14.306 16.8768 14.1673 16.7165 13.9936L10.7059 7.47103C10.2699 7.0348 9.9303 6.51192 9.70912 5.93619C9.48794 5.36047 9.39008 4.74472 9.42187 4.12879C9.45366 3.51286 9.61439 2.91046 9.89366 2.36056C10.1729 1.81067 10.5645 1.32552 11.0431 0.936499C12.827 -0.523798 15.4839 -0.21051 17.1137 1.41927L17.9748 2.28038L18.8359 1.41927C20.4657 -0.21051 23.1227 -0.523798 24.9065 0.936499C25.3854 1.32552 25.7772 1.81076 26.0567 2.36082C26.3361 2.91087 26.4969 3.51347 26.5287 4.12962C26.5605 4.74576 26.4626 5.36172 26.2412 5.93761C26.0199 6.5135 25.6801 7.0365 25.2438 7.47274L19.2331 13.9936Z" fill="#2DCA8C"/>
<path id="Vector_2" opacity="0.5" d="M35.951 11.9838V23.7826C35.951 25.0237 35.6138 26.2415 34.9752 27.3058L31.8132 32.5769C31.509 33.0839 31.0787 33.5034 30.5642 33.7948C30.0497 34.0861 29.4685 34.2392 28.8772 34.2392H20.5434C20.0894 34.2392 19.654 34.0588 19.3329 33.7377C19.0119 33.4167 18.8315 32.9813 18.8315 32.5272V26.395C18.8312 24.8242 19.3709 23.301 20.3603 22.0809L23.4435 18.2803C24.623 16.8286 26.8263 16.5564 28.1428 17.8866C29.4096 19.1637 29.4233 21.2763 28.1839 22.5722L25.6793 25.6794L24.6093 27.0147C24.9628 27.298 25.4141 27.4296 25.8644 27.3805C26.3147 27.3314 26.7271 27.1056 27.0112 26.7528L29.4199 23.7535C30.3247 22.7948 30.8236 21.5232 30.8121 20.205C30.8006 18.8868 30.2797 17.6242 29.3583 16.6814C29.2795 16.6009 29.1871 16.5444 29.1032 16.4725V12.167C29.1032 10.4618 30.2673 8.88 31.9519 8.60609C32.4433 8.52264 32.947 8.54743 33.4278 8.67873C33.9086 8.81003 34.355 9.04468 34.7358 9.36629C35.1166 9.6879 35.4226 10.0887 35.6325 10.5408C35.8424 10.9929 35.9511 11.4853 35.951 11.9838ZM4.13779 32.5769C4.442 33.0839 4.87231 33.5034 5.38683 33.7948C5.90134 34.0861 6.48253 34.2392 7.07379 34.2392H15.4076C15.8616 34.2392 16.2971 34.0588 16.6181 33.7377C16.9392 33.4167 17.1195 32.9813 17.1195 32.5272V26.395C17.1198 24.8242 16.5801 23.301 15.5908 22.0809L12.5075 18.2803C11.328 16.8286 9.12471 16.5564 7.80822 17.8866C7.19939 18.5121 6.85533 19.3483 6.84767 20.2212C6.84002 21.094 7.16937 21.9361 7.76713 22.5722L10.2717 25.6794L11.3417 27.0147C10.9883 27.298 10.5369 27.4296 10.0866 27.3805C9.6363 27.3314 9.22387 27.1056 8.93982 26.7528L6.5311 23.7535C5.62629 22.7948 5.12742 21.5232 5.1389 20.205C5.15039 18.8868 5.67135 17.6242 6.59273 16.6814C6.67148 16.6009 6.76393 16.5444 6.84781 16.4725V12.167C6.84781 10.4618 5.68369 8.88 3.99912 8.60609C3.50773 8.52264 3.00404 8.54743 2.52322 8.67873C2.04239 8.81003 1.59601 9.04468 1.21523 9.36629C0.834444 9.6879 0.528428 10.0887 0.318538 10.5408C0.108648 10.9929 -6.01372e-05 11.4853 2.49579e-08 11.9838V23.7826C-1.98766e-05 25.0237 0.337272 26.2415 0.975813 27.3058L4.13779 32.5769Z" fill="#2DCA8C"/>
</g>
</g>
</g>
</svg>
