<svg width="39" height="39" viewBox="0 0 39 39" fill="none" xmlns="http://www.w3.org/2000/svg">
<rect x="0.982422" y="0.491455" width="38.0172" height="38.0172" rx="19.0086" fill="#CC1F27"/>
<path d="M19.6855 10.6294C14.9554 10.6294 11.1201 14.4647 11.1201 19.1948C11.1201 22.7012 13.2309 25.7144 16.2479 27.0413C16.2249 26.4448 16.244 25.7259 16.397 25.0758C16.5614 24.3799 17.4983 20.4069 17.4983 20.4069C17.4983 20.4069 17.2229 19.8601 17.2229 19.0533C17.2229 17.7838 17.9571 16.8355 18.8748 16.8355C19.6549 16.8355 20.0296 17.4205 20.0296 18.1203C20.0296 18.9042 19.5287 20.0743 19.2725 21.1602C19.0584 22.0703 19.7275 22.8083 20.6261 22.8083C22.2474 22.8083 23.3411 20.7243 23.3411 18.2541C23.3411 16.3766 22.0754 14.9733 19.7772 14.9733C17.1809 14.9733 15.5596 16.912 15.5596 19.0762C15.5596 19.8219 15.7814 20.3496 16.1255 20.7549C16.2823 20.9423 16.3052 21.0187 16.2479 21.2329C16.2058 21.3897 16.114 21.7682 16.072 21.9212C16.0146 22.1391 15.8387 22.2156 15.6437 22.1353C14.4468 21.6459 13.8886 20.3381 13.8886 18.8621C13.8886 16.4301 15.942 13.5126 20.0105 13.5126C23.2799 13.5126 25.4327 15.8795 25.4327 18.4185C25.4327 21.7797 23.5628 24.2881 20.8097 24.2881C19.8843 24.2881 19.0163 23.7872 18.7181 23.2213C18.7181 23.2213 18.221 25.1944 18.1139 25.5768C17.9342 26.2383 17.5786 26.896 17.2535 27.4122C18.042 27.6448 18.8596 27.7633 19.6817 27.764C24.4117 27.764 28.247 23.9287 28.247 19.1986C28.247 14.4685 24.4155 10.6294 19.6855 10.6294Z" fill="white"/>
</svg>
