<svg width="18" height="15" viewBox="0 0 18 15" fill="none" xmlns="http://www.w3.org/2000/svg">
<path d="M3.21415 3.42853C3.04365 3.42853 2.88014 3.49626 2.75958 3.61682C2.63902 3.73738 2.57129 3.90089 2.57129 4.07138C2.57129 4.24188 2.63902 4.40539 2.75958 4.52595C2.88014 4.64651 3.04365 4.71424 3.21415 4.71424H6.64272C6.81321 4.71424 6.97673 4.64651 7.09729 4.52595C7.21784 4.40539 7.28557 4.24188 7.28557 4.07138C7.28557 3.90089 7.21784 3.73738 7.09729 3.61682C6.97673 3.49626 6.81321 3.42853 6.64272 3.42853H3.21415Z" fill="#007AFF"/>
<path fill-rule="evenodd" clip-rule="evenodd" d="M16.4468 4.28919C16.3936 4.28577 16.3354 4.28577 16.2754 4.28577H13.8985C11.9519 4.28577 10.2856 5.77377 10.2856 7.71434C10.2856 9.65491 11.9519 11.1429 13.8985 11.1429H16.2754C16.3354 11.1429 16.3936 11.1429 16.4468 11.1395C17.2379 11.0915 17.9374 10.4906 17.9965 9.65062C17.9999 9.59577 17.9999 9.53662 17.9999 9.48177V5.94691C17.9999 5.89205 17.9999 5.83291 17.9965 5.77805C17.9374 4.93805 17.2379 4.33805 16.4468 4.28919ZM13.6894 8.62891C14.1899 8.62891 14.5962 8.21919 14.5962 7.71434C14.5962 7.20862 14.1899 6.79977 13.6894 6.79977C13.1879 6.79977 12.7808 7.20948 12.7808 7.71434C12.7808 8.22005 13.1879 8.62891 13.6894 8.62891Z" fill="#007AFF"/>
<path opacity="0.5" d="M16.4057 4.28743C16.4057 3.27514 16.368 2.18914 15.7217 1.41171C15.6585 1.33555 15.5919 1.26233 15.522 1.19229C14.88 0.551143 14.0666 0.266572 13.062 0.131143C12.0849 1.02179e-07 10.8377 0 9.26228 0H7.452C5.87657 0 4.62857 1.02179e-07 3.65143 0.131143C2.64686 0.266572 1.83343 0.551143 1.19143 1.19229C0.550286 1.83429 0.265714 2.64771 0.130286 3.65229C-3.83173e-08 4.62943 0 5.87657 0 7.452V7.548C0 9.12343 1.02179e-07 10.3714 0.131143 11.3477C0.266571 12.3523 0.551143 13.1657 1.19229 13.8077C1.83429 14.4489 2.64771 14.7334 3.65229 14.8689C4.62943 15 5.87657 15 7.452 15H9.26228C10.8377 15 12.0857 15 13.062 14.8689C14.0666 14.7334 14.88 14.4489 15.522 13.8077C15.6928 13.6364 15.844 13.4467 15.9729 13.242C16.3586 12.6249 16.4049 11.8689 16.4049 11.142L16.2763 11.1429H13.8986C11.952 11.1429 10.2857 9.65486 10.2857 7.71429C10.2857 5.77371 11.952 4.28571 13.8986 4.28571H16.2754C16.32 4.28571 16.3646 4.28571 16.4057 4.28743Z" fill="#007AFF"/>
</svg>
