<svg width="29" height="27" viewBox="0 0 29 27" fill="none" xmlns="http://www.w3.org/2000/svg">
<path d="M9.72811 11.632V5.04804C9.72811 3.75729 9.21584 2.51925 8.30389 1.60581C7.39194 0.692362 6.1548 0.178145 4.86405 0.176025C3.57331 0.178145 2.33616 0.692362 1.42422 1.60581C0.51227 2.51925 -1.74011e-06 3.75729 0 5.04804V21.976C-1.74011e-06 23.2667 0.51227 24.5047 1.42422 25.4182C2.33616 26.3316 3.57331 26.8459 4.86405 26.848C6.1548 26.8459 7.39194 26.3316 8.30389 25.4182C9.21584 24.5047 9.72811 23.2667 9.72811 21.976V18.992C9.06411 18.848 8.40011 18.68 7.72811 18.48V21.976C7.72916 22.3528 7.65575 22.7261 7.51229 23.0745C7.36883 23.4229 7.15803 23.7395 6.89198 24.0063C6.62593 24.2731 6.3099 24.4848 5.9619 24.6292C5.6139 24.7736 5.24083 24.848 4.86405 24.848C4.48727 24.848 4.1142 24.7736 3.7662 24.6292C3.41821 24.4848 3.10218 24.2731 2.83613 24.0063C2.57008 23.7395 2.35927 23.4229 2.21582 23.0745C2.07236 22.7261 1.99894 22.3528 2 21.976V5.04804C2 4.28846 2.30176 3.56 2.83886 3.02289C3.37596 2.48579 4.10447 2.18403 4.86405 2.18403C5.62363 2.18403 6.35214 2.48579 6.88924 3.02289C7.42635 3.56 7.72811 4.28846 7.72811 5.04804V10.904C8.38057 11.1841 9.04829 11.4271 9.72811 11.632Z" fill="#222950"/>
<path d="M24.128 0.152039C23.4882 0.152039 22.8547 0.278047 22.2636 0.522887C21.6725 0.767728 21.1353 1.12658 20.6829 1.57899C20.2305 2.03139 19.8717 2.5685 19.6269 3.1596C19.382 3.7507 19.256 4.3842 19.256 5.024V11.632C19.9396 11.4307 20.6102 11.1876 21.264 10.904V5.04802C21.264 4.28845 21.5657 3.55999 22.1029 3.02288C22.64 2.48578 23.3685 2.18402 24.128 2.18402C24.5048 2.18296 24.8781 2.25628 25.2265 2.39974C25.5749 2.5432 25.8915 2.75395 26.1583 3.02C26.4251 3.28605 26.6367 3.60218 26.7812 3.95018C26.9256 4.29817 26.9999 4.67125 26.9999 5.04802V21.976C26.9999 22.7377 26.6975 23.4682 26.1589 24.0068C25.6203 24.5454 24.8897 24.848 24.128 24.848C23.7513 24.848 23.3782 24.7736 23.0302 24.6292C22.6822 24.4848 22.3662 24.2731 22.1001 24.0063C21.8341 23.7395 21.6233 23.4229 21.4798 23.0745C21.3363 22.7261 21.2629 22.3527 21.264 21.976V18.48C20.592 18.68 19.928 18.848 19.256 18.992V21.976C19.256 22.6158 19.382 23.2493 19.6269 23.8404C19.8717 24.4315 20.2305 24.9686 20.6829 25.421C21.1353 25.8734 21.6725 26.2322 22.2636 26.4771C22.8547 26.7219 23.4882 26.848 24.128 26.848C25.4202 26.848 26.6593 26.3347 27.573 25.421C28.4866 24.5073 28.9999 23.2681 28.9999 21.976V5.04802C29.0031 4.40621 28.8795 3.77007 28.636 3.1762C28.3926 2.58233 28.0343 2.04244 27.5816 1.58748C27.1288 1.13253 26.5906 0.771522 25.998 0.525182C25.4053 0.278843 24.7699 0.152031 24.128 0.152039Z" fill="#222950"/>
<path d="M14.4961 16.896C10.9857 16.8601 7.53275 15.9996 4.41602 14.384C4.2982 14.3253 4.19317 14.244 4.10684 14.1446C4.02052 14.0453 3.95471 13.9298 3.91309 13.805C3.87147 13.6801 3.85482 13.5483 3.86427 13.417C3.87371 13.2857 3.9091 13.1576 3.96817 13.04C4.02683 12.9222 4.10807 12.8171 4.20743 12.7308C4.30678 12.6444 4.42221 12.5785 4.54708 12.5369C4.67194 12.4953 4.80388 12.4787 4.93516 12.4882C5.06644 12.4976 5.1945 12.5329 5.31211 12.592C8.13725 14.1219 11.2993 14.9231 14.5121 14.9231C17.7249 14.9231 20.8869 14.1219 23.7121 12.592C23.8297 12.5329 23.9578 12.4976 24.089 12.4882C24.2203 12.4787 24.3523 12.4953 24.4771 12.5369C24.602 12.5785 24.7174 12.6444 24.8168 12.7308C24.9161 12.8171 24.9974 12.9222 25.056 13.04C25.1151 13.1576 25.1505 13.2857 25.1599 13.417C25.1694 13.5483 25.1527 13.6801 25.1111 13.805C25.0695 13.9298 25.0037 14.0453 24.9173 14.1446C24.831 14.244 24.7258 14.3253 24.608 14.384C21.4816 16.0045 18.0173 16.8651 14.4961 16.896Z" fill="#222950"/>
</svg>
