<svg width="23" height="23" viewBox="0 0 23 23" fill="none" xmlns="http://www.w3.org/2000/svg">
<path d="M14.0074 5.01374C14.9894 5.20496 15.8918 5.68429 16.5993 6.39039C17.3067 7.09648 17.787 7.99722 17.9786 8.97731M14.0074 1C16.0476 1.22621 17.95 2.13807 19.4024 3.58586C20.8548 5.03365 21.7708 6.93131 22 8.96727M20.9946 16.9747V19.985C20.9958 20.2644 20.9384 20.5411 20.8263 20.7971C20.7141 21.0532 20.5496 21.283 20.3433 21.4719C20.1369 21.6609 19.8934 21.8047 19.6281 21.8942C19.3629 21.9838 19.0818 22.017 18.803 21.9919C15.7093 21.6563 12.7377 20.6012 10.1267 18.9113C7.69763 17.3707 5.63816 15.3152 4.0946 12.8907C2.39553 10.2729 1.33816 7.29253 1.00816 4.19092C0.983037 3.91344 1.01608 3.63378 1.10518 3.36974C1.19428 3.1057 1.33749 2.86307 1.52568 2.65729C1.71388 2.45152 1.94295 2.28712 2.19829 2.17454C2.45364 2.06197 2.72967 2.0037 3.00882 2.00343H6.02489C6.51279 1.99864 6.9858 2.17109 7.35574 2.48863C7.72568 2.80617 7.96731 3.24714 8.0356 3.72934C8.1629 4.69271 8.39899 5.63861 8.73935 6.54899C8.87461 6.90815 8.90389 7.29847 8.82371 7.67372C8.74352 8.04897 8.55724 8.39342 8.28694 8.66624L7.01014 9.9406C8.44132 12.4527 10.5253 14.5328 13.0423 15.9612L14.3191 14.6869C14.5924 14.4171 14.9375 14.2311 15.3135 14.1511C15.6895 14.0711 16.0805 14.1003 16.4404 14.2353C17.3525 14.575 18.3002 14.8107 19.2654 14.9377C19.7538 15.0065 20.1998 15.252 20.5186 15.6276C20.8375 16.0031 21.0069 16.4826 20.9946 16.9747Z" stroke="#595F84" stroke-width="2" stroke-linecap="round" stroke-linejoin="round"/>
</svg>
