<svg width="46" height="47" viewBox="0 0 46 47" fill="none" xmlns="http://www.w3.org/2000/svg">
<path opacity="0.5" d="M22.9998 46.4998C12.1577 46.4998 6.73663 46.4998 3.36717 43.1303C0 39.7654 0 34.3421 0 23.5C0 12.6579 0 7.23686 3.36717 3.8674C6.73893 0.500229 12.1577 0.500229 22.9998 0.500229C33.8419 0.500229 39.2629 0.500229 42.6301 3.8674C45.9995 7.23916 45.9995 12.6579 45.9995 23.5C45.9995 34.3421 45.9995 39.7631 42.6301 43.1303C39.2652 46.4998 33.8419 46.4998 22.9998 46.4998Z" fill="#007AFF"/>
<path d="M22.9994 7.97498C23.4569 7.97498 23.8957 8.15671 24.2192 8.48021C24.5426 8.80371 24.7244 9.24246 24.7244 9.69996V37.2997C24.7244 37.7572 24.5426 38.1959 24.2192 38.5194C23.8957 38.8429 23.4569 39.0247 22.9994 39.0247C22.5419 39.0247 22.1032 38.8429 21.7797 38.5194C21.4562 38.1959 21.2744 37.7572 21.2744 37.2997V9.69996C21.2744 9.24246 21.4562 8.80371 21.7797 8.48021C22.1032 8.15671 22.5419 7.97498 22.9994 7.97498ZM11.4995 14.8749C11.957 14.8749 12.3958 15.0566 12.7193 15.3801C13.0428 15.7036 13.2245 16.1424 13.2245 16.5999V37.2997C13.2245 37.7572 13.0428 38.1959 12.7193 38.5194C12.3958 38.8429 11.957 39.0247 11.4995 39.0247C11.042 39.0247 10.6033 38.8429 10.2798 38.5194C9.95627 38.1959 9.77454 37.7572 9.77454 37.2997V16.5999C9.77454 16.1424 9.95627 15.7036 10.2798 15.3801C10.6033 15.0566 11.042 14.8749 11.4995 14.8749ZM34.4993 24.0748C34.9568 24.0748 35.3955 24.2566 35.719 24.5801C36.0425 24.9036 36.2243 25.3423 36.2243 25.7998V37.2997C36.2243 37.7572 36.0425 38.1959 35.719 38.5194C35.3955 38.8429 34.9568 39.0247 34.4993 39.0247C34.0418 39.0247 33.603 38.8429 33.2795 38.5194C32.956 38.1959 32.7743 37.7572 32.7743 37.2997V25.7998C32.7743 25.3423 32.956 24.9036 33.2795 24.5801C33.603 24.2566 34.0418 24.0748 34.4993 24.0748Z" fill="#007AFF"/>
</svg>
