<svg width="18" height="15" viewBox="0 0 18 15" fill="none" xmlns="http://www.w3.org/2000/svg">
<path d="M1.30981 11.8049C1.30981 11.0569 1.30981 10.6833 1.47061 10.4049C1.57593 10.2224 1.72741 10.071 1.90981 9.96565C2.18821 9.80485 2.56181 9.80485 3.30981 9.80485C4.05781 9.80485 4.43141 9.80485 4.70981 9.96565C4.89222 10.071 5.0437 10.2224 5.14901 10.4049C5.30981 10.6833 5.30981 11.0569 5.30981 11.8049C5.30981 12.5529 5.30981 12.9265 5.14901 13.2049C5.0437 13.3873 4.89222 13.5387 4.70981 13.6441C4.43141 13.8049 4.05781 13.8049 3.30981 13.8049C2.56181 13.8049 2.18821 13.8049 1.90981 13.6441C1.72741 13.5387 1.57593 13.3873 1.47061 13.2049C1.30981 12.9265 1.30981 12.5529 1.30981 11.8049Z" stroke="#8392A5" stroke-width="1.2"/>
<path opacity="0.5" d="M7.30981 11.8049C7.30981 11.0569 7.30981 10.6833 7.47061 10.4049C7.57593 10.2224 7.72741 10.071 7.90981 9.96565C8.18821 9.80485 8.56181 9.80485 9.30981 9.80485C10.0578 9.80485 10.4314 9.80485 10.7098 9.96565C10.8922 10.071 11.0437 10.2224 11.149 10.4049C11.3098 10.6833 11.3098 11.0569 11.3098 11.8049C11.3098 12.5529 11.3098 12.9265 11.149 13.2049C11.0437 13.3873 10.8922 13.5387 10.7098 13.6441C10.4314 13.8049 10.0578 13.8049 9.30981 13.8049C8.56181 13.8049 8.18821 13.8049 7.90981 13.6441C7.72741 13.5387 7.57593 13.3873 7.47061 13.2049C7.30981 12.9265 7.30981 12.5529 7.30981 11.8049Z" stroke="#8392A5" stroke-width="1.2"/>
<path opacity="0.7" d="M13.3098 11.8049C13.3098 11.0569 13.3098 10.6833 13.4706 10.4049C13.5759 10.2224 13.7274 10.071 13.9098 9.96565C14.1882 9.80485 14.5618 9.80485 15.3098 9.80485C16.0578 9.80485 16.4314 9.80485 16.7098 9.96565C16.8922 10.071 17.0437 10.2224 17.149 10.4049C17.3098 10.6833 17.3098 11.0569 17.3098 11.8049C17.3098 12.5529 17.3098 12.9265 17.149 13.2049C17.0437 13.3873 16.8922 13.5387 16.7098 13.6441C16.4314 13.8049 16.0578 13.8049 15.3098 13.8049C14.5618 13.8049 14.1882 13.8049 13.9098 13.6441C13.7274 13.5387 13.5759 13.3873 13.4706 13.2049C13.3098 12.9265 13.3098 12.5529 13.3098 11.8049Z" stroke="#8392A5" stroke-width="1.2"/>
<path d="M3.30981 9.80476V5.00476C3.30981 3.11916 3.30981 2.17596 3.89541 1.59036C4.48101 1.00476 5.42421 1.00476 7.30981 1.00476H11.3098C13.1954 1.00476 14.1378 1.00476 14.7242 1.59036C15.3098 2.17596 15.3098 3.11916 15.3098 5.00476V7.40476M15.3098 7.40476L16.9098 5.80476M15.3098 7.40476L13.7098 5.80476" stroke="#8392A5" stroke-width="1.2" stroke-linecap="round" stroke-linejoin="round"/>
</svg>
